<svg xmlns="http://www.w3.org/2000/svg" viewBox="0 0 350 313.33"><defs><style>.cls-1{isolation:isolate;}.cls-2,.cls-4{fill:#b4e7fb;}.cls-3,.cls-36,.cls-4{mix-blend-mode:screen;}.cls-5{fill:#fce18e;}.cls-6{fill:#fff7cd;}.cls-7{fill:#f2b859;}.cls-8{fill:#e8683c;}.cls-9{fill:#7191e4;}.cls-10{fill:#fff;}.cls-11{fill:#e08669;}.cls-12{fill:#ffe066;}.cls-13{fill:#c8df6a;}.cls-14{fill:#95acea;}.cls-15{fill:#fae5c4;}.cls-16{fill:#4d5052;}.cls-17{fill:#8b8e91;}.cls-18{fill:#f7be5e;}.cls-19,.cls-20{fill:#e7caaf;}.cls-20,.cls-23,.cls-30{mix-blend-mode:multiply;}.cls-21{fill:#808184;}.cls-22{fill:#7ac4cf;}.cls-23{fill:#465554;opacity:0.43;}.cls-24{fill:#a46557;}.cls-25,.cls-30,.cls-36{fill:#f1dfcb;}.cls-26{fill:#c67a6a;}.cls-27{fill:#435c6b;}.cls-28{fill:#e5936e;}.cls-29{fill:#4c607c;}.cls-31{fill:#44281a;}.cls-32{fill:#6e6f72;}.cls-33{fill:#b7b9bb;}.cls-34{fill:#858789;}.cls-35{fill:#989a9d;}.cls-37{fill:#866a57;}.cls-38{fill:#9f7c67;}.cls-39{fill:#c2b098;}.cls-40{fill:#556079;}.cls-41{fill:#384d5e;}.cls-42{fill:#414a5e;}.cls-43{fill:#536d83;}.cls-44{fill:#63441d;}.cls-45{fill:#7f5340;}.cls-46{fill:#644136;}</style></defs><g class="cls-1"><g id="Layer_1" data-name="Layer 1"><path class="cls-2" d="M252.94,187.81c-10.81,7.35-21.38,14.84-29.18,26.1-12.25,17.65-20.35,40.82-40.22,51.6-18.07,9.79-40.8,7.4-58.87-1.06a120.39,120.39,0,0,1-18.19-8.83c-62.27-37-86.25-143-22.84-191.12,43.45-33,130.71-58.77,176.43-15.31,13.79,13.1,24.74,30.83,31.7,48.45,5.29,13.4,7.66,28.4,3.92,42.32-3.57,13.26-12.43,24.62-22.93,33.48A234.16,234.16,0,0,1,252.94,187.81Z"/><ellipse class="cls-2" cx="249.59" cy="219.54" rx="28.11" ry="19.22" transform="translate(-78.71 271.56) rotate(-50.34)"/><g class="cls-3"><path class="cls-2" d="M233.2,115.43a26.74,26.74,0,1,1,26.74-26.74A26.78,26.78,0,0,1,233.2,115.43Zm0-40.5A13.76,13.76,0,1,0,247,88.69,13.77,13.77,0,0,0,233.2,74.93Z"/></g><path class="cls-4" d="M145.32,94.34V87.21h-5.59a38.2,38.2,0,0,0-1.62-8l5.15-2.18-2.79-6.57-5.15,2.18a37.72,37.72,0,0,0-4.19-6.18l4-4-5-5.05-4,4A38.43,38.43,0,0,0,119.32,57l2.1-5.19-6.62-2.68-2.1,5.19a37.88,37.88,0,0,0-7.33-1.43V47.25H98.23v5.59a38.11,38.11,0,0,0-8,1.62l-2.19-5.15L81.51,52.1l2.19,5.15a38.45,38.45,0,0,0-6.19,4.19l-4-4-5,5.05,4,4A38.86,38.86,0,0,0,68,73.25l-5.2-2.1-2.67,6.62,5.18,2.1a37.82,37.82,0,0,0-1.42,7.34h-5.6v7.13h5.6a37.55,37.55,0,0,0,1.61,8l-5.14,2.18,2.78,6.57,5.16-2.19a38,38,0,0,0,4.18,6.19l-4,4,5,5,4-4a38,38,0,0,0,6.77,4.48l-2.1,5.2,6.62,2.67,2.09-5.18a37.82,37.82,0,0,0,7.34,1.42v5.6h7.14v-5.6a37.46,37.46,0,0,0,8-1.61l2.18,5.14,6.57-2.78-2.18-5.15a38.9,38.9,0,0,0,6.19-4.19l4,4,5-5-4-4a38.06,38.06,0,0,0,4.49-6.77l5.19,2.1,2.68-6.61-5.19-2.1a37.84,37.84,0,0,0,1.43-7.34Zm-16.44,3.28a28,28,0,0,1-2.86,7,30,30,0,0,1-2,3,28.55,28.55,0,0,1-5.38,5.38,29.44,29.44,0,0,1-2.56,1.73,27.57,27.57,0,0,1-7,3,27.12,27.12,0,0,1-3.5.71A27.59,27.59,0,0,1,87.91,115a26.94,26.94,0,0,1-3-2,28.05,28.05,0,0,1-7.11-7.94,27.69,27.69,0,0,1-3.69-10.5,26.95,26.95,0,0,1,0-7.61,27.09,27.09,0,0,1,3.45-10.09,26.81,26.81,0,0,1,2-3,28,28,0,0,1,5.38-5.38,26.19,26.19,0,0,1,2.56-1.74,27.68,27.68,0,0,1,7-3,27.12,27.12,0,0,1,3.5-.71,26.95,26.95,0,0,1,7.61,0,27.25,27.25,0,0,1,10.09,3.44,28.18,28.18,0,0,1,8.36,7.36,28,28,0,0,1,4.71,9.56,28.92,28.92,0,0,1,.71,3.5,28,28,0,0,1,0,7.61A27.67,27.67,0,0,1,128.88,97.62Z"/><polygon class="cls-5" points="179.19 105.65 159.96 72.35 140.74 105.65 151.73 105.65 151.73 305.5 168.2 305.5 168.2 105.65 179.19 105.65"/><polygon class="cls-6" points="151.79 141.49 123.04 91.69 94.29 141.49 110.73 141.49 110.73 305.5 135.35 305.5 135.35 141.49 151.79 141.49"/><polygon class="cls-5" points="267.13 171.58 243.66 130.93 220.18 171.58 233.6 171.58 233.6 305.5 253.71 305.5 253.71 171.58 267.13 171.58"/><polygon class="cls-7" points="238.5 91.28 200.94 26.24 163.39 91.28 184.86 91.28 184.86 305.5 217.03 305.5 217.03 91.28 238.5 91.28"/><polygon class="cls-8" points="200.94 195.27 163.19 129.88 125.42 195.27 147.01 195.27 147.01 305.5 179.36 305.5 179.36 195.27 200.94 195.27"/><path class="cls-9" d="M341.25,305.5c-.63-36.67-74.82-66.31-166.25-66.31S9.38,268.83,8.75,305.5Z"/><rect class="cls-9" x="236.15" y="42.06" width="80.52" height="52.06" rx="5.66" transform="translate(38.04 -87.54) rotate(19.3)"/><path class="cls-10" d="M317.29,66.28l-71.7-25.11h0L233.83,74.76a3.38,3.38,0,0,0,2.07,4.31l65.32,22.87a3.38,3.38,0,0,0,4.31-2.07Z"/><path class="cls-11" d="M254,39.11a1.9,1.9,0,1,1-1.16-2.41A1.9,1.9,0,0,1,254,39.11Z"/><path class="cls-12" d="M259.53,41a1.9,1.9,0,1,1-1.16-2.42A1.9,1.9,0,0,1,259.53,41Z"/><path class="cls-13" d="M265,43a1.9,1.9,0,1,1-1.16-2.42A1.91,1.91,0,0,1,265,43Z"/><rect class="cls-14" x="242.37" y="61.75" width="72.55" height="0.49" transform="translate(36.16 -88.62) rotate(19.3)"/><rect class="cls-14" x="244.76" y="54.92" width="72.55" height="0.49" transform="translate(34.03 -89.8) rotate(19.3)"/><rect class="cls-14" x="239.97" y="68.58" width="72.55" height="0.49" transform="translate(38.28 -87.44) rotate(19.3)"/><rect class="cls-14" x="237.58" y="75.41" width="72.55" height="0.49" transform="translate(40.4 -86.27) rotate(19.3)"/><rect class="cls-14" x="235.19" y="82.25" width="72.55" height="0.49" transform="translate(42.53 -85.09) rotate(19.3)"/><rect class="cls-14" x="232.79" y="89.08" width="72.55" height="0.49" transform="translate(44.65 -83.92) rotate(19.3)"/><rect class="cls-14" x="251.85" y="70.3" width="36.69" height="0.49" transform="translate(426.08 -161.15) rotate(109.3)"/><rect class="cls-14" x="242.13" y="66.89" width="36.69" height="0.49" transform="translate(409.94 -156.5) rotate(109.3)"/><rect class="cls-14" x="232.42" y="63.49" width="36.69" height="0.49" transform="translate(393.81 -151.86) rotate(109.3)"/><rect class="cls-14" x="222.7" y="60.09" width="36.69" height="0.49" transform="translate(377.67 -147.22) rotate(109.3)"/><rect class="cls-14" x="290.71" y="83.91" width="36.69" height="0.49" transform="translate(490.63 -179.71) rotate(109.3)"/><rect class="cls-14" x="280.99" y="80.5" width="36.69" height="0.49" transform="translate(474.5 -175.07) rotate(109.3)"/><rect class="cls-14" x="271.28" y="77.1" width="36.69" height="0.49" transform="translate(458.36 -170.43) rotate(109.3)"/><rect class="cls-14" x="261.56" y="73.7" width="36.69" height="0.49" transform="translate(442.22 -165.79) rotate(109.3)"/><rect class="cls-11" x="304.08" y="65.41" width="9.8" height="6.75" transform="matrix(0.94, 0.33, -0.33, 0.94, 40.11, -98.27)"/><rect class="cls-11" x="299.29" y="79.08" width="9.8" height="6.75" transform="matrix(0.94, 0.33, -0.33, 0.94, 44.35, -95.92)"/><rect class="cls-13" x="284.65" y="58.61" width="9.8" height="6.75" transform="matrix(0.94, 0.33, -0.33, 0.94, 36.76, -92.23)"/><rect class="cls-13" x="260.43" y="65.47" width="9.8" height="6.75" transform="matrix(0.94, 0.33, -0.33, 0.94, 37.67, -83.84)"/><rect class="cls-13" x="265.36" y="82.53" width="9.8" height="6.75" transform="translate(43.59 -84.51) rotate(19.3)"/><path class="cls-5" d="M143,33.74c-6.51-9.83-16-9.28-18.56-8.93s-12,1.83-16.1,12.87c0,0-2.27,7.56,1.51,13.23s11.08,13.25,11.92,16.91,1.33,7,1.33,7l1-.12,11.79-1.34,1-.11s-.27-3.36-.27-7.12,5.41-12.79,7.82-19.16S143,33.74,143,33.74Z"/><g class="cls-3"><path class="cls-15" d="M138.35,43.56a1.54,1.54,0,0,0-1-.61,1.73,1.73,0,0,0-1.06.3,4.89,4.89,0,0,0-1.55,1.83A12.76,12.76,0,0,0,133.67,48a22.75,22.75,0,0,0-.56,3.18c-.08.71-.14,1.42-.19,2.13a3,3,0,0,1-1.1-.08,4.22,4.22,0,0,1-2.48-2.2,15.68,15.68,0,0,0-.08-1.67c0-.54-.1-1.09-.17-1.64a11.83,11.83,0,0,0-.43-2.13,2.67,2.67,0,0,0-.93-1.5,1,1,0,0,0-.33-.14.28.28,0,0,0-.28.16,4.11,4.11,0,0,0-.07,2.33,15.23,15.23,0,0,0,.81,2.56,18.64,18.64,0,0,0,1.06,2.27c0,1.2-.36,2.76-1.73,3a2.11,2.11,0,0,1-1.78-.78,3.45,3.45,0,0,1-.26-.28c-.09-.57-.21-1.14-.34-1.71-.22-.91-.47-1.84-.75-2.74a4.6,4.6,0,0,0-1.13-2.12,1.3,1.3,0,0,0-.93-.34.29.29,0,0,0-.26.23,4.67,4.67,0,0,0,.46,2.62,19,19,0,0,0,1.33,2.48,17.24,17.24,0,0,0,1.19,1.78,12,12,0,0,1,0,4.39,2.86,2.86,0,0,1-1.28,2.14l0,0c-.35-1-.72-1.92-1.13-2.87-.59-1.34-1.24-2.66-1.92-4-.29-.56-.59-1.12-.88-1.69s-.48-.92-.74-1.37a4.68,4.68,0,0,0-2.06-2.11.86.86,0,0,0-1.15.34,2.25,2.25,0,0,0-.09,1.36,13.15,13.15,0,0,0,.46,1.95,32.7,32.7,0,0,0,1.35,3.57A14.21,14.21,0,0,0,118,56.5,13.7,13.7,0,0,0,119.81,59a4.11,4.11,0,0,0,2.57,1.39,2.29,2.29,0,0,0,.64,0c.4,1.09.79,2.19,1.16,3.28a60.16,60.16,0,0,1,2.22,8c.12.65.23,1.3.31,2,0,.14.23,0,.22-.07a44.12,44.12,0,0,0-1.78-8.42c-.41-1.37-.87-2.73-1.34-4.08l-.3-.82.26-.13a2.77,2.77,0,0,0,.92-1.06,7.74,7.74,0,0,0,.67-3.49,15.22,15.22,0,0,0-.1-1.65,2.4,2.4,0,0,0,1.37.69,2.27,2.27,0,0,0,2-.94,3.88,3.88,0,0,0,.67-1.88,5.18,5.18,0,0,0,1.21,1.26,3.37,3.37,0,0,0,2.4.62c-.1,1.45-.16,2.92-.19,4.37-.06,2.52-.06,5-.11,7.55,0,1.26,0,2.51.07,3.76s.1,2.26.21,3.38a3,3,0,0,1,0,1.23c-.11.33.34.33.43.07a3.28,3.28,0,0,0,.1-1.25c0-.45-.09-.9-.11-1.35-.06-1.2-.14-2.4-.17-3.61s0-2.43,0-3.65,0-2.42,0-3.63c0-2.32.07-4.65.22-7a4.77,4.77,0,0,0,2-1.2,10.21,10.21,0,0,0,1.74-2.24,13.72,13.72,0,0,0,1-2,8.9,8.9,0,0,0,.67-2.46A2.92,2.92,0,0,0,138.35,43.56ZM120.86,59.31a8.4,8.4,0,0,1-1.94-2.26c-.26-.4-.5-.81-.74-1.22-.12-.21-.25-.41-.35-.63a24.56,24.56,0,0,1-1.21-3c-.22-.65-.43-1.3-.59-2a6.13,6.13,0,0,1-.19-1.54v0h0a.22.22,0,0,1,0-.08.59.59,0,0,1,0-.13l0,0v0l0,0h0l0,0h.22l.07,0h.05a2.08,2.08,0,0,1,.47.24,4.25,4.25,0,0,1,1,1,20.78,20.78,0,0,1,1.49,2.64c.65,1.23,1.3,2.48,1.9,3.74s1.19,2.68,1.71,4.06A3.2,3.2,0,0,1,120.86,59.31Zm3.27-7.64c-.42-.7-.85-1.41-1.22-2.15a6.67,6.67,0,0,1-.78-2.52c0-.11,0-.22,0-.32.57.13.94.82,1.15,1.3A13.39,13.39,0,0,1,124,50c.2.73.4,1.48.56,2.24Zm3.7-4.11a8.29,8.29,0,0,1-.5-2.46,2.94,2.94,0,0,1,.08-.72,2,2,0,0,1,.72,1,8.69,8.69,0,0,1,.48,2c.09.57.15,1.14.2,1.71,0,.38.07.75.09,1.13l-.2-.44C128.38,49,128.08,48.3,127.83,47.56Zm10.37-.82a12.63,12.63,0,0,1-2,4.15,5.6,5.6,0,0,1-2.82,2.28,28.12,28.12,0,0,1,.86-5.77,10.21,10.21,0,0,1,1-2.54A5.51,5.51,0,0,1,136,44a1.88,1.88,0,0,1,.86-.55c.7-.19,1.27.5,1.45,1.1A4.23,4.23,0,0,1,138.2,46.74Z"/><path class="cls-15" d="M116,48.28Z"/></g><path class="cls-16" d="M135.44,80.55l-3.4.39-2.46.28-3.39.38s.17,4.56,4.78,4.32l.78-.09C136.29,85,135.44,80.55,135.44,80.55Z"/><path class="cls-17" d="M136.78,71.19l-14,1.59a1.13,1.13,0,0,1-1.25-1h0a1.13,1.13,0,0,1,1-1.25l14-1.59a1.13,1.13,0,0,1,1.25,1h0A1.13,1.13,0,0,1,136.78,71.19Z"/><path class="cls-17" d="M137.28,75.59l-14,1.59a1.13,1.13,0,0,1-1.25-1h0a1.13,1.13,0,0,1,1-1.25l14-1.59a1.13,1.13,0,0,1,1.25,1h0A1.13,1.13,0,0,1,137.28,75.59Z"/><path class="cls-17" d="M137,73.39,123,75a1.13,1.13,0,0,1-1.25-1h0a1.13,1.13,0,0,1,1-1.25l14-1.59a1.13,1.13,0,0,1,1.25,1h0A1.13,1.13,0,0,1,137,73.39Z"/><path class="cls-17" d="M137.53,77.79l-14,1.59a1.13,1.13,0,0,1-1.25-1h0a1.14,1.14,0,0,1,1-1.25l14-1.59a1.13,1.13,0,0,1,1.25,1h0A1.13,1.13,0,0,1,137.53,77.79Z"/><path class="cls-17" d="M137.78,80l-14,1.59a1.13,1.13,0,0,1-1.25-1h0a1.13,1.13,0,0,1,1-1.25l14-1.59a1.13,1.13,0,0,1,1.25,1h0A1.14,1.14,0,0,1,137.78,80Z"/><path class="cls-17" d="M138,82.18l-14,1.59a1.13,1.13,0,0,1-1.25-1h0a1.13,1.13,0,0,1,1-1.25l14-1.59a1.14,1.14,0,0,1,1.25,1h0A1.13,1.13,0,0,1,138,82.18Z"/><path class="cls-18" d="M124,18.38h0a2.11,2.11,0,0,1-2.33-1.85l-.72-6.35a2.12,2.12,0,0,1,1.86-2.33h0a2.11,2.11,0,0,1,2.33,1.85l.72,6.35A2.12,2.12,0,0,1,124,18.38Z"/><path class="cls-18" d="M142.22,24h0a2.13,2.13,0,0,0,3-.4L149,18.49a2.11,2.11,0,0,0-.4-2.95h0a2.1,2.1,0,0,0-2.95.4L141.82,21A2.11,2.11,0,0,0,142.22,24Z"/><path class="cls-18" d="M150.14,38.71h0a2.11,2.11,0,0,0,2.51,1.6l6.24-1.38a2.11,2.11,0,0,0,1.6-2.51h0a2.11,2.11,0,0,0-2.51-1.6l-6.24,1.38A2.11,2.11,0,0,0,150.14,38.71Z"/><path class="cls-18" d="M146.7,57h0a2.11,2.11,0,0,1,2.91-.62L155,59.9a2.12,2.12,0,0,1,.62,2.92h0a2.11,2.11,0,0,1-2.91.62L147.32,60A2.12,2.12,0,0,1,146.7,57Z"/><path class="cls-18" d="M107.63,27.91h0a2.11,2.11,0,0,1-3,.27l-4.91-4.1a2.12,2.12,0,0,1-.27-3h0a2.12,2.12,0,0,1,3-.26l4.91,4.09A2.11,2.11,0,0,1,107.63,27.91Z"/><path class="cls-18" d="M103.22,44h0a2.12,2.12,0,0,1-2.08,2.13l-6.4.05a2.11,2.11,0,0,1-2.12-2.08h0A2.12,2.12,0,0,1,94.71,42l6.39,0A2.11,2.11,0,0,1,103.22,44Z"/><path class="cls-18" d="M110.69,61.13h0a2.11,2.11,0,0,0-3,0l-4.45,4.59a2.12,2.12,0,0,0,0,3h0a2.11,2.11,0,0,0,3,0l4.45-4.59A2.12,2.12,0,0,0,110.69,61.13Z"/><path class="cls-10" d="M225.37,182a1.41,1.41,0,0,1-.06-2.82c1.55-.06,3.1-.17,4.62-.32a1.41,1.41,0,1,1,.28,2.81c-1.57.16-3.18.27-4.79.33Zm-8.48-.09h-.09c-1.56-.1-3.17-.23-4.76-.4a1.41,1.41,0,1,1,.3-2.81c1.55.16,3.11.29,4.63.38a1.42,1.42,0,0,1-.08,2.83Zm21.56-1.56a1.41,1.41,0,0,1-.31-2.79c1.51-.34,3-.72,4.47-1.15a1.41,1.41,0,1,1,.8,2.71c-1.52.45-3.09.85-4.66,1.2A1.53,1.53,0,0,1,238.45,180.35Zm-34.65-.07a1.24,1.24,0,0,1-.27,0c-1.52-.28-3.09-.6-4.66-1a1.41,1.41,0,1,1,.62-2.76c1.54.35,3.07.66,4.56.94a1.42,1.42,0,0,1-.25,2.81ZM191,177.21a1.32,1.32,0,0,1-.39-.06c-1.5-.43-3-.89-4.55-1.38a1.41,1.41,0,1,1,.86-2.69c1.5.47,3,.93,4.47,1.36a1.41,1.41,0,0,1-.39,2.77Zm60-.93a1.41,1.41,0,0,1-.57-2.71c1.39-.61,2.79-1.29,4.16-2a1.42,1.42,0,1,1,1.31,2.51c-1.42.74-2.88,1.44-4.34,2.08A1.38,1.38,0,0,1,251,176.28Zm-72.55-3.22a1.45,1.45,0,0,1-.5-.08q-2.19-.82-4.43-1.71a1.42,1.42,0,0,1,1.05-2.63q2.2.88,4.37,1.68a1.42,1.42,0,0,1,.83,1.82A1.41,1.41,0,0,1,178.43,173.06ZM60.66,169.93a1.41,1.41,0,0,1-.82-2.57c.06,0,1.49-1.05,4.16-2.55a1.41,1.41,0,0,1,1.38,2.47c-2.52,1.41-3.89,2.38-3.91,2.39A1.42,1.42,0,0,1,60.66,169.93Zm201.83-.07a1.41,1.41,0,0,1-.8-2.58c1.25-.86,2.51-1.78,3.74-2.73a1.41,1.41,0,1,1,1.73,2.23c-1.27,1-2.57,1.95-3.87,2.84A1.44,1.44,0,0,1,262.49,169.86Zm-96.3-1.76a1.38,1.38,0,0,1-.56-.12q-2.15-.94-4.33-1.94a1.42,1.42,0,1,1,1.19-2.57c1.43.66,2.86,1.3,4.27,1.92a1.41,1.41,0,0,1-.57,2.71ZM72.3,163.7a1.44,1.44,0,0,1-1.3-.85,1.42,1.42,0,0,1,.73-1.86c1.46-.64,3-1.25,4.43-1.82a1.42,1.42,0,0,1,1,2.65c-1.44.55-2.89,1.14-4.3,1.76A1.46,1.46,0,0,1,72.3,163.7Zm81.79-.86a1.29,1.29,0,0,1-.51-.1c-1.46-.56-2.93-1.1-4.38-1.6a1.41,1.41,0,1,1,.92-2.67c1.48.51,3,1.06,4.48,1.63a1.42,1.42,0,0,1-.51,2.74Zm118.62-1.3a1.41,1.41,0,0,1-1-2.44c1.1-1,2.2-2.15,3.29-3.29a1.41,1.41,0,1,1,2,2c-1.11,1.17-2.25,2.3-3.38,3.38A1.4,1.4,0,0,1,272.71,161.54Zm-188-2.33a1.41,1.41,0,0,1-.39-2.77c1.51-.44,3.06-.85,4.62-1.23a1.42,1.42,0,1,1,.67,2.75c-1.52.37-3,.77-4.5,1.2A1.37,1.37,0,0,1,84.71,159.21Zm56.83-.46a1.47,1.47,0,0,1-.36,0c-1.51-.4-3-.77-4.53-1.1a1.42,1.42,0,0,1,.61-2.77c1.54.34,3.1.72,4.64,1.13a1.41,1.41,0,0,1-.36,2.78Zm-43.94-2.4a1.41,1.41,0,0,1-.22-2.81c1.56-.25,3.15-.46,4.74-.64a1.42,1.42,0,0,1,.31,2.82c-1.54.17-3.1.37-4.61.61Zm31-.22h-.2c-1.54-.22-3.09-.4-4.62-.55a1.41,1.41,0,0,1-1.27-1.54,1.43,1.43,0,0,1,1.54-1.28c1.57.15,3.16.34,4.74.57a1.41,1.41,0,0,1-.19,2.81Zm-17.87-1a1.41,1.41,0,0,1-1.42-1.37,1.43,1.43,0,0,1,1.38-1.46c1.56,0,3.16-.05,4.77,0a1.42,1.42,0,0,1,0,2.83h0q-2.37,0-4.65,0Zm170.91-3.29a1.43,1.43,0,0,1-.89-.32,1.4,1.4,0,0,1-.2-2c.82-1,1.64-2.05,2.45-3.1a1.41,1.41,0,1,1,2.24,1.72c-.83,1.08-1.66,2.13-2.5,3.17A1.43,1.43,0,0,1,281.65,151.84Z"/><path class="cls-19" d="M282.85,130.8a12.43,12.43,0,0,0-9.62,7c-3.47,6.66-8.61,25.72-8.61,25.72l7.78,12.78Z"/><path class="cls-19" d="M241.46,160.68s25.79,17.95,33.22,17.41,9-7.21,1.28-11.2-33.14-12.39-33.14-12.39Z"/><path class="cls-19" d="M244.45,157.68a6.4,6.4,0,0,0-.58-2.06,5.47,5.47,0,0,0-1.29-1.62c-.71-.61-1.49-1.15-2.24-1.72s-1.52-1.16-2.3-1.72a19.53,19.53,0,0,0-2.07-1.43,2.2,2.2,0,0,0-.89-.31c-.72-.23-1.44-.43-2.17-.62-1-.25-1.92-.48-2.9-.65a13.39,13.39,0,0,0-2.45-.24,6.66,6.66,0,0,0-2.33.5,17,17,0,0,0-1.85.67,1,1,0,0,0-.53.53.55.55,0,0,0,.22.58,2.23,2.23,0,0,0,.68.37,14.28,14.28,0,0,0,3.86-.11,6.45,6.45,0,0,1,1.24.07,11.29,11.29,0,0,1,1.82.37c.4.11.8.25,1.19.39h-.39a15.46,15.46,0,0,0-1.92.22,8.2,8.2,0,0,0-1.84.35h0a6.15,6.15,0,0,0-1.24.33,11.27,11.27,0,0,0-2.11,1.13l-.77.48c-.42.17-.83.35-1.23.56a2.79,2.79,0,0,0-1.11.9c-.3.47.08.83.52,1a2.4,2.4,0,0,0,2.05-.4,14.49,14.49,0,0,1,2.54-1.14,6.82,6.82,0,0,1,2.77-.34l.1,0-.19,0a3,3,0,0,0-1.19.6c-.94.66-2,1.21-2.93,1.82l-1.51.89c-.34.19-2.25,1.23-1.33,1.71a2,2,0,0,0,.89.15,3.39,3.39,0,0,0,1.18-.23,11.32,11.32,0,0,0,2.33-1.24,10.16,10.16,0,0,1,1.22-.74,4.06,4.06,0,0,1,1.76-.33,11.9,11.9,0,0,1,2.79.41c-.34,0-.68,0-1,0a7.92,7.92,0,0,0-3.79,1.43c-.59.34-1.27.5-1.85.86-.34.22-.74.61-.53,1s.57.37.89.35a10.8,10.8,0,0,0,3-1,14.73,14.73,0,0,1,3.49-.65c1.35-.15,2.21.45,3.35,1.05.56.29,1.13.55,1.71.8a23.11,23.11,0,0,0,3.63,1.22,2.85,2.85,0,0,0,1.45,0,2,2,0,0,0,.92-.56A4.36,4.36,0,0,0,244.45,157.68Z"/><path class="cls-20" d="M229.45,150.9a3.74,3.74,0,0,0,.86,1.59,5,5,0,0,0,2.15,1,5.55,5.55,0,0,1,1.94.9,9,9,0,0,1,1.31,1.38,10.06,10.06,0,0,0,3.48,2.73,3.84,3.84,0,0,0,3.89-.39,4.32,4.32,0,0,0,1.19-1.37,5,5,0,0,0-.4-1.12,5.47,5.47,0,0,0-1.29-1.62c-.71-.61-1.49-1.15-2.24-1.72l-.15-.11-.62-.12c-.51-.1-1-.24-1.52-.37q-1.62-.41-3.27-.72c-1.44-.27-2.89-.58-4.35-.73l.24.06c.4.11.8.25,1.19.39h-.39a15.46,15.46,0,0,0-1.92.22Z"/><path class="cls-19" d="M242.67,158.22a2.32,2.32,0,0,0,1.5-1.33c.48-1.48-1-2.63-2-3.37-3.22-2.23-7.49-1.84-11.08-3.11a1.62,1.62,0,0,0-.94-.14c-.77.2-.29,1.23,0,1.64.7.93,1.79,1.06,2.84,1.36,2.66.74,3.45,4,6.07,4.85A5.93,5.93,0,0,0,242.67,158.22Z"/><polygon class="cls-21" points="234.05 213.98 235.09 277.72 237.09 277.72 237.95 213.98 234.05 213.98"/><polygon class="cls-21" points="272.78 213.98 273.82 277.72 275.82 277.72 276.68 213.98 272.78 213.98"/><polygon class="cls-21" points="281.05 207.73 281.94 277.56 283.63 277.56 284.37 207.73 281.05 207.73"/><polygon class="cls-21" points="313.95 207.73 314.83 277.56 316.53 277.56 317.26 207.73 313.95 207.73"/><path class="cls-22" d="M231.44,221.43S225.06,211,238,207.53s27.49,4.63,37.23-9.76,10-69.53,17.84-75.77,40.23-7.25,40.79,0-3.12,84.76-19.86,96.75S231.44,221.43,231.44,221.43Z"/><path class="cls-23" d="M333.85,122c-.56-7.25-32.92-6.25-40.79,0s-8.09,61.38-17.84,75.77a18.65,18.65,0,0,1-12.63,8.5,23.47,23.47,0,0,0,5-.43c3.18-.55,6.35-1.19,9.54-1.66a82.93,82.93,0,0,1,13.89-.85,89.12,89.12,0,0,1,11.52.91,35.49,35.49,0,0,1,5.72,1.28,12.07,12.07,0,0,1,4.22,2.15,4.21,4.21,0,0,1,1.6,3.21,5.39,5.39,0,0,1-2.11,3.89,16.65,16.65,0,0,1-5.23,2.82,49.79,49.79,0,0,1-6.69,1.9c-3.76.81-7.55,1.37-11.34,1.9a142.59,142.59,0,0,1-23.73.9c-3.87-.11-7.74-.31-11.61-.4-3.64-.08-7.3-.2-10.94-.58a54.25,54.25,0,0,1-12.15-2.57,12.52,12.52,0,0,0,1.13,2.69s65.8,9.32,82.55-2.68S334.41,129.24,333.85,122Z"/><path class="cls-19" d="M235.83,216c-.2,21,1.12,55.43,2,60.74l4.58.22s5.22-33.33,6.94-58.75Z"/><path class="cls-19" d="M243.47,277.78a4.39,4.39,0,0,1-1-2.66c0-.54-.17-.87-.74-.64a10.4,10.4,0,0,0-1.15.59c-.46.27-2.1-.43-2.53.11-.64.78-1.6,3.43-2.12,4.29a24,24,0,0,1-2,2.71,29.52,29.52,0,0,1-4.23,4.35,5.45,5.45,0,0,0-1.33,1.38,1.93,1.93,0,0,0-.55,1.68c.47,2.52,4.54,1.41,6.1.89a13.43,13.43,0,0,0,5.29-3.45,18.45,18.45,0,0,0,2-2.44c.55-.81.95-1.91,1.8-2.45a3.55,3.55,0,0,0,.93-.63c.79-.93.22-2.6-.32-3.52A2.39,2.39,0,0,0,243.47,277.78Z"/><path class="cls-24" d="M223.42,291.16c-.46.33-.92.67-1.39,1a2.51,2.51,0,0,0-1.33,2.64c.33,1.22,2.35,1.09,3.33,1.1a14.5,14.5,0,0,0,4.09-.54A21.84,21.84,0,0,0,234,293c1.43-1.05,1.86-2.09,3.37-3a40.89,40.89,0,0,1,3.49-2.41,6.94,6.94,0,0,0,3-2.22,4.44,4.44,0,0,0,.88-1.86,7.4,7.4,0,0,0-.11-1.82c0-.25-.64-3.29-.88-3.24a13.09,13.09,0,0,0-1.45,1.23c-.81.78-1.47,1.68-2.21,2.51a20.67,20.67,0,0,1-5.1,4,14.78,14.78,0,0,1-4,1.8,2.38,2.38,0,0,1-1.78-.14c-.44-.28.43-.81.46-1.3-1,.79-2,1.45-3,2.17S224.51,290.34,223.42,291.16Z"/><path class="cls-19" d="M256.92,202.13c-.45.16-16.53,6-19.52,9.86s-1.7,9.65,3.13,11,27-9.73,27-9.73Z"/><path class="cls-25" d="M251.66,222c-3.34,20.73-6.74,52.71-6.67,58.1l5.34-1s9.68-29.43,15.19-54.3Z"/><path class="cls-25" d="M251.31,281a4.3,4.3,0,0,1-.74-2.75c.09-.54-.07-.88-.66-.72a8.38,8.38,0,0,0-1.21.46c-.49.22-2-.65-2.53-.17-.72.71-2,3.24-2.58,4a24,24,0,0,1-2.24,2.49,29.81,29.81,0,0,1-4.69,3.86,8.46,8.46,0,0,0-1.86,1.45c-.49.55-.39.65-.34,1.38.19,2.56,4.36,1.9,6,1.55a13.34,13.34,0,0,0,5.63-2.86,17.91,17.91,0,0,0,2.23-2.21c.64-.74,1.15-1.79,2.06-2.24a3.46,3.46,0,0,0,1-.52c.89-.84.5-2.56.07-3.53C251.38,281.13,251.34,281.06,251.31,281Z"/><path class="cls-26" d="M229.91,292.1c-.49.29-1,.57-1.49.84a2.51,2.51,0,0,0-1.61,2.48c.19,1.25,2.21,1.34,3.19,1.46a15,15,0,0,0,4.12-.1,21.88,21.88,0,0,0,6.1-1.72c1.54-.88,2.08-1.88,3.68-2.65,1.38-.66,2.29-1.47,3.73-2a7,7,0,0,0,3.27-1.87,4.52,4.52,0,0,0,1.07-1.76,6.93,6.93,0,0,0,.09-1.82c0-.26-.27-3.34-.52-3.32A13.59,13.59,0,0,0,250,282.7c-.89.69-1.64,1.51-2.48,2.25a20.75,20.75,0,0,1-5.5,3.46,14.75,14.75,0,0,1-4.17,1.35,2.34,2.34,0,0,1-1.75-.33c-.4-.33.51-.76.59-1.24-1,.68-2.16,1.22-3.22,1.82S231.09,291.41,229.91,292.1Z"/><path class="cls-25" d="M272.77,207.76c-.45.16-16.53,6-19.52,9.85s-1.7,9.66,3.13,11,27-9.72,27-9.72Z"/><path class="cls-27" d="M307.31,183.16l-31.79.58-.59,8.12s-23.28,10.6-34.9,17.95c1.53,0,25.49,13.24,29.57,17.58,9.78-2,34.44-11.21,38.73-18C314.17,200,307.31,183.16,307.31,183.16Z"/><path class="cls-28" d="M279.07,191.56a37.18,37.18,0,0,0,8.4,1.2,69.74,69.74,0,0,0,8.91-.15,41.38,41.38,0,0,0,14.31-4c-.75-6.61-3.49-8.78-3.8-14.77-.48-9.26,1.2-38.05-.3-41.86h0a36.79,36.79,0,0,0-3.22-2.15,14,14,0,0,0-5.14-1.85,30.34,30.34,0,0,0-6.87.1c-1.59.17-3.17.44-4.74.74a16.93,16.93,0,0,0-2.42.55,6.38,6.38,0,0,0-2.07,1.29,17,17,0,0,0-2.9,4c-1,1.68-2,3.3-3.11,4.93-1.52,2.32-3,4.67-4.37,7.1a56.73,56.73,0,0,0-1.67,6.23c-.56,2.71,1.81,25.26,3,36.81A39.71,39.71,0,0,0,279.07,191.56Z"/><path class="cls-25" d="M323.39,170.92a28,28,0,0,0-1.33-5c-1.4-4.12-2.58-8.31-4-12.43-2.18-6.21-4.19-13.79-8.58-19a12.42,12.42,0,0,0-4.28-3.4l-.6-.17a2.8,2.8,0,0,0-2.21.33,6.14,6.14,0,0,0-1.06.91,5.54,5.54,0,0,0-1,1.33,9.71,9.71,0,0,0-1,3.2,18.37,18.37,0,0,0,.18,6.36,33.49,33.49,0,0,0,1.67,5.35,70.11,70.11,0,0,1,5.13,9.29c.93,2.23,1.92,4.44,2.82,6.68s1.61,4.23,2.27,6.39a16.94,16.94,0,0,0,2.21,5.22,4.91,4.91,0,0,0,5,2.08,5.69,5.69,0,0,0,4.21-2.61A7.15,7.15,0,0,0,323.39,170.92Z"/><path class="cls-29" d="M264.4,123.92a15.6,15.6,0,0,1,.78-4.83c.46-1.6,1-3.17,1.46-4.78a14.42,14.42,0,0,0-.36-9.58,14.12,14.12,0,0,1,1.77,10.76c-.48,1.85-1.41,3.55-1.81,5.43a7.61,7.61,0,0,0,.25,4.48,6.37,6.37,0,0,0,1.08,1.71c2.63-1.4,6-.43,8.78.18a16.42,16.42,0,0,0,4.68.49,10.83,10.83,0,0,0,4.43-1.38c1.58-.87,3-2,4.6-2.84a24,24,0,0,1,4.87-2,20.74,20.74,0,0,1,4.89-.81c1.26,0,2.53,0,3.8,0l.81,0c-.17-4.07-.18-7.54-.14-8.39.2-4.16-14.58-4.74-17.23-7.57a21.7,21.7,0,0,1-4-5.84C282,96.5,281.61,94,280.8,91.53A17.56,17.56,0,0,0,277,84.76l-.28-.27-.07,0a22.26,22.26,0,0,0-8.85,8.06A20.22,20.22,0,0,0,265,103.1c.2.4.39.79.57,1.2a15.7,15.7,0,0,1,1.2,4.71,14.22,14.22,0,0,1-.48,4.94c-.41,1.58-.95,3.11-1.41,4.68a19.41,19.41,0,0,0-.94,4.64,7.82,7.82,0,0,0,1,4.37.86.86,0,0,0,.07.1c.17,0,.34-.11.51-.15A7.31,7.31,0,0,1,264.4,123.92Z"/><path class="cls-19" d="M284.85,131.25c-1,1.81-3.52,4.28-.72,6,1.9,1.16,4.92.25,6.9-.4a18.51,18.51,0,0,0,6.58-3.78,4.84,4.84,0,0,0,1.34-1.68c.65-1.61-1-2.65-1.05-4.18a88.46,88.46,0,0,1-.11-13.91,5.41,5.41,0,0,1,.3-1.49.76.76,0,0,0-.36-.35,3.11,3.11,0,0,0-1.91-.08c-.7.14-1.38.38-2.07.57a25.37,25.37,0,0,0-4.8,1.78,26.22,26.22,0,0,0-4.08,2.78,10.53,10.53,0,0,0-1.3,1,1,1,0,0,0-.33.56c0,.29.31.48.46.69a13.17,13.17,0,0,1,1.55,5.35,17.74,17.74,0,0,1,.09,5.86A4.32,4.32,0,0,1,284.85,131.25Z"/><path class="cls-25" d="M297.09,85.15A19.79,19.79,0,0,0,285,78.65,17.32,17.32,0,0,0,272.44,82a15.55,15.55,0,0,0-5.69,10.47c-.06.47-.1.95-.13,1.43a11.48,11.48,0,0,0-.21,1.56c-.15,2.65.95,5.15,2,7.53a22,22,0,0,1,1.43,4,27.92,27.92,0,0,1,.49,4.27c.17,2.62.41,5.15,1.9,7.4a15.46,15.46,0,0,0,10.37,6.86c4.26.59,8.52-1.2,12-3.58a23.14,23.14,0,0,0,8.38-10.26c1.77-4.42,1.47-9.11.37-13.67A29.41,29.41,0,0,0,297.09,85.15Z"/><path class="cls-29" d="M274.15,105.38a4.71,4.71,0,0,0-.77-1,4.61,4.61,0,0,0-2.32-.77h-.16c-.84.24-1.13,1.06-1.28,1.89l.12-.22a.88.88,0,0,1,.45-.41,1.67,1.67,0,0,1,.83,0,6.58,6.58,0,0,1,3.6,1.87.15.15,0,0,0,.21,0A9.59,9.59,0,0,0,274.15,105.38Z"/><path class="cls-29" d="M290.1,101.41a5.59,5.59,0,0,0-5.85-.47,6,6,0,0,0-3.07,4.23.37.37,0,0,0,.12-.13,6.6,6.6,0,0,1,4.07-3.36,6.5,6.5,0,0,1,3.13.07,11.39,11.39,0,0,1,1.61.47c.52.21,1,.51,1.5.77h0A6.16,6.16,0,0,0,290.1,101.41Z"/><path class="cls-25" d="M306.32,98.7A2.6,2.6,0,0,0,303.66,97c-1.44.31-2.05,2-2.24,3.32-.05.32-.12.73-.15,1.16a8.71,8.71,0,0,0-.28,1.62,16.79,16.79,0,0,0,.29,3.67c.14.93.33,2.3,1.43,2.54a2.63,2.63,0,0,0,2.44-1.27,9.06,9.06,0,0,0,1.78-5.84A8,8,0,0,0,306.32,98.7Z"/><path class="cls-30" d="M305.66,99.84a.88.88,0,0,0-1.31-.06,3.32,3.32,0,0,0-1.05,1.85,10.63,10.63,0,0,0-.33,2.24,8.63,8.63,0,0,0,.48,3.34c.07.2.32,0,.28-.18-.14-.66-.27-1.31-.35-2l.23-.1a2.35,2.35,0,0,0,.32-.23,3.44,3.44,0,0,0,.56-.65,15.11,15.11,0,0,0,.77-1.43c.06-.1-.09-.16-.14-.06-.25.43-.5.86-.78,1.26a3.78,3.78,0,0,1-.49.56,1.87,1.87,0,0,1-.29.2l-.21.1a5.78,5.78,0,0,1,0-.93,9,9,0,0,1,.42-2.42c.17-.52.65-1.64,1.38-1.43.56.15.82.95.86,1.46,0,.08.1,0,.11,0A2.26,2.26,0,0,0,305.66,99.84Z"/><path class="cls-30" d="M278.3,114.88c-.31-.15-.65-.2-1-.32s-.69-.37-1-.53a2.57,2.57,0,0,1,.28-.44,3.62,3.62,0,0,0,.24-.43,4.26,4.26,0,0,0,.33-1.12,3.27,3.27,0,0,0-.32-2.15c-.07-.1-.25,0-.2.12a3.4,3.4,0,0,1,.25,2.06,5.45,5.45,0,0,1-.29,1.05c-.08.19-.28.81-.5.84s-.34.19-.26.36c.32.68,1.22.88,1.87,1.09a2,2,0,0,1,.67.29,6.81,6.81,0,0,1,.64.67c.14.13.37-.09.32-.25A2.12,2.12,0,0,0,278.3,114.88Z"/><path class="cls-31" d="M286.71,107.35c.14,1.09-.22,2-.79,2.11s-1.17-.75-1.31-1.84.22-2.05.79-2.12S286.57,106.25,286.71,107.35Z"/><path class="cls-10" d="M286.3,106.61c0,.21,0,.4-.16.41s-.22-.14-.25-.36,0-.4.15-.41S286.27,106.4,286.3,106.61Z"/><path class="cls-31" d="M273.46,110.23c.14,1.09-.22,2-.8,2.11s-1.16-.75-1.3-1.85.22-2,.79-2.11S273.31,109.13,273.46,110.23Z"/><path class="cls-10" d="M273.05,109.49c0,.21,0,.4-.16.41s-.22-.14-.25-.36,0-.4.15-.41S273,109.28,273.05,109.49Z"/><path class="cls-10" d="M279.49,121.62a5.85,5.85,0,0,0,3.42.09,6,6,0,0,0,2.88-1.63,3.39,3.39,0,0,0,.86-3.09c-1.47.57-2.93,1.14-4.41,1.67L278.49,120l-.93.32A4.47,4.47,0,0,0,279.49,121.62Z"/><path class="cls-29" d="M287.87,100.08c.64-.09,1.28-.21,1.91-.36l.72-.1a.34.34,0,0,0,.2-.14l.15,0a5.43,5.43,0,0,1,.79.74h0a14.31,14.31,0,0,1,1.7,3.06,15.28,15.28,0,0,1,1.21,4.71,14.14,14.14,0,0,1-.48,4.93c-.41,1.58-.95,3.12-1.41,4.68a19.49,19.49,0,0,0-.94,4.65,8.35,8.35,0,0,0,.5,3.28l.58.06a7.68,7.68,0,0,1-.64-2.69A15.62,15.62,0,0,1,293,118c.46-1.6,1-3.17,1.46-4.77a14.41,14.41,0,0,0-.36-9.58,14.15,14.15,0,0,1,1.77,10.76c-.48,1.85-1.41,3.54-1.82,5.42a7.68,7.68,0,0,0,.26,4.48,6.29,6.29,0,0,0,.94,1.56l.55,0a10.6,10.6,0,0,0,3.77-1.91,12.43,12.43,0,0,1,6.24-2.53c1.17-.12,2.33,0,3.51,0a15.1,15.1,0,0,0,3.53-.55,11.65,11.65,0,0,0,3.06-1.35,15.39,15.39,0,0,0,2.49-2.28,5.77,5.77,0,0,1,1.45-1,17.17,17.17,0,0,0,.38-2.67c.2-4.17-2.7-7.12-5.35-10a23.56,23.56,0,0,1-2.54-3.26,26.24,26.24,0,0,1-1.59-6.62,31.79,31.79,0,0,0-.86-4.45,14.37,14.37,0,0,0-2-4.09C306.36,83,304.61,80.88,302,80a11.21,11.21,0,0,0-3.33-.67,3.12,3.12,0,0,0-2,.51c-2.63-2.54-7.12-2.86-10.55-2.94-6.19-.15-13.35,1.16-17.77,5.82a11.65,11.65,0,0,0-2.84,4.84l-.14.08a11,11,0,0,0-2.83,2.86,10.6,10.6,0,0,0-2,7.71,10.11,10.11,0,0,0,.79,2.52,8.76,8.76,0,0,0,1.1,1.86l.28-.14c-.27-.5-.56-1-.79-1.53a11.33,11.33,0,0,1-.72-2.2,9.54,9.54,0,0,1,0-4.12,2.17,2.17,0,0,1,.07-.24,6.35,6.35,0,0,0-.08,1.07,12.28,12.28,0,0,0,.28,2.17,16.58,16.58,0,0,0,.61,2.3,8.23,8.23,0,0,0,1,2l.18.25a24,24,0,0,1,5.82-1.81,39.57,39.57,0,0,1,8-.44c1.4,0,2.81.12,4.21.21a21.91,21.91,0,0,0,4.13.08A19.24,19.24,0,0,0,287.87,100.08ZM299.3,80.16a12.54,12.54,0,0,1,2.55.71c2.48,1,4,3.14,5.53,5.24,2.37,3.34,2.46,7.43,3.31,11.27-.94-2.23-1.36-4.62-2.12-6.91a17.49,17.49,0,0,0-3.81-6.77,11.5,11.5,0,0,0-5.48-3.25,10.79,10.79,0,0,0-2.25-.31A4.59,4.59,0,0,1,299.3,80.16Z"/><polygon class="cls-32" points="233.43 204.17 279.1 215.53 302.98 203.53 303 201.94 233.44 202.58 233.43 204.17"/><polygon class="cls-33" points="233.44 202.58 279.12 213.94 303 201.94 257.32 190.58 233.44 202.58"/><polygon class="cls-34" points="244.36 205.32 275.66 213.1 292.01 204.88 260.72 197.09 244.36 205.32"/><polygon class="cls-35" points="233.44 202.58 278.47 214.52 279.12 213.94 263.01 187.66 217.33 176.3 216.67 176.87 233.44 202.58"/><polygon class="cls-33" points="232.79 203.15 278.47 214.52 262.35 188.24 216.67 176.87 232.79 203.15"/><path class="cls-25" d="M295,188.44a6,6,0,0,0-1.45-1.29,4.84,4.84,0,0,0-1.77-.61c-.84-.13-1.7-.16-2.54-.24s-1.73-.15-2.59-.21a19.32,19.32,0,0,0-2.28-.09,1.85,1.85,0,0,0-.83.2c-.66.16-1.31.36-1.95.56-.86.27-1.7.57-2.53.9a11.23,11.23,0,0,0-2,1,6.1,6.1,0,0,0-1.54,1.5c-.34.48-.79.89-1.08,1.4a.9.9,0,0,0-.15.67.51.51,0,0,0,.45.33,2.09,2.09,0,0,0,.7,0,12.72,12.72,0,0,0,2.89-1.94,6.3,6.3,0,0,1,1-.55,11,11,0,0,1,1.57-.59c.36-.11.73-.2,1.1-.28l-.31.18c-.49.32-.91.73-1.36,1.09a7.87,7.87,0,0,0-1.23,1.15v0a5.76,5.76,0,0,0-.79.84,10.21,10.21,0,0,0-1.06,1.88c-.11.25-.23.49-.35.74a11.19,11.19,0,0,0-.67,1,2.5,2.5,0,0,0-.41,1.22c0,.5.47.59.89.51a2.16,2.16,0,0,0,1.37-1.29,12.59,12.59,0,0,1,1.38-2.09,5.89,5.89,0,0,1,1.95-1.59l.08,0-.13.1a2.79,2.79,0,0,0-.62,1c-.39,1-.89,1.87-1.35,2.8-.23.48-.48.94-.72,1.41-.16.31-1.12,2-.18,2a1.92,1.92,0,0,0,.75-.32A3.09,3.09,0,0,0,280,199a10,10,0,0,0,1.17-2.07,10.24,10.24,0,0,1,.57-1.15,3.79,3.79,0,0,1,1.19-1.1,10.53,10.53,0,0,1,2.33-1l-.77.5a7.21,7.21,0,0,0-2.2,2.92c-.29.55-.72,1-1,1.55-.16.33-.27.82.1,1.06a.77.77,0,0,0,.85-.16,9.81,9.81,0,0,0,1.79-2.16,13.22,13.22,0,0,1,2.36-2.18,5,5,0,0,1,3.06-.81c.56-.05,1.13-.12,1.69-.21a20.7,20.7,0,0,0,3.37-.82,2.67,2.67,0,0,0,1.11-.69,1.73,1.73,0,0,0,.42-.87A4,4,0,0,0,295,188.44Z"/><path class="cls-36" d="M277.09,189.19a12.2,12.2,0,0,1,3.72-2.09,21,21,0,0,1,4.27-1.07l.21,0c-.31,0-.62,0-.93,0a1.85,1.85,0,0,0-.83.2c-.66.16-1.31.36-1.95.56-.86.27-1.7.57-2.53.9a11.23,11.23,0,0,0-2,1,6.1,6.1,0,0,0-1.54,1.5c-.34.48-.79.89-1.08,1.4a1.15,1.15,0,0,0-.17.48A22.33,22.33,0,0,1,277.09,189.19Z"/><path class="cls-30" d="M281,193c.49-.49,1.05-.93,1.57-1.39a10,10,0,0,0-2.29,1.2,9,9,0,0,0-2,2,8.59,8.59,0,0,0-.73,1.15c-.15.3-.27.62-.42.92a2,2,0,0,1-.74.88l.26,0a2.16,2.16,0,0,0,1.37-1.29,12.59,12.59,0,0,1,1.38-2.09A6.05,6.05,0,0,1,281,193Z"/><path class="cls-30" d="M295.19,191.67a6.93,6.93,0,0,1-1,.8,8.32,8.32,0,0,1-2.56.95c-.91.22-1.85.35-2.78.49a10.87,10.87,0,0,0-2.33.5,5.48,5.48,0,0,0-1.86,1.17,12.25,12.25,0,0,0-1.74,2.37,10.5,10.5,0,0,1-.8,1.17,2,2,0,0,1-.62.51l-.13.06,0,0a.77.77,0,0,0,.85-.16,9.81,9.81,0,0,0,1.79-2.16,13.22,13.22,0,0,1,2.36-2.18,5,5,0,0,1,3.06-.81c.56-.05,1.13-.12,1.69-.21a20.7,20.7,0,0,0,3.37-.82,2.67,2.67,0,0,0,1.11-.69,1.73,1.73,0,0,0,.42-.87,2.36,2.36,0,0,0,.06-1.09A7.77,7.77,0,0,1,295.19,191.67Z"/><path class="cls-30" d="M282.93,194.71a10.53,10.53,0,0,1,2.33-1h0a4.62,4.62,0,0,0,1-.63,9.62,9.62,0,0,0-2.54.61,6.6,6.6,0,0,0-2.31,1.47,10.21,10.21,0,0,0-1.52,2.67,8.48,8.48,0,0,1-.79,1.33,1.8,1.8,0,0,1-.82.62l-.21.05c0,.19.13.31.4.29a1.92,1.92,0,0,0,.75-.32A3.09,3.09,0,0,0,280,199a10,10,0,0,0,1.17-2.07,10.24,10.24,0,0,1,.57-1.15A3.79,3.79,0,0,1,282.93,194.71Z"/><path class="cls-30" d="M279.31,190a11,11,0,0,1,1.57-.59c.21-.07.43-.12.65-.18L282,189a14.91,14.91,0,0,0-2.41.36,6.87,6.87,0,0,0-2.37,1.11,6.08,6.08,0,0,0-1.06,1,6.27,6.27,0,0,1-.84.87,1.15,1.15,0,0,1-.5.23,2.25,2.25,0,0,0,.63,0,12.72,12.72,0,0,0,2.89-1.94A6.3,6.3,0,0,1,279.31,190Z"/><path class="cls-25" d="M294.72,191.87s23.13-8.31,27.4-13,1.9-10-1.42-10.79-7.38.82-10.49,4.29-18.12,15.31-18.12,15.31Z"/><polygon class="cls-37" points="41.32 206.07 42.31 268.14 44.2 268.14 45.02 206.07 41.32 206.07"/><polygon class="cls-37" points="56.55 210.85 57.54 272.91 59.43 272.91 60.25 210.85 56.55 210.85"/><polygon class="cls-37" points="79.33 206.07 80.32 268.14 82.21 268.14 83.03 206.07 79.33 206.07"/><polygon class="cls-37" points="94.56 210.85 95.55 272.91 97.44 272.91 98.26 210.85 94.56 210.85"/><path class="cls-38" d="M69.38,208.2c-13.77,0-33,.74-33,.74v4.81c0,3.08,14.78,5.56,33,5.56s33-2.48,33-5.56v-4.81S83.16,208.2,69.38,208.2Z"/><path class="cls-39" d="M102.39,208.94c0,3.07-14.78,5.56-33,5.56s-33-2.49-33-5.56,14.78-5.56,33-5.56S102.39,205.87,102.39,208.94Z"/><path class="cls-25" d="M120.91,183.21s-21.66-9.9-25.62-15.36S94,157.54,97.1,156.68s6.58-.18,9.47,3.86,16.87,17.88,16.87,17.88Z"/><path class="cls-40" d="M138,283.08c1.4.36,2.84.51,4.24.85,3,.72,5.91,1.83,9,2.3a34.17,34.17,0,0,0,8.33.29,28.48,28.48,0,0,0,8.09-1.9,1.13,1.13,0,0,0,.08-.24,4,4,0,0,0,.42-.49,3.45,3.45,0,0,0-.15-4.33,6.31,6.31,0,0,0-2.12-1.36c-.94-.41-1.92-.76-2.9-1.08-2.18-.71-4.4-1.25-6.59-1.93-2-.62-4-1.11-5.94-1.91a13.33,13.33,0,0,1-2.64-1.46,2.42,2.42,0,0,1-.91-1c-.15-.41-.06-.88-.22-1.29-.53-1.34-2.87-.42-3.79-.09a6.55,6.55,0,0,0-2.15,1,1.7,1.7,0,0,0-.55.84c-.11.38,0,.87-.57.81a9.34,9.34,0,0,1-2.26-1.07,4.58,4.58,0,0,0-2-.4,2.21,2.21,0,0,0-1.6.75l0,.06c-.1,3.79.13,7.86,1.73,11.28C136,283,137.31,282.91,138,283.08Z"/><path class="cls-41" d="M62.46,187.48s2.08,21.7,12.28,23.32,45.64,2.94,45.64,2.94S119,221.4,132.76,273c0,0,5.57,1.07,14.12-2.17l-10.8-68.31a11.3,11.3,0,0,0-3.22-6.79c-3.19-3.49-37.92-6.1-37.92-6.1l-3.33-10.42Z"/><path class="cls-42" d="M109.43,289c1.3.64,2.68,1.08,4,1.7,2.8,1.32,5.4,3,8.32,4.09a34.67,34.67,0,0,0,8.09,2,28.16,28.16,0,0,0,8.3-.21,1,1,0,0,0,.14-.22,3.83,3.83,0,0,0,.51-.39,3.46,3.46,0,0,0,.75-4.27,6.29,6.29,0,0,0-1.8-1.76c-.84-.6-1.73-1.14-2.62-1.65-2-1.14-4-2.13-6-3.24-1.81-1-3.71-1.91-5.43-3.08a13.39,13.39,0,0,1-2.28-2,2.5,2.5,0,0,1-.67-1.18c-.07-.44.12-.87,0-1.31-.24-1.42-2.72-1-3.69-.87a6.87,6.87,0,0,0-2.3.51,1.7,1.7,0,0,0-.71.72c-.19.35-.23.84-.73.67-.78-.26-1.33-1-2-1.5a4.57,4.57,0,0,0-1.91-.81,2.18,2.18,0,0,0-1.71.41l0,.05c-.88,3.69-1.49,7.72-.62,11.39C107.48,288.55,108.8,288.7,109.43,289Z"/><path class="cls-43" d="M47.89,182s-2.68,21.63,6.92,25.41,44.65,12.73,44.65,12.73,1.53,32.32,5.93,60c0,0,7.19,1.75,16.59-2l-5.47-65.58a11.28,11.28,0,0,0-1.68-7.32c-2.35-4.1-29.31-11.41-29.31-11.41l4.56-11Z"/><path class="cls-25" d="M77.53,127.23a12.11,12.11,0,0,1,.7-5.37c.1-.18.2-.36.31-.54a3.6,3.6,0,0,1,.43-.52c.74.1,1.49.18,2.22.31A11.61,11.61,0,0,1,85,122.6a15.5,15.5,0,0,1,3,2.28A15.15,15.15,0,0,1,90.27,128a43.65,43.65,0,0,1,3.12,7.19c.6,1.63,1.22,3.25,1.88,4.86.18.55.37,1.11.59,1.65.88,2.24,1.7,4.5,2.62,6.72s1.77,4.13,2.8,6.13a16.82,16.82,0,0,1,2,5.25,5.17,5.17,0,0,1-.3,2.75,5.33,5.33,0,0,1-1.86,2.21,5.69,5.69,0,0,1-4.82,1,7.05,7.05,0,0,1-3.5-2.86,27.5,27.5,0,0,1-2.5-4.47c-1.86-3.91-3.92-7.72-5.74-11.66C81.85,140.82,78,134,77.53,127.23Z"/><path class="cls-9" d="M83.69,117.9s7,1.23,10.13,7,10.3,29.87,10.3,29.87-4.64,3.6-12.7,3.84l-.87,0C82,158.59,83.69,117.9,83.69,117.9Z"/><path class="cls-14" d="M72.81,113.66l12.53,4.88a117.52,117.52,0,0,1,6.59,28.38c1.37,12.25,3,41,3,41s-20.07,12.73-47.4,4.71c0,0-3.42-69.55-1.56-74.74S72.81,113.66,72.81,113.66Z"/><path class="cls-19" d="M76,116.08c1.09,2,3.78,4.6.78,6.43-2,1.25-5.29.27-7.41-.43A19.84,19.84,0,0,1,62.26,118a5.22,5.22,0,0,1-1.44-1.8c-.7-1.73,1-2.85,1.13-4.49.24-4.89.65-10,.11-14.94a5.24,5.24,0,0,0-.32-1.61.93.93,0,0,1,.39-.37,3.41,3.41,0,0,1,2.05-.09c.76.15,1.48.41,2.22.61a27.56,27.56,0,0,1,5.16,1.92,28.4,28.4,0,0,1,4.38,3,11.41,11.41,0,0,1,1.4,1.09,1,1,0,0,1,.35.6c0,.31-.33.51-.49.74-1,1.54-1.41,3.88-1.67,5.75a19,19,0,0,0-.09,6.29A4.82,4.82,0,0,0,76,116.08Z"/><path class="cls-25" d="M54.69,84.31c-.62,4.81-.37,9.69,2.05,14.09a25.19,25.19,0,0,0,10.1,9.82c4,2.13,8.67,3.58,13.12,2.57a15.89,15.89,0,0,0,10.14-8.07c1.31-2.47,1.25-5.1,1.11-7.82a27.79,27.79,0,0,1,0-4.47,22.59,22.59,0,0,1,1-4.28c.82-2.56,1.68-5.24,1.2-8A10.59,10.59,0,0,0,93,76.59c-.09-.49-.19-1-.31-1.47a16.64,16.64,0,0,0-7.3-10.28,19,19,0,0,0-13.7-2.24,20.39,20.39,0,0,0-12,7.86A29.33,29.33,0,0,0,54.69,84.31Z"/><path class="cls-44" d="M90.84,88.47A4.32,4.32,0,0,0,89,88.22a14.35,14.35,0,0,0-2.34.34c-.66.14-1.32.33-2,.53-.07-.1-.1-.25,0-.31.38-.27.74-.56,1.14-.8a10.69,10.69,0,0,1,1.4-.69,8.07,8.07,0,0,1,2.68-.63c.72,0,1.74,0,2.07.77a2.32,2.32,0,0,1-.15,1.71.5.5,0,0,1,0,.13l0,.07A1.56,1.56,0,0,0,90.84,88.47Z"/><path class="cls-44" d="M78.64,87.53a12.84,12.84,0,0,0-3-2.21,5.18,5.18,0,0,0-3.74-.5,7.39,7.39,0,0,0-2.56,1.34.35.35,0,0,0,.43.18,7.74,7.74,0,0,1,4.65.5,34.18,34.18,0,0,1,4.69,2.34A.51.51,0,0,0,79.8,89,7.9,7.9,0,0,0,78.64,87.53Z"/><path class="cls-30" d="M82.83,101.46a8.53,8.53,0,0,0,2.34-1.22,1.24,1.24,0,0,0,.36-.43,1.36,1.36,0,0,0-.13-.68c-.15-.44-.36-.86-.49-1.31-.24-.79-.47-1.58-.63-2.38,0-.2,0-.41.06-.61a23.49,23.49,0,0,0,1,3.3c.26.72.84,1.59.47,2.37a2.72,2.72,0,0,1-1.85,1.22l-.64.19-.93.17C82.51,101.88,82.67,101.67,82.83,101.46Z"/><path class="cls-10" d="M81.41,106.32a24.59,24.59,0,0,1-8.91-4.55,4.62,4.62,0,0,0,2.78,5.08A5.85,5.85,0,0,0,81.41,106.32Z"/><path class="cls-45" d="M51.94,67.78a15.46,15.46,0,0,1,6-5.19,19.17,19.17,0,0,1,7.7-2,6,6,0,0,1,1.6-1.46A11.17,11.17,0,0,1,74.79,59a59.17,59.17,0,0,1,8.12,3.13c3.24,1.42,6.43,3,9.78,4.16a26.72,26.72,0,0,0,5.87,1.33,13.51,13.51,0,0,1,2,3c1.15,2.31,1.42,5.18-.47,7.17a11,11,0,0,1-6.78,3,19.28,19.28,0,0,1-8.52-1.63c-2.31-.88-4.62-1.86-6.89-2.88a15.52,15.52,0,0,1-4.51-2.75,37.06,37.06,0,0,0-8.57,7,34.74,34.74,0,0,0-6.4,9.27,15.94,15.94,0,0,0-1.09,3.18,28.41,28.41,0,0,1-.74,3.16c-.08.25-.4.16-.55,0a3.14,3.14,0,0,1-.78-1.69,22.53,22.53,0,0,0-.72-2.29,48.64,48.64,0,0,0-2.17-4.9,30.75,30.75,0,0,1-2-4.78A22.6,22.6,0,0,1,49.56,77,15.73,15.73,0,0,1,51.94,67.78Z"/><path class="cls-25" d="M52,90.73a9.75,9.75,0,0,0,2.54,6,2.85,2.85,0,0,0,2.74,1.09c1.14-.38,1.19-1.86,1.24-2.86A18.52,18.52,0,0,0,58.42,91a10.28,10.28,0,0,0-.48-1.69c-.08-.45-.2-.89-.28-1.22-.35-1.34-1.19-3.12-2.76-3.29a2.77,2.77,0,0,0-2.64,2.08A8.61,8.61,0,0,0,52,90.73Z"/><path class="cls-30" d="M53.08,88.07a1,1,0,0,1,1.39-.21,3.64,3.64,0,0,1,1.33,1.86,11.15,11.15,0,0,1,.59,2.34,9.34,9.34,0,0,1-.14,3.61c-.06.22-.34,0-.32-.16.07-.72.14-1.43.15-2.14a.73.73,0,0,1-.25-.08,2,2,0,0,1-.37-.21,3.29,3.29,0,0,1-.66-.63c-.38-.45-.65-1-1-1.43-.08-.11.08-.19.15-.09a15,15,0,0,0,1,1.26,3,3,0,0,0,.58.54,1.06,1.06,0,0,0,.33.18l.23.09A8.26,8.26,0,0,0,56,92a10.21,10.21,0,0,0-.71-2.54c-.25-.53-.87-1.67-1.63-1.37-.58.23-.77,1.1-.76,1.65,0,.09-.1,0-.11,0A2.38,2.38,0,0,1,53.08,88.07Z"/><path class="cls-19" d="M29.48,163.91a30.84,30.84,0,0,1,1-5.45c1.12-4.54,2-9.13,3.17-13.66,1.77-6.86,3.22-15.15,7.44-21.17a13.37,13.37,0,0,1,4.27-4l.63-.24a3,3,0,0,1,2.39.15,7.16,7.16,0,0,1,2.38,2.21,10.33,10.33,0,0,1,1.36,3.35,19.49,19.49,0,0,1,.39,6.81c-.24,2-7.67,33.37-8.73,35.13-.52.86-4.57,3-5.48,3.49a5.7,5.7,0,0,1-3.06.59,6.16,6.16,0,0,1-4.75-2.41A7.66,7.66,0,0,1,29.48,163.91Z"/><path class="cls-46" d="M88.56,94.52c-.29.94-.91,1.59-1.39,1.44s-.61-1-.32-2,.92-1.58,1.39-1.43S88.86,93.59,88.56,94.52Z"/><path class="cls-10" d="M88.65,93.81c-.09.29-.28.48-.42.44s-.19-.31-.1-.6.28-.48.42-.43S88.74,93.53,88.65,93.81Z"/><path class="cls-46" d="M75.66,92.76c-.3.94-.92,1.58-1.39,1.44s-.62-1-.33-2,.92-1.58,1.4-1.43S76,91.82,75.66,92.76Z"/><path class="cls-10" d="M75.74,92.05c-.09.29-.27.48-.42.44s-.18-.31-.1-.6.28-.48.43-.43S75.83,91.77,75.74,92.05Z"/><polygon class="cls-32" points="140.97 196.61 85.75 209.63 57.16 194.82 57.16 192.9 140.97 194.7 140.97 196.61"/><polygon class="cls-33" points="140.97 194.7 85.75 207.72 57.16 192.9 112.37 179.88 140.97 194.7"/><polygon class="cls-34" points="127.77 197.83 89.94 206.75 70.35 196.6 108.18 187.68 127.77 197.83"/><polygon class="cls-35" points="140.97 194.7 86.53 208.42 85.75 207.72 105.57 176.29 160.78 163.27 161.56 163.97 140.97 194.7"/><polygon class="cls-33" points="141.75 195.4 86.53 208.42 106.35 176.99 161.56 163.97 141.75 195.4"/><path class="cls-25" d="M65.55,184.6a7,7,0,0,1,1.76-1.53,5.64,5.64,0,0,1,2.14-.71c1-.14,2-.17,3.07-.25s2.08-.16,3.13-.21a22.8,22.8,0,0,1,2.74-.08,2.31,2.31,0,0,1,1,.25c.79.2,1.57.45,2.35.71,1,.34,2,.7,3,1.12a14.11,14.11,0,0,1,2.38,1.23A7.11,7.11,0,0,1,89,187a19.47,19.47,0,0,1,1.29,1.7,1.09,1.09,0,0,1,.17.8.61.61,0,0,1-.55.39,2.19,2.19,0,0,1-.84-.06,15.11,15.11,0,0,1-3.46-2.38,6.53,6.53,0,0,0-1.18-.67,12.54,12.54,0,0,0-1.87-.74c-.44-.13-.88-.25-1.33-.35l.37.23a17.08,17.08,0,0,1,1.62,1.33,8.92,8.92,0,0,1,1.47,1.41h0a6.62,6.62,0,0,1,.94,1A12,12,0,0,1,86.87,192c.13.3.28.59.42.89s.54.82.78,1.24a3.05,3.05,0,0,1,.48,1.48c0,.6-.57.71-1.07.6a2.58,2.58,0,0,1-1.64-1.57,15.44,15.44,0,0,0-1.63-2.54,7.19,7.19,0,0,0-2.33-2l-.1,0,.16.13a3.35,3.35,0,0,1,.73,1.25c.46,1.16,1,2.27,1.59,3.4.27.57.56,1.14.85,1.71.19.37,1.32,2.45.18,2.34a2,2,0,0,1-.9-.39,4.22,4.22,0,0,1-.94-.9,12.86,12.86,0,0,1-1.38-2.52,11.85,11.85,0,0,0-.67-1.39A4.4,4.4,0,0,0,80,192.34a13.12,13.12,0,0,0-2.8-1.28c.31.2.62.4.92.62a8.61,8.61,0,0,1,2.61,3.55c.34.66.86,1.21,1.17,1.88.19.4.31,1-.14,1.27s-.74,0-1-.2a11.49,11.49,0,0,1-2.13-2.63,15.74,15.74,0,0,0-2.81-2.66c-1.13-.94-2.28-.89-3.67-1-.69-.06-1.37-.16-2-.28a24.53,24.53,0,0,1-4-1,3.23,3.23,0,0,1-1.33-.85,2.15,2.15,0,0,1-.49-1.06C63.82,187.23,64.65,185.65,65.55,184.6Z"/><path class="cls-36" d="M87.11,185.77a15.14,15.14,0,0,0-4.45-2.58,25.44,25.44,0,0,0-5.14-1.35l-.25,0a10.44,10.44,0,0,1,1.12,0,2.31,2.31,0,0,1,1,.25c.79.2,1.57.45,2.35.71,1,.34,2,.7,3,1.12a14.11,14.11,0,0,1,2.38,1.23A7.11,7.11,0,0,1,89,187a19.47,19.47,0,0,1,1.29,1.7,1.43,1.43,0,0,1,.19.57A28.16,28.16,0,0,0,87.11,185.77Z"/><path class="cls-30" d="M82.3,190.35c-.58-.6-1.25-1.13-1.87-1.7a11.56,11.56,0,0,1,2.74,1.49,10.54,10.54,0,0,1,2.38,2.47,9.56,9.56,0,0,1,.86,1.4c.18.36.31.75.49,1.11a2.43,2.43,0,0,0,.88,1.07,1.53,1.53,0,0,1-.3,0,2.58,2.58,0,0,1-1.64-1.57,15.44,15.44,0,0,0-1.63-2.54A7.19,7.19,0,0,0,82.3,190.35Z"/><path class="cls-30" d="M65.25,188.49a8,8,0,0,0,1.19,1,10.2,10.2,0,0,0,3.06,1.19c1.11.27,2.23.44,3.35.62a14,14,0,0,1,2.8.64,6.68,6.68,0,0,1,2.23,1.44,15.09,15.09,0,0,1,2.06,2.88,12,12,0,0,0,.94,1.42,2.37,2.37,0,0,0,.74.63l.16.07,0,0c-.33.21-.74,0-1-.2a11.49,11.49,0,0,1-2.13-2.63,15.74,15.74,0,0,0-2.81-2.66c-1.13-.94-2.28-.89-3.67-1-.69-.06-1.37-.16-2-.28a24.53,24.53,0,0,1-4-1,3.23,3.23,0,0,1-1.33-.85,2.15,2.15,0,0,1-.49-1.06,3,3,0,0,1-.06-1.31A9.32,9.32,0,0,0,65.25,188.49Z"/><path class="cls-30" d="M80,192.34a13.12,13.12,0,0,0-2.8-1.28h0a5.32,5.32,0,0,1-1.19-.78,12,12,0,0,1,3.06.78,7.89,7.89,0,0,1,2.75,1.81,12.16,12.16,0,0,1,1.8,3.23,10,10,0,0,0,.93,1.62,2.11,2.11,0,0,0,1,.76,1,1,0,0,0,.25.06c0,.23-.17.37-.49.34a2,2,0,0,1-.9-.39,4.22,4.22,0,0,1-.94-.9,12.86,12.86,0,0,1-1.38-2.52,11.85,11.85,0,0,0-.67-1.39A4.4,4.4,0,0,0,80,192.34Z"/><path class="cls-30" d="M84.41,186.75a12.54,12.54,0,0,0-1.87-.74l-.79-.22-.54-.3a16.88,16.88,0,0,1,2.9.48,8.15,8.15,0,0,1,2.83,1.36,7.9,7.9,0,0,1,1.27,1.18,6.29,6.29,0,0,0,1,1.07,1.67,1.67,0,0,0,.6.29,2.42,2.42,0,0,1-.75-.07,15.11,15.11,0,0,1-3.46-2.38A6.53,6.53,0,0,0,84.41,186.75Z"/><path class="cls-25" d="M65.81,188.74S38.07,178.38,33,172.66s-2.14-12.07,1.88-13,8.88,1.11,12.57,5.33,21.61,18.72,21.61,18.72Z"/><path class="cls-9" d="M49.55,115.44s6.31,7.59,4.85,15.93-4.85,29.39-4.85,29.39-14.69.35-22.69-5.56c0,0,8.27-28.27,12.52-33.49A18.57,18.57,0,0,1,49.55,115.44Z"/></g></g></svg>