<svg xmlns="http://www.w3.org/2000/svg" xmlns:xlink="http://www.w3.org/1999/xlink" viewBox="0 0 750 500"><defs><style>.cls-1{isolation:isolate;}.cls-120,.cls-2,.cls-4{fill:#fff;}.cls-3{fill:url(#linear-gradient);}.cls-4{opacity:0.2;}.cls-10,.cls-11,.cls-5,.cls-6{opacity:0.3;}.cls-10,.cls-11,.cls-16,.cls-17,.cls-19,.cls-20,.cls-21,.cls-5,.cls-6{mix-blend-mode:color-dodge;}.cls-5{fill:url(#linear-gradient-2);}.cls-6{fill:url(#linear-gradient-3);}.cls-7{fill:url(#linear-gradient-4);}.cls-8{fill:url(#linear-gradient-5);}.cls-9{fill:url(#linear-gradient-6);}.cls-10{fill:url(#linear-gradient-7);}.cls-11{fill:url(#linear-gradient-8);}.cls-12{fill:url(#linear-gradient-9);}.cls-112,.cls-120,.cls-13,.cls-14,.cls-159,.cls-16,.cls-17,.cls-20,.cls-21,.cls-32,.cls-56,.cls-70{opacity:0.5;}.cls-13{fill:url(#linear-gradient-10);}.cls-14{fill:url(#linear-gradient-11);}.cls-15{fill:url(#linear-gradient-12);}.cls-16{fill:url(#linear-gradient-13);}.cls-17{fill:url(#linear-gradient-14);}.cls-18{fill:url(#linear-gradient-15);}.cls-19{fill:url(#linear-gradient-16);}.cls-20{fill:url(#linear-gradient-17);}.cls-21{fill:url(#linear-gradient-18);}.cls-22,.cls-24,.cls-43{mix-blend-mode:overlay;}.cls-22{fill:url(#linear-gradient-19);}.cls-23,.cls-26,.cls-27,.cls-28{fill:none;stroke-miterlimit:10;}.cls-23{stroke-width:4px;stroke:url(#linear-gradient-20);}.cls-24{fill:#5d5d5d;}.cls-116,.cls-24,.cls-43{opacity:0.4;}.cls-25{fill:url(#linear-gradient-21);}.cls-26,.cls-27,.cls-28{stroke-width:1.71px;}.cls-26{stroke:url(#linear-gradient-22);}.cls-27{stroke:url(#linear-gradient-23);}.cls-28{stroke:url(#linear-gradient-24);}.cls-29{fill:url(#linear-gradient-25);}.cls-30{fill:url(#linear-gradient-26);}.cls-31{fill:url(#linear-gradient-27);}.cls-33{fill:url(#linear-gradient-28);}.cls-34{fill:url(#linear-gradient-29);}.cls-35{fill:url(#linear-gradient-30);}.cls-36{fill:url(#linear-gradient-31);}.cls-37{fill:url(#linear-gradient-32);}.cls-38{fill:url(#linear-gradient-33);}.cls-39{fill:url(#linear-gradient-34);}.cls-40{fill:url(#linear-gradient-35);}.cls-41{fill:url(#linear-gradient-36);}.cls-42{fill:url(#linear-gradient-37);}.cls-43{fill:url(#linear-gradient-38);}.cls-44{fill:url(#linear-gradient-39);}.cls-45{fill:url(#linear-gradient-40);}.cls-46{fill:url(#linear-gradient-41);}.cls-108,.cls-112,.cls-144,.cls-159,.cls-47,.cls-51,.cls-53,.cls-56,.cls-67,.cls-70,.cls-78,.cls-80{mix-blend-mode:multiply;}.cls-47{fill:url(#linear-gradient-42);}.cls-48{fill:url(#linear-gradient-43);}.cls-49{fill:url(#linear-gradient-44);}.cls-50{fill:url(#linear-gradient-45);}.cls-51{fill:url(#linear-gradient-46);}.cls-52{fill:url(#linear-gradient-47);}.cls-53{fill:url(#linear-gradient-48);}.cls-54{fill:url(#linear-gradient-49);}.cls-55{fill:url(#linear-gradient-50);}.cls-56{fill:url(#linear-gradient-51);}.cls-57{fill:url(#linear-gradient-52);}.cls-58{fill:url(#linear-gradient-53);}.cls-59{fill:url(#linear-gradient-54);}.cls-60{fill:url(#linear-gradient-55);}.cls-61{fill:url(#linear-gradient-56);}.cls-62{fill:url(#linear-gradient-57);}.cls-63{fill:url(#linear-gradient-58);}.cls-64{fill:url(#linear-gradient-59);}.cls-65{fill:url(#linear-gradient-60);}.cls-66{fill:url(#linear-gradient-61);}.cls-67{fill:url(#linear-gradient-62);}.cls-68{fill:url(#linear-gradient-63);}.cls-69{fill:url(#linear-gradient-64);}.cls-70{fill:url(#linear-gradient-65);}.cls-71{fill:url(#linear-gradient-66);}.cls-72{fill:url(#linear-gradient-67);}.cls-73{fill:#506af8;}.cls-74{fill:url(#linear-gradient-68);}.cls-75{fill:url(#linear-gradient-69);}.cls-76{fill:url(#linear-gradient-70);}.cls-77{fill:url(#linear-gradient-71);}.cls-78{fill:url(#linear-gradient-72);}.cls-79{fill:url(#linear-gradient-73);}.cls-80{fill:url(#linear-gradient-74);}.cls-81{fill:url(#linear-gradient-75);}.cls-82{fill:url(#linear-gradient-76);}.cls-83{fill:url(#linear-gradient-77);}.cls-84{fill:url(#linear-gradient-78);}.cls-85{fill:url(#linear-gradient-79);}.cls-86{fill:url(#linear-gradient-80);}.cls-87{fill:url(#linear-gradient-81);}.cls-88{fill:url(#linear-gradient-82);}.cls-89{fill:url(#linear-gradient-83);}.cls-90{fill:url(#linear-gradient-84);}.cls-91{fill:url(#linear-gradient-85);}.cls-92{fill:url(#linear-gradient-86);}.cls-93{fill:url(#linear-gradient-87);}.cls-94{fill:url(#linear-gradient-88);}.cls-95{font-size:7.55px;fill:#9fdeed;font-family:Montserrat-SemiBold, Montserrat SemiBold;font-weight:600;letter-spacing:0.05em;}.cls-96{fill:url(#linear-gradient-89);}.cls-97{fill:url(#linear-gradient-90);}.cls-98{fill:url(#linear-gradient-91);}.cls-99{fill:url(#linear-gradient-92);}.cls-100{fill:url(#linear-gradient-93);}.cls-101{fill:url(#linear-gradient-94);}.cls-102{fill:url(#linear-gradient-95);}.cls-103{fill:url(#linear-gradient-96);}.cls-104{fill:url(#linear-gradient-97);}.cls-105{fill:url(#linear-gradient-98);}.cls-106{fill:url(#linear-gradient-99);}.cls-107{fill:url(#linear-gradient-100);}.cls-108{fill:url(#linear-gradient-101);}.cls-109{fill:url(#linear-gradient-102);}.cls-110{fill:url(#linear-gradient-103);}.cls-111{fill:url(#linear-gradient-104);}.cls-112{fill:url(#linear-gradient-105);}.cls-113{fill:url(#linear-gradient-106);}.cls-114{fill:url(#linear-gradient-107);}.cls-115{fill:url(#linear-gradient-108);}.cls-116{fill:url(#linear-gradient-109);}.cls-117{fill:url(#linear-gradient-110);}.cls-118{fill:url(#linear-gradient-111);}.cls-119{fill:url(#linear-gradient-112);}.cls-121{fill:url(#linear-gradient-113);}.cls-122{fill:url(#linear-gradient-114);}.cls-123{fill:url(#linear-gradient-115);}.cls-124{fill:url(#linear-gradient-116);}.cls-125{fill:url(#linear-gradient-117);}.cls-126{fill:url(#linear-gradient-118);}.cls-127{fill:url(#linear-gradient-119);}.cls-128{fill:url(#linear-gradient-120);}.cls-129{fill:url(#linear-gradient-121);}.cls-130{fill:url(#linear-gradient-122);}.cls-131{fill:url(#linear-gradient-123);}.cls-132{fill:url(#linear-gradient-124);}.cls-133{fill:url(#linear-gradient-125);}.cls-134{fill:url(#linear-gradient-126);}.cls-135{fill:url(#linear-gradient-127);}.cls-136{fill:url(#linear-gradient-128);}.cls-137{fill:url(#linear-gradient-129);}.cls-138{fill:url(#linear-gradient-130);}.cls-139{fill:url(#linear-gradient-131);}.cls-140{fill:url(#linear-gradient-132);}.cls-141{fill:url(#linear-gradient-133);}.cls-142{fill:url(#linear-gradient-134);}.cls-143{fill:url(#linear-gradient-135);}.cls-144{opacity:0.75;}.cls-145{fill:#6fc1ef;}.cls-146{fill:url(#linear-gradient-136);}.cls-147{fill:url(#linear-gradient-137);}.cls-148{fill:url(#linear-gradient-138);}.cls-149{fill:url(#linear-gradient-139);}.cls-150{fill:url(#linear-gradient-140);}.cls-151{fill:url(#linear-gradient-141);}.cls-152{fill:url(#linear-gradient-142);}.cls-153{fill:url(#linear-gradient-143);}.cls-154{fill:url(#linear-gradient-144);}.cls-155{fill:url(#linear-gradient-145);}.cls-156{fill:url(#linear-gradient-146);}.cls-157{fill:url(#linear-gradient-147);}.cls-158{fill:url(#linear-gradient-148);}.cls-160{fill:url(#linear-gradient-149);}.cls-161{fill:url(#linear-gradient-150);}.cls-162{fill:url(#linear-gradient-151);}.cls-163{fill:url(#linear-gradient-152);}.cls-164{fill:url(#linear-gradient-153);}.cls-165{fill:url(#linear-gradient-154);}.cls-166{fill:url(#linear-gradient-155);}.cls-167{fill:url(#linear-gradient-156);}.cls-168{fill:url(#linear-gradient-157);}.cls-169{fill:url(#linear-gradient-158);}.cls-170{fill:url(#linear-gradient-159);}.cls-171{fill:url(#linear-gradient-160);}.cls-172{fill:url(#linear-gradient-161);}.cls-173{fill:url(#linear-gradient-162);}.cls-174{fill:url(#linear-gradient-163);}.cls-175{fill:url(#linear-gradient-164);}.cls-176{fill:url(#linear-gradient-165);}.cls-177{fill:url(#linear-gradient-166);}</style><linearGradient id="linear-gradient" x1="471.75" y1="514.53" x2="199.29" y2="117.39" gradientUnits="userSpaceOnUse"><stop offset="0" stop-color="#1e68bd"/><stop offset="1" stop-color="#1ad4ff"/></linearGradient><linearGradient id="linear-gradient-2" x1="642.37" y1="392.67" x2="653.01" y2="404.47" gradientUnits="userSpaceOnUse"><stop offset="0" stop-color="#fff"/><stop offset="1" stop-color="#88e9ff"/></linearGradient><linearGradient id="linear-gradient-3" x1="531.95" y1="368.18" x2="542.59" y2="379.98" xlink:href="#linear-gradient-2"/><linearGradient id="linear-gradient-4" x1="623.11" y1="252.69" x2="628.79" y2="259" gradientUnits="userSpaceOnUse"><stop offset="0" stop-color="#49c8f5"/><stop offset="1" stop-color="#1ad4ff"/></linearGradient><linearGradient id="linear-gradient-5" x1="471.72" y1="86.05" x2="477.4" y2="92.36" xlink:href="#linear-gradient-4"/><linearGradient id="linear-gradient-6" x1="496.43" y1="136.69" x2="502.11" y2="142.99" xlink:href="#linear-gradient-4"/><linearGradient id="linear-gradient-7" x1="252.48" y1="283.39" x2="261.24" y2="293.1" xlink:href="#linear-gradient-2"/><linearGradient id="linear-gradient-8" x1="197.63" y1="359.73" x2="201.35" y2="363.86" xlink:href="#linear-gradient-2"/><linearGradient id="linear-gradient-9" x1="190.53" y1="187.39" x2="197.42" y2="195.02" xlink:href="#linear-gradient-4"/><linearGradient id="linear-gradient-10" x1="122.75" y1="177.15" x2="133.42" y2="188.98" xlink:href="#linear-gradient-4"/><linearGradient id="linear-gradient-11" x1="610.37" y1="174.69" x2="614.37" y2="179.14" xlink:href="#linear-gradient-4"/><linearGradient id="linear-gradient-12" x1="311.01" y1="87.73" x2="316.34" y2="93.64" xlink:href="#linear-gradient-4"/><linearGradient id="linear-gradient-13" x1="319.51" y1="142.68" x2="324.84" y2="148.59" xlink:href="#linear-gradient-2"/><linearGradient id="linear-gradient-14" x1="516.15" y1="218.84" x2="521.48" y2="224.75" xlink:href="#linear-gradient-2"/><linearGradient id="linear-gradient-15" x1="637.43" y1="348.82" x2="642.76" y2="354.73" xlink:href="#linear-gradient-4"/><linearGradient id="linear-gradient-16" x1="258.93" y1="175.62" x2="283.26" y2="202.46" xlink:href="#linear-gradient-2"/><linearGradient id="linear-gradient-17" x1="95.26" y1="339.72" x2="119.6" y2="366.56" xlink:href="#linear-gradient-2"/><linearGradient id="linear-gradient-18" x1="355.99" y1="153.99" x2="437.07" y2="153.99" xlink:href="#linear-gradient-2"/><linearGradient id="linear-gradient-19" x1="375" y1="210.83" x2="375" y2="356.45" gradientUnits="userSpaceOnUse"><stop offset="0" stop-color="#15dbff" stop-opacity="0"/><stop offset="1" stop-color="#72ffd8"/></linearGradient><linearGradient id="linear-gradient-20" x1="294.54" y1="279.73" x2="455.46" y2="279.73" gradientUnits="userSpaceOnUse"><stop offset="0" stop-color="#1ad4ff"/><stop offset="1" stop-color="#fff"/></linearGradient><linearGradient id="linear-gradient-21" x1="363.65" y1="279.73" x2="386.35" y2="279.73" gradientUnits="userSpaceOnUse"><stop offset="0" stop-color="#dee3fc"/><stop offset="1" stop-color="#fff"/></linearGradient><linearGradient id="linear-gradient-22" x1="353.85" y1="279.73" x2="396.15" y2="279.73" xlink:href="#linear-gradient-21"/><linearGradient id="linear-gradient-23" x1="343.75" y1="297.82" x2="386.05" y2="297.82" gradientTransform="translate(739.89 577.55) rotate(-180)" xlink:href="#linear-gradient-21"/><linearGradient id="linear-gradient-24" x1="364.31" y1="298.03" x2="406.62" y2="298.03" gradientTransform="translate(76.98 665.19) rotate(-90)" xlink:href="#linear-gradient-21"/><linearGradient id="linear-gradient-25" x1="388.65" y1="249.03" x2="396.53" y2="249.03" xlink:href="#linear-gradient-21"/><linearGradient id="linear-gradient-26" x1="357.23" y1="325.64" x2="365.12" y2="325.64" xlink:href="#linear-gradient-21"/><linearGradient id="linear-gradient-27" x1="315.61" y1="250.17" x2="323.5" y2="250.17" xlink:href="#linear-gradient-21"/><linearGradient id="linear-gradient-28" x1="332.71" y1="212.4" x2="444.21" y2="323.15" xlink:href="#linear-gradient-20"/><linearGradient id="linear-gradient-29" x1="287.5" y1="257.93" x2="399" y2="368.68" xlink:href="#linear-gradient-20"/><linearGradient id="linear-gradient-30" x1="293.96" y1="251.42" x2="405.46" y2="362.17" xlink:href="#linear-gradient-20"/><linearGradient id="linear-gradient-31" x1="314.04" y1="231.2" x2="425.54" y2="341.95" xlink:href="#linear-gradient-20"/><linearGradient id="linear-gradient-32" x1="346.08" y1="198.95" x2="457.58" y2="309.7" xlink:href="#linear-gradient-20"/><linearGradient id="linear-gradient-33" x1="275.4" y1="270.1" x2="386.9" y2="380.85" xlink:href="#linear-gradient-20"/><linearGradient id="linear-gradient-34" x1="365.18" y1="179.71" x2="476.68" y2="290.47" xlink:href="#linear-gradient-20"/><linearGradient id="linear-gradient-35" x1="357.1" y1="187.85" x2="468.6" y2="298.6" xlink:href="#linear-gradient-20"/><linearGradient id="linear-gradient-36" x1="297.5" y1="419.17" x2="452.5" y2="419.17" gradientUnits="userSpaceOnUse"><stop offset="0" stop-color="#3945ba"/><stop offset="1" stop-color="#0c179a"/></linearGradient><linearGradient id="linear-gradient-37" x1="308.33" y1="404.58" x2="441.67" y2="404.58" gradientUnits="userSpaceOnUse"><stop offset="0" stop-color="#1ad2ff"/><stop offset="1" stop-color="#0063ff"/></linearGradient><linearGradient id="linear-gradient-38" x1="375" y1="390.94" x2="375" y2="241.69" gradientUnits="userSpaceOnUse"><stop offset="0" stop-color="#fff"/><stop offset="1" stop-color="#fff" stop-opacity="0"/></linearGradient><linearGradient id="linear-gradient-39" x1="199.04" y1="426.13" x2="219.18" y2="426.13" gradientUnits="userSpaceOnUse"><stop offset="0" stop-color="#2e2a87"/><stop offset="0.12" stop-color="#28257c"/><stop offset="1" stop-color="#00002e"/></linearGradient><linearGradient id="linear-gradient-40" x1="252.9" y1="428.44" x2="274.54" y2="428.44" xlink:href="#linear-gradient-39"/><linearGradient id="linear-gradient-41" x1="250.14" y1="257.7" x2="250.14" y2="383.98" gradientUnits="userSpaceOnUse"><stop offset="0" stop-color="#000048"/><stop offset="1" stop-color="#0046b3"/></linearGradient><linearGradient id="linear-gradient-42" x1="237.92" y1="346.78" x2="245.1" y2="346.78" gradientUnits="userSpaceOnUse"><stop offset="0" stop-color="#290e5c"/><stop offset="1" stop-color="#3f0e82"/></linearGradient><linearGradient id="linear-gradient-43" x1="221.93" y1="257.69" x2="221.93" y2="383.98" xlink:href="#linear-gradient-41"/><linearGradient id="linear-gradient-44" x1="297.16" y1="240.03" x2="260.25" y2="285.32" gradientUnits="userSpaceOnUse"><stop offset="0" stop-color="#fccfb0"/><stop offset="1" stop-color="#e89f73"/></linearGradient><linearGradient id="linear-gradient-45" x1="222.35" y1="241.01" x2="277.32" y2="279.45" xlink:href="#linear-gradient-2"/><linearGradient id="linear-gradient-46" x1="251.33" y1="263.36" x2="261.58" y2="278.33" xlink:href="#linear-gradient-2"/><linearGradient id="linear-gradient-47" x1="209.82" y1="265.16" x2="260.23" y2="300.4" xlink:href="#linear-gradient-2"/><linearGradient id="linear-gradient-48" x1="219.84" y1="293.55" x2="230.1" y2="293.55" xlink:href="#linear-gradient-2"/><linearGradient id="linear-gradient-49" x1="245.69" y1="205.43" x2="253.17" y2="234.57" gradientUnits="userSpaceOnUse"><stop offset="0.01" stop-color="#007eea"/><stop offset="1" stop-color="#152759"/></linearGradient><linearGradient id="linear-gradient-50" x1="237.85" y1="226.22" x2="239.96" y2="249.85" xlink:href="#linear-gradient-44"/><linearGradient id="linear-gradient-51" x1="236.74" y1="242.18" x2="244.58" y2="242.18" xlink:href="#linear-gradient-44"/><linearGradient id="linear-gradient-52" x1="241.09" y1="225.93" x2="243.19" y2="249.56" xlink:href="#linear-gradient-44"/><linearGradient id="linear-gradient-53" x1="239.03" y1="207.14" x2="246.52" y2="236.28" xlink:href="#linear-gradient-49"/><linearGradient id="linear-gradient-54" x1="200.8" y1="182.73" x2="265.9" y2="301.25" gradientUnits="userSpaceOnUse"><stop offset="0" stop-color="#00006f"/><stop offset="1" stop-color="#1a47bf"/></linearGradient><linearGradient id="linear-gradient-55" x1="236.08" y1="226.38" x2="238.18" y2="250.01" xlink:href="#linear-gradient-44"/><linearGradient id="linear-gradient-56" x1="265.28" y1="302.72" x2="213.03" y2="278.72" xlink:href="#linear-gradient-44"/><linearGradient id="linear-gradient-57" x1="213.87" y1="259.36" x2="264.28" y2="294.61" xlink:href="#linear-gradient-2"/><linearGradient id="linear-gradient-58" x1="575" y1="422.11" x2="596.02" y2="422.11" xlink:href="#linear-gradient-39"/><linearGradient id="linear-gradient-59" x1="560.32" y1="422.11" x2="579.92" y2="422.11" xlink:href="#linear-gradient-39"/><linearGradient id="linear-gradient-60" x1="600.09" y1="316.54" x2="606.11" y2="316.54" gradientUnits="userSpaceOnUse"><stop offset="0" stop-color="#1a2286"/><stop offset="1" stop-color="#1ad4ff"/></linearGradient><linearGradient id="linear-gradient-61" x1="622.66" y1="365.45" x2="529.32" y2="354.11" gradientUnits="userSpaceOnUse"><stop offset="0" stop-color="#00006f"/><stop offset="1" stop-color="#1a95ff"/></linearGradient><linearGradient id="linear-gradient-62" x1="578.64" y1="331.49" x2="579.24" y2="362.7" xlink:href="#linear-gradient-42"/><linearGradient id="linear-gradient-63" x1="622.25" y1="368.79" x2="528.92" y2="357.46" xlink:href="#linear-gradient-61"/><linearGradient id="linear-gradient-64" x1="585.48" y1="221.47" x2="585.48" y2="249.74" xlink:href="#linear-gradient-44"/><linearGradient id="linear-gradient-65" x1="580.81" y1="237.83" x2="586.54" y2="237.83" xlink:href="#linear-gradient-44"/><linearGradient id="linear-gradient-66" x1="582.37" y1="221.47" x2="582.37" y2="249.74" xlink:href="#linear-gradient-44"/><linearGradient id="linear-gradient-67" x1="593.66" y1="204.43" x2="596.15" y2="227.38" gradientUnits="userSpaceOnUse"><stop offset="0" stop-color="#3945ba"/><stop offset="1" stop-color="#0c176f"/></linearGradient><linearGradient id="linear-gradient-68" x1="588.18" y1="205.26" x2="590.55" y2="227.12" xlink:href="#linear-gradient-67"/><linearGradient id="linear-gradient-69" x1="585.58" y1="221.47" x2="585.58" y2="249.74" xlink:href="#linear-gradient-44"/><linearGradient id="linear-gradient-70" x1="552.9" y1="284.36" x2="569.2" y2="284.36" xlink:href="#linear-gradient-44"/><linearGradient id="linear-gradient-71" x1="555.5" y1="257.39" x2="618.17" y2="283.05" xlink:href="#linear-gradient-2"/><linearGradient id="linear-gradient-72" x1="567.78" y1="278.75" x2="567.78" y2="262.84" xlink:href="#linear-gradient-2"/><linearGradient id="linear-gradient-73" x1="550.87" y1="268.69" x2="613.54" y2="294.36" xlink:href="#linear-gradient-2"/><linearGradient id="linear-gradient-74" x1="597.7" y1="288.9" x2="606.08" y2="288.9" xlink:href="#linear-gradient-2"/><linearGradient id="linear-gradient-75" x1="573.76" y1="270.1" x2="614.55" y2="279.98" xlink:href="#linear-gradient-44"/><linearGradient id="linear-gradient-76" x1="560.68" y1="244.73" x2="623.35" y2="270.4" xlink:href="#linear-gradient-2"/><linearGradient id="linear-gradient-77" x1="572.05" y1="277.13" x2="612.85" y2="287.01" xlink:href="#linear-gradient-44"/><linearGradient id="linear-gradient-78" x1="577.83" y1="206.17" x2="580.29" y2="228.88" xlink:href="#linear-gradient-67"/><linearGradient id="linear-gradient-79" x1="588.85" y1="221.47" x2="588.85" y2="249.74" xlink:href="#linear-gradient-44"/><linearGradient id="linear-gradient-80" x1="570.31" y1="317.59" x2="547.56" y2="248.84" xlink:href="#linear-gradient-54"/><linearGradient id="linear-gradient-81" x1="556.42" y1="298.03" x2="543.9" y2="271.92" xlink:href="#linear-gradient-44"/><linearGradient id="linear-gradient-82" x1="335.11" y1="363.45" x2="335.11" y2="401.25" xlink:href="#linear-gradient-2"/><linearGradient id="linear-gradient-83" x1="347.6" y1="363.45" x2="347.6" y2="401.25" xlink:href="#linear-gradient-2"/><linearGradient id="linear-gradient-84" x1="360.09" y1="363.45" x2="360.09" y2="401.25" xlink:href="#linear-gradient-2"/><linearGradient id="linear-gradient-85" x1="372.91" y1="363.45" x2="372.91" y2="401.25" xlink:href="#linear-gradient-2"/><linearGradient id="linear-gradient-86" x1="384.55" y1="363.45" x2="384.55" y2="401.25" xlink:href="#linear-gradient-2"/><linearGradient id="linear-gradient-87" x1="395.88" y1="363.45" x2="395.88" y2="401.25" xlink:href="#linear-gradient-2"/><linearGradient id="linear-gradient-88" x1="411.77" y1="363.45" x2="411.77" y2="401.25" xlink:href="#linear-gradient-2"/><linearGradient id="linear-gradient-89" x1="446.69" y1="338.61" x2="476.1" y2="337.86" xlink:href="#linear-gradient-44"/><linearGradient id="linear-gradient-90" x1="426.65" y1="338.28" x2="426.65" y2="363.29" gradientUnits="userSpaceOnUse"><stop offset="0" stop-color="#89d7ff"/><stop offset="0.22" stop-color="#9cddfe"/><stop offset="1" stop-color="#def1fb"/></linearGradient><linearGradient id="linear-gradient-91" x1="426.65" y1="338.28" x2="426.65" y2="363.29" xlink:href="#linear-gradient-90"/><linearGradient id="linear-gradient-92" x1="426.65" y1="338.28" x2="426.65" y2="363.29" xlink:href="#linear-gradient-90"/><linearGradient id="linear-gradient-93" x1="455.72" y1="362.28" x2="455.72" y2="387.29" gradientTransform="translate(15.36 -0.63)" xlink:href="#linear-gradient-90"/><linearGradient id="linear-gradient-94" x1="455.72" y1="362.28" x2="455.72" y2="387.29" gradientTransform="translate(15.36 -19.97)" xlink:href="#linear-gradient-90"/><linearGradient id="linear-gradient-95" x1="455.72" y1="362.28" x2="455.72" y2="387.29" gradientTransform="translate(15.36 -39.3)" xlink:href="#linear-gradient-90"/><linearGradient id="linear-gradient-96" x1="428.01" y1="348.71" x2="469.77" y2="348.71" xlink:href="#linear-gradient-4"/><linearGradient id="linear-gradient-97" x1="465.76" y1="367.32" x2="430.1" y2="327.98" xlink:href="#linear-gradient-90"/><linearGradient id="linear-gradient-98" x1="446.28" y1="333.31" x2="459.43" y2="321.42" xlink:href="#linear-gradient-44"/><linearGradient id="linear-gradient-99" x1="434.92" y1="427.7" x2="461.59" y2="427.7" xlink:href="#linear-gradient-39"/><linearGradient id="linear-gradient-100" x1="446.67" y1="395.99" x2="527.03" y2="395.99" gradientUnits="userSpaceOnUse"><stop offset="0" stop-color="#2e2a87"/><stop offset="1" stop-color="#000e42"/></linearGradient><linearGradient id="linear-gradient-101" x1="474.36" y1="386.52" x2="487.48" y2="386.52" xlink:href="#linear-gradient-100"/><linearGradient id="linear-gradient-102" x1="539.38" y1="412.11" x2="539.38" y2="432.66" xlink:href="#linear-gradient-39"/><linearGradient id="linear-gradient-103" x1="445.42" y1="401.47" x2="526.9" y2="401.47" xlink:href="#linear-gradient-100"/><linearGradient id="linear-gradient-104" x1="485.68" y1="283.01" x2="487.68" y2="327.26" xlink:href="#linear-gradient-44"/><linearGradient id="linear-gradient-105" x1="477.9" y1="306.29" x2="487.57" y2="306.29" xlink:href="#linear-gradient-44"/><linearGradient id="linear-gradient-106" x1="481.53" y1="283.2" x2="483.53" y2="327.45" xlink:href="#linear-gradient-44"/><linearGradient id="linear-gradient-107" x1="476.43" y1="343.82" x2="506.55" y2="345.19" gradientUnits="userSpaceOnUse"><stop offset="0" stop-color="#06b1fd"/><stop offset="1" stop-color="#0084ff"/></linearGradient><linearGradient id="linear-gradient-108" x1="469.34" y1="292.12" x2="495.32" y2="292.12" xlink:href="#linear-gradient-67"/><linearGradient id="linear-gradient-109" x1="485" y1="334.98" x2="496.67" y2="334.98" xlink:href="#linear-gradient-67"/><linearGradient id="linear-gradient-110" x1="441.52" y1="338.12" x2="502.69" y2="336.87" xlink:href="#linear-gradient-44"/><linearGradient id="linear-gradient-111" x1="441.9" y1="356.6" x2="503.06" y2="355.35" xlink:href="#linear-gradient-44"/><linearGradient id="linear-gradient-112" x1="477.11" y1="328.72" x2="507.24" y2="330.09" xlink:href="#linear-gradient-107"/><linearGradient id="linear-gradient-113" x1="336.48" y1="195.4" x2="308.95" y2="162.06" gradientUnits="userSpaceOnUse"><stop offset="0" stop-color="#bfe3ff"/><stop offset="1" stop-color="#fff"/></linearGradient><linearGradient id="linear-gradient-114" x1="322.58" y1="155.26" x2="322.58" y2="201.88" gradientUnits="userSpaceOnUse"><stop offset="0" stop-color="#06b1fd"/><stop offset="1" stop-color="#008eff"/></linearGradient><linearGradient id="linear-gradient-115" x1="597.49" y1="196.23" x2="652.49" y2="221.06" xlink:href="#linear-gradient-4"/><linearGradient id="linear-gradient-116" x1="648.39" y1="223.75" x2="604.39" y2="200.08" xlink:href="#linear-gradient-2"/><linearGradient id="linear-gradient-117" x1="606.92" y1="213.82" x2="606.92" y2="192.67" xlink:href="#linear-gradient"/><linearGradient id="linear-gradient-118" x1="610.3" y1="213.82" x2="610.3" y2="192.67" xlink:href="#linear-gradient"/><linearGradient id="linear-gradient-119" x1="613.67" y1="213.82" x2="613.67" y2="192.67" xlink:href="#linear-gradient"/><linearGradient id="linear-gradient-120" x1="617.05" y1="213.82" x2="617.05" y2="192.67" xlink:href="#linear-gradient"/><linearGradient id="linear-gradient-121" x1="620.42" y1="213.82" x2="620.42" y2="192.67" xlink:href="#linear-gradient"/><linearGradient id="linear-gradient-122" x1="655.4" y1="210.72" x2="611.4" y2="187.06" xlink:href="#linear-gradient-2"/><linearGradient id="linear-gradient-123" x1="654.25" y1="212.84" x2="610.25" y2="189.17" xlink:href="#linear-gradient-2"/><linearGradient id="linear-gradient-124" x1="653.07" y1="215.05" x2="609.07" y2="191.39" xlink:href="#linear-gradient-2"/><linearGradient id="linear-gradient-125" x1="652.26" y1="216.55" x2="608.26" y2="192.88" xlink:href="#linear-gradient-2"/><linearGradient id="linear-gradient-126" x1="651.22" y1="218.49" x2="607.22" y2="194.83" xlink:href="#linear-gradient-2"/><linearGradient id="linear-gradient-127" x1="649.66" y1="221.39" x2="605.66" y2="197.72" xlink:href="#linear-gradient-2"/><linearGradient id="linear-gradient-128" x1="193.81" y1="259.64" x2="161.05" y2="226.88" xlink:href="#linear-gradient-90"/><linearGradient id="linear-gradient-129" x1="169.4" y1="226.04" x2="193.97" y2="226.04" xlink:href="#linear-gradient-107"/><linearGradient id="linear-gradient-130" x1="161.71" y1="240.78" x2="143.04" y2="285.45" xlink:href="#linear-gradient-37"/><linearGradient id="linear-gradient-131" x1="154.13" y1="430.94" x2="154.13" y2="355.74" xlink:href="#linear-gradient-21"/><linearGradient id="linear-gradient-132" x1="170.5" y1="430.94" x2="170.5" y2="355.74" xlink:href="#linear-gradient-21"/><linearGradient id="linear-gradient-133" x1="137.91" y1="430.94" x2="137.91" y2="355.74" xlink:href="#linear-gradient-21"/><linearGradient id="linear-gradient-134" x1="186.86" y1="430.94" x2="186.86" y2="355.74" xlink:href="#linear-gradient-21"/><linearGradient id="linear-gradient-135" x1="162.41" y1="430.94" x2="162.41" y2="355.74" xlink:href="#linear-gradient-21"/><linearGradient id="linear-gradient-136" x1="442.42" y1="136.91" x2="577.08" y2="195.91" gradientUnits="userSpaceOnUse"><stop offset="0" stop-color="#18ddfd"/><stop offset="0.12" stop-color="#15d2fd"/><stop offset="1" stop-color="#0084ff"/></linearGradient><linearGradient id="linear-gradient-137" x1="604.76" y1="206.37" x2="450.51" y2="149.37" xlink:href="#linear-gradient-21"/><linearGradient id="linear-gradient-138" x1="477.8" y1="122.72" x2="605.8" y2="163.22" xlink:href="#linear-gradient-21"/><linearGradient id="linear-gradient-139" x1="476.88" y1="125.61" x2="604.88" y2="166.11" xlink:href="#linear-gradient-21"/><linearGradient id="linear-gradient-140" x1="471.2" y1="143.59" x2="599.2" y2="184.09" xlink:href="#linear-gradient-37"/><linearGradient id="linear-gradient-141" x1="465.68" y1="161.04" x2="593.68" y2="201.54" xlink:href="#linear-gradient-37"/><linearGradient id="linear-gradient-142" x1="470.7" y1="145.15" x2="598.7" y2="185.65" xlink:href="#linear-gradient-37"/><linearGradient id="linear-gradient-143" x1="464.38" y1="165.15" x2="592.38" y2="205.65" xlink:href="#linear-gradient-37"/><linearGradient id="linear-gradient-144" x1="461.11" y1="175.47" x2="589.11" y2="215.97" xlink:href="#linear-gradient-37"/><linearGradient id="linear-gradient-145" x1="465.45" y1="161.74" x2="593.45" y2="202.24" xlink:href="#linear-gradient-37"/><linearGradient id="linear-gradient-146" x1="465.93" y1="160.25" x2="593.93" y2="200.75" xlink:href="#linear-gradient-37"/><linearGradient id="linear-gradient-147" x1="466.79" y1="157.51" x2="594.79" y2="198.01" xlink:href="#linear-gradient-37"/><linearGradient id="linear-gradient-148" x1="466.44" y1="158.64" x2="594.44" y2="199.14" xlink:href="#linear-gradient-37"/><linearGradient id="linear-gradient-149" x1="214.06" y1="331.94" x2="83.37" y2="275.1" xlink:href="#linear-gradient-21"/><linearGradient id="linear-gradient-150" x1="203.75" y1="331.88" x2="124.74" y2="296.72" xlink:href="#linear-gradient-90"/><linearGradient id="linear-gradient-151" x1="205.79" y1="327.29" x2="126.78" y2="292.13" xlink:href="#linear-gradient-90"/><linearGradient id="linear-gradient-152" x1="207.83" y1="322.7" x2="128.82" y2="287.54" xlink:href="#linear-gradient-90"/><linearGradient id="linear-gradient-153" x1="209.87" y1="318.12" x2="130.86" y2="282.96" xlink:href="#linear-gradient-90"/><linearGradient id="linear-gradient-154" x1="211.91" y1="313.53" x2="132.9" y2="278.37" xlink:href="#linear-gradient-90"/><linearGradient id="linear-gradient-155" x1="213.95" y1="308.94" x2="134.94" y2="273.78" xlink:href="#linear-gradient-90"/><linearGradient id="linear-gradient-156" x1="202.54" y1="334.6" x2="123.53" y2="299.44" xlink:href="#linear-gradient-90"/><linearGradient id="linear-gradient-157" x1="196.62" y1="347.9" x2="117.61" y2="312.74" xlink:href="#linear-gradient-90"/><linearGradient id="linear-gradient-158" x1="198.66" y1="343.31" x2="119.65" y2="308.15" xlink:href="#linear-gradient-90"/><linearGradient id="linear-gradient-159" x1="200.7" y1="338.73" x2="121.69" y2="303.57" xlink:href="#linear-gradient-90"/><linearGradient id="linear-gradient-160" x1="202.74" y1="334.14" x2="123.73" y2="298.98" xlink:href="#linear-gradient-90"/><linearGradient id="linear-gradient-161" x1="204.78" y1="329.55" x2="125.77" y2="294.39" xlink:href="#linear-gradient-90"/><linearGradient id="linear-gradient-162" x1="206.82" y1="324.97" x2="127.81" y2="289.81" xlink:href="#linear-gradient-90"/><linearGradient id="linear-gradient-163" x1="136.54" y1="301.53" x2="199.44" y2="301.53" xlink:href="#linear-gradient-107"/><linearGradient id="linear-gradient-164" x1="100.02" y1="289.88" x2="129.02" y2="318.87" xlink:href="#linear-gradient"/><linearGradient id="linear-gradient-165" x1="100.02" y1="289.88" x2="129.02" y2="318.87" xlink:href="#linear-gradient"/><linearGradient id="linear-gradient-166" x1="48.69" y1="431.59" x2="701.31" y2="431.59" xlink:href="#linear-gradient-67"/></defs><g class="cls-1"><g id="BACKGROUND"><rect class="cls-2" width="750" height="500"/></g><g id="OBJECTS"><path class="cls-3" d="M92.44,430.44S36,362.33,78,285.78c42.09-76.72,105.16-37.26,179.08-126.8S450.32,91.44,501,140.82s45.94,100.91,112.69,137.62c82.5,45.37,66.81,127.9,57.47,153Z"/><path class="cls-4" d="M549.78,317.09a4.68,4.68,0,0,0-1.19.16,7.47,7.47,0,0,0-7.29-5.86,7.89,7.89,0,0,0-1.69.19,11.12,11.12,0,0,0-21.23.59,5.44,5.44,0,0,0-.57,0,7.09,7.09,0,0,0,0,14.18h32a4.62,4.62,0,1,0,0-9.23Z"/><path class="cls-4" d="M291.76,346.72a4.82,4.82,0,0,0-1.2.16,7.45,7.45,0,0,0-7.28-5.86,7.24,7.24,0,0,0-1.69.2,11.13,11.13,0,0,0-21.24.58,5.12,5.12,0,0,0-.56,0,7.09,7.09,0,0,0,0,14.18h32a4.62,4.62,0,0,0,0-9.23Z"/><path class="cls-5" d="M651.71,401.56a3.84,3.84,0,1,1-1.11-5.31A3.83,3.83,0,0,1,651.71,401.56Z"/><path class="cls-6" d="M541.29,377.07a3.84,3.84,0,1,1-1.12-5.31A3.83,3.83,0,0,1,541.29,377.07Z"/><path class="cls-7" d="M625.94,260.09A4.25,4.25,0,1,1,630.1,255a4.22,4.22,0,0,1-3.28,5A4.38,4.38,0,0,1,625.94,260.09Zm0-7.49a3.92,3.92,0,0,0-.68.07,3.23,3.23,0,0,0-2.5,3.85,3.17,3.17,0,0,0,1.4,2,3.24,3.24,0,0,0,4.49-.94,3.28,3.28,0,0,0,.46-2.44A3.27,3.27,0,0,0,626,252.6Z"/><path class="cls-8" d="M474.55,93.45a4.24,4.24,0,1,1,.88-.09A4.38,4.38,0,0,1,474.55,93.45Zm0-7.49a3.92,3.92,0,0,0-.68.07,3.25,3.25,0,1,0,3.84,2.51A3.25,3.25,0,0,0,474.57,86Z"/><path class="cls-9" d="M499.26,144.08a4.24,4.24,0,1,1,2.33-7.79,4.24,4.24,0,0,1,1.23,5.87h0A4.22,4.22,0,0,1,499.26,144.08Zm0-7.48a3.24,3.24,0,1,0,2.72,5h0a3.26,3.26,0,0,0-.95-4.49A3.26,3.26,0,0,0,499.27,136.6Z"/><path class="cls-10" d="M260.17,290.71a3.16,3.16,0,1,1-.92-4.38A3.16,3.16,0,0,1,260.17,290.71Z"/><path class="cls-11" d="M200.9,362.84a1.34,1.34,0,1,1-2.25-1.47,1.34,1.34,0,1,1,2.25,1.47Z"/><path class="cls-12" d="M196.58,193.14a2.48,2.48,0,1,1-.72-3.43A2.49,2.49,0,0,1,196.58,193.14Z"/><path class="cls-13" d="M132.12,186.07a3.85,3.85,0,1,1-1.12-5.33A3.85,3.85,0,0,1,132.12,186.07Z"/><path class="cls-14" d="M613.88,178a1.45,1.45,0,1,1-.42-2A1.44,1.44,0,0,1,613.88,178Z"/><path class="cls-15" d="M315.69,92.18a1.92,1.92,0,1,1-.56-2.66A1.92,1.92,0,0,1,315.69,92.18Z"/><path class="cls-16" d="M324.19,147.13a1.92,1.92,0,1,1-.56-2.66A1.92,1.92,0,0,1,324.19,147.13Z"/><path class="cls-17" d="M520.83,223.3a1.92,1.92,0,1,1-.56-2.66A1.92,1.92,0,0,1,520.83,223.3Z"/><path class="cls-18" d="M642.11,353.27a1.92,1.92,0,1,1-.56-2.66A1.92,1.92,0,0,1,642.11,353.27Z"/><path class="cls-19" d="M288.34,190.85a1.8,1.8,0,0,0-1.81,1l-3.8-.93a3.34,3.34,0,0,0-2.93-3.7,3.75,3.75,0,0,0-.95,0l-1.68-5.44a3.19,3.19,0,0,0-1-6.07,3.2,3.2,0,0,0-.73,6.35,3.29,3.29,0,0,0,.89,0l1.68,5.44a3.29,3.29,0,0,0-1.65,4.43l-4.8,3a5,5,0,1,0,1,3.56,4.89,4.89,0,0,0-.52-2.84l4.79-3a3.29,3.29,0,0,0,2.19,1.2,3.33,3.33,0,0,0,3.49-2.12l3.81.94a1.81,1.81,0,1,0,2-1.8Z"/><path class="cls-20" d="M124.68,355a1.82,1.82,0,0,0-1.82,1l-3.79-.93a3.27,3.27,0,0,0-3.89-3.65l-1.67-5.45a3.18,3.18,0,1,0-1.7.28,2.94,2.94,0,0,0,.89,0l1.67,5.44a3.3,3.3,0,0,0-1.64,4.43l-4.8,3a5.06,5.06,0,1,0,.45.72l4.79-3a3.32,3.32,0,0,0,5.68-.92l3.81.94a1.81,1.81,0,1,0,2-1.8Z"/><path class="cls-21" d="M435.28,174.55a1.81,1.81,0,0,0-.58.11L429,164.83H417.71a1.76,1.76,0,0,0-2.37-1.34l-4.71-8.15a1.78,1.78,0,0,0,0-2.7l4.7-8.14a1.92,1.92,0,0,0,.58.11,1.8,1.8,0,1,0,0-3.59,1.91,1.91,0,0,0-.58.1L410.65,133a1.79,1.79,0,1,0-2.91-1.71h-9.39a1.8,1.8,0,1,0-3,1.67l-4.71,8.16a1.86,1.86,0,0,0-.58-.1,1.78,1.78,0,0,0-1.76,1.45h-9.43a1.78,1.78,0,0,0-1.76-1.45,1.86,1.86,0,0,0-.58.1L372,133.2a1.8,1.8,0,1,0-1.3.56,1.86,1.86,0,0,0,.74-.16l4.54,7.86a1.78,1.78,0,0,0,0,2.7l-4.7,8.14a1.91,1.91,0,0,0-.58-.1,1.78,1.78,0,0,0-1.76,1.45h-9.39a1.79,1.79,0,1,0,0,.68h9.39a1.78,1.78,0,0,0,1.76,1.45,1.91,1.91,0,0,0,.58-.1l4.7,8.14a1.79,1.79,0,1,0,2.93,1.69h9.43a1.79,1.79,0,1,0,2.93-1.69l4.69-8.13a1.71,1.71,0,0,0,.55.09,1.78,1.78,0,0,0,1.76-1.45h9.43a1.78,1.78,0,0,0,2.34,1.35l4.71,8.16a1.79,1.79,0,0,0,0,2.66L410,174.66a1.76,1.76,0,0,0-2.37,1.69,1.79,1.79,0,1,0,3-1.35l4.71-8.15a1.78,1.78,0,0,0,2.37-1.34h10.92l5.48,9.49a1.78,1.78,0,1,0,1.17-.45Zm-39.94-19.21-4.69,8.13a1.72,1.72,0,0,0-.55-.1,1.79,1.79,0,0,0-1.76,1.46h-9.43a1.79,1.79,0,0,0-1.76-1.46,1.86,1.86,0,0,0-.58.11l-4.7-8.14a1.78,1.78,0,0,0,0-2.7l4.7-8.14a1.86,1.86,0,0,0,.58.11,1.79,1.79,0,0,0,1.76-1.46h9.43a1.79,1.79,0,0,0,1.76,1.46,1.72,1.72,0,0,0,.55-.1l4.69,8.13a1.78,1.78,0,0,0,0,2.7Zm14.7-3a1.86,1.86,0,0,0-.58-.1,1.79,1.79,0,0,0-1.76,1.45h-9.43a1.78,1.78,0,0,0-1.76-1.45,1.71,1.71,0,0,0-.55.09l-4.69-8.13a1.78,1.78,0,0,0,0-2.7l4.71-8.15a1.74,1.74,0,0,0,.61.12,1.8,1.8,0,0,0,1.76-1.46h9.39a1.79,1.79,0,0,0,1.76,1.46,1.72,1.72,0,0,0,.55-.1l4.69,8.13a1.78,1.78,0,0,0,0,2.7Z"/><circle class="cls-22" cx="375" cy="279.73" r="78.46"/><circle class="cls-23" cx="375" cy="279.73" r="78.46"/><circle class="cls-24" cx="375" cy="279.73" r="72.49"/><circle class="cls-25" cx="375" cy="279.73" r="11.35"/><ellipse class="cls-26" cx="375" cy="279.73" rx="20.3" ry="62.93"/><ellipse class="cls-27" cx="375" cy="279.73" rx="20.3" ry="62.93" transform="translate(-54.76 464.63) rotate(-60)"/><ellipse class="cls-28" cx="375" cy="279.73" rx="62.93" ry="20.3" transform="translate(-89.63 224.98) rotate(-30)"/><path class="cls-29" d="M396.53,249a3.94,3.94,0,1,1-3.94-3.94A3.94,3.94,0,0,1,396.53,249Z"/><path class="cls-30" d="M365.12,325.64a3.95,3.95,0,1,1-3.94-3.94A3.94,3.94,0,0,1,365.12,325.64Z"/><path class="cls-31" d="M323.5,250.17a3.95,3.95,0,1,1-3.95-3.94A3.94,3.94,0,0,1,323.5,250.17Z"/><g class="cls-32"><circle class="cls-33" cx="344.58" cy="224.19" r="1.75"/><circle class="cls-34" cx="313.86" cy="284.11" r="1.75"/><circle class="cls-35" cx="346.33" cy="303.44" r="1.75"/><circle class="cls-36" cx="411.33" cy="327.84" r="1.75"/><path class="cls-37" d="M441.5,291.08a2.67,2.67,0,1,1-2.67-2.66A2.66,2.66,0,0,1,441.5,291.08Z"/><path class="cls-38" d="M345.5,337.08a2.67,2.67,0,1,1-2.67-2.66A2.66,2.66,0,0,1,345.5,337.08Z"/><circle class="cls-39" cx="415.75" cy="229.94" r="2.67"/><path class="cls-40" d="M405,234a1.42,1.42,0,1,1-1.42-1.42A1.41,1.41,0,0,1,405,234Z"/></g><path class="cls-41" d="M304.42,407.28H445.58a6.92,6.92,0,0,1,6.92,6.92v16.87a0,0,0,0,1,0,0h-155a0,0,0,0,1,0,0V414.19A6.92,6.92,0,0,1,304.42,407.28Z"/><path class="cls-42" d="M441.67,407.28H308.33a5.39,5.39,0,0,1,5.39-5.39H436.28a5.39,5.39,0,0,1,5.39,5.39Z"/><polygon class="cls-43" points="493.33 242.28 256.67 242.28 327.5 401.89 422.5 401.89 493.33 242.28"/><path class="cls-44" d="M202.34,419.84a50.35,50.35,0,0,0,8,2.73,9.44,9.44,0,0,0,1.46,3.48c.34.41,1.32,1.23,2.41,2.24h0s5,1.51,5,4.14h-7.9L199,426.09A7.74,7.74,0,0,1,202.34,419.84Z"/><path class="cls-45" d="M274.51,432.42h-20.8s-2.09-2.64.43-7.23a39.61,39.61,0,0,0,8.22-.73,10.82,10.82,0,0,0,2.93,2.57C266.74,427.73,275.07,429.37,274.51,432.42Z"/><path class="cls-46" d="M262.36,424.45a23.87,23.87,0,0,1-8.22.74c-1.11-6.44-2.85-20.61-4.43-27.26-2.44-10.32-4.82-24.52-3.16-29.58-.44-1.27-1.45-4.13-1.45-4.17-2.4-6.88-5.43-15.7-7.18-21.89l.84-14,1.45-19,7.38.29a49.74,49.74,0,0,0,9.82-.33s4,40.8,4.09,58C261.5,367.28,262.23,412.36,262.36,424.45Z"/><path class="cls-47" d="M245.1,364.18c-2.4-6.88-5.43-15.7-7.18-21.89l2.72-12.92S242.51,349.48,245.1,364.18Z"/><path class="cls-48" d="M224.65,308.64c-7.19,10.53-7.57,24.83-7.3,30.83.41,8.2,2.7,20.86,3.79,29.29-5.8,5.93-8.83,18.13-11.37,27.4-1.55,5.65-5.67,18.38-7.43,23.68a24.47,24.47,0,0,0,8,2.73c7-14.68,20.33-39.08,23.82-46.42a14.66,14.66,0,0,0,1.49-3.6c.59-3.67,5.85-44.27,5.85-44.27V309.64C233.56,309.15,224.65,308.64,224.65,308.64Z"/><path class="cls-49" d="M265.1,268.91c1.12,3,2.33,6.57,2.79,7.73,5.38-4.91,11.85-9.48,13.75-12.21.55-.79.87-2.81,1.18-3.66A6.12,6.12,0,0,1,284,258c1-.95,3.47-3.48,3.88-3.44.2,0,.38.37.36.92.83-1,1.77-2.08,3.17-3.58s1.92-1.2,2.08-1c.7.73-.79,2.51-.87,2.6l-1.92,2.6a3.72,3.72,0,0,1,2.12,1.29c.36.38,1.24,1.67,1.24,1.67a1.45,1.45,0,0,1,.13,1.34,12.57,12.57,0,0,1-1.12,2.11c-1.32,2.08-5.18,3.58-5.19,3.58-.64.54-1.3,1.2-1.3,1.2-2.41,3.3-16.07,24.3-20,24.31-3.09,0-8.19-5.42-12.83-15.69C256.22,275,260.71,271.58,265.1,268.91Z"/><path class="cls-50" d="M267.25,273.73s-.74.93-4.16,2.26c-.69.28-1.43.55-2.22.79-.64.21-1.31.39-2,.55l-.28.07a16.88,16.88,0,0,1-3.24.42l.1-11.7.43-15.41S260,253.23,267.25,273.73Z"/><path class="cls-51" d="M260.87,276.78c-.64.21-1.31.39-2,.55l-.28.07a16.88,16.88,0,0,1-3.24.42l.1-11.7,1.22-3.58S259.39,271.73,260.87,276.78Z"/><path class="cls-52" d="M221.05,304.76c-.46,2.86-1.21,14.08-1.21,14.08a8.53,8.53,0,0,0,1.29.47c2.74.86,10.3,2.39,26.39,1,10.46-.93,11.58-2.19,11.58-2.19-.19-1.48-.44-4.61-.72-8.49a4.81,4.81,0,0,0-.1-1.48c-.82-12.08-1.75-29.91-1.76-30,.29-14,1.26-25.4,0-26.8-2.1-2.26-7.59-4.05-16.48-3.78a61.19,61.19,0,0,0-12.55,2.05.08.08,0,0,1,0,0,16.62,16.62,0,0,0-6.34,4.44,22.29,22.29,0,0,0-3,4c.22,5,1.3,14,1.91,21.74.08,1,1.35,5.57,1.78,7.65l-1.54-.26S221.51,301.91,221.05,304.76Z"/><path class="cls-53" d="M219.84,318.84a8.53,8.53,0,0,0,1.29.47c.76-5.38,3.05-21.36,4.09-26,.41-1.81,1.29-8.16,2.52-10.95a6.35,6.35,0,0,0,1.66-.56,116.44,116.44,0,0,0,.69-14l-5.43,1.61L220,279.72c.08,1,1.35,5.57,1.78,7.65l-1.54-.26s1.27,14.8.81,17.65S219.84,318.84,219.84,318.84Z"/><path class="cls-54" d="M253.34,221.86s1.45,3.66-1.1,4.31c-.05,2-.42,4-1.63,4.39-2.6.9-2.41-2.61-2.41-2.61l-.14-3.87Z"/><path class="cls-55" d="M243.17,253.5c6.51-.51,1.77-6,1.77-6s-.16-.78-.36-2-.4-2.64-.52-4.31c0-.12,0-.25,0-.36l-3.77-1.88-5.88-4.62s1,9.28-.89,13.91C232.47,249.27,235.72,254.09,243.17,253.5Z"/><path class="cls-56" d="M236.74,239s2.8,4.85,7.84,6.42c-.19-1.12-.4-2.64-.52-4.31l-3.79-2.24Z"/><path class="cls-57" d="M250.1,223.06s2.56,16.66-1.77,18.69c0,0-6.18,2.9-11.05-2.1a15.3,15.3,0,0,1-3.21-5.05c-1.22-3-3.12-8.67-2.16-12.35C233.29,217,248.28,211,250.1,223.06Z"/><path class="cls-58" d="M229.72,218.18a2.38,2.38,0,0,1,3-.37,4.75,4.75,0,0,1,2-5.56,5.78,5.78,0,0,1,6.54.35.29.29,0,0,0,.24,0c.17-.05.26-.23.33-.39.84-1.74,3-2.48,4.87-2.53a7.14,7.14,0,0,1,3.5.7,4.27,4.27,0,0,1,2.23,2.69,4.6,4.6,0,0,1-.26,2.64c-.07.17-.14.39,0,.52a.41.41,0,0,0,.31.12c3.41-.11,4,2.33,4,2.73.09,4.16-3.91,4.5-5,4.37a3.21,3.21,0,0,1-2.8,1.12,6.27,6.27,0,0,1-3.21-.55,6.12,6.12,0,0,1-2.92.31,2.14,2.14,0,0,1-1.47,1c-.14,1.83-.07,3.88-1.26,5.22-.84.93-2.48,1.17-4.19,1.12a7.31,7.31,0,0,0-.36,1.45,49.8,49.8,0,0,0-.69,6.53l-.72-.18c-1.67-.34-1.16-2.69-2.28-5.85C230.34,229.93,227.56,220.85,229.72,218.18Z"/><path class="cls-59" d="M281.57,287.85,269.18,317a.87.87,0,0,1-1.1.47l-20.79-7.89a.86.86,0,0,1-.49-1.14l2.66-6.26,2.86-6.74.16-.38,0,0,1.65-3.88,5-11.82a.85.85,0,0,1,1.1-.47l20.8,7.88A.87.87,0,0,1,281.57,287.85Z"/><path class="cls-60" d="M237.84,235c-3,1.67-5.11-6.1-2.11-6.86,2.28-.58,2.81,2.63,2.81,2.63S239.58,234,237.84,235Z"/><path class="cls-61" d="M259.47,297.42a26.11,26.11,0,0,0-3.1.15l2.55-.84c1.13-.39.91-1.1-.45-1.23a32.08,32.08,0,0,0-4.3.33h0a7.16,7.16,0,0,1-1.86-.43,4.48,4.48,0,0,1,.81-1.31c.38-.33,1.43-1.6,1.26-2.44s-.48-.71-1.21-.11a14.1,14.1,0,0,1-2.95,1.46c-.6.26-.86.69-1.66,1.07a4.45,4.45,0,0,1-2.69.25c-1.68-.38-7-2.56-12.87-5.19a81.66,81.66,0,0,0-8-3.37c.35-1.21.35-1.33.65-2.67.65-2.74,1.2-5.54,1.59-7.71s.65-3.8.65-3.8l-12.54-5.2s-.32,2.18-.73,5.26c-.29,2.24-.64,4.95-1,7.66h0c-.49,4.05-.95,8.07-1.09,10.48-.39,3.4,4.86,5.19,8.89,5.9l.52.1h0c5.86,1.08,21,3.83,21,3.83,3,.55,6.33,2.64,7.31,2.92a7.67,7.67,0,0,0,4.74-.2l2.76-.91c1-.33.94-.89.08-1.13l1-.33c.89-.31.93-.82.24-1.08.33-.09.6-.17.76-.23C261.05,298.26,260.83,297.55,259.47,297.42Z"/><path class="cls-62" d="M214.7,267c0-.07,0-.13.06-.21.64-2.78,1.32-5.33,1.93-7.44a13.61,13.61,0,0,1,8.12-8.88l.66-.26c.41-.16.77-.29,1.07-.39h0l.83-.28-2.62,6.75-.42,1.5,5.86,6.77a145,145,0,0,1-1.42,14.8c-2.4,1-5.8.82-8.8.33a55.68,55.68,0,0,1-7.12-1.8A88.08,88.08,0,0,1,214.7,267Z"/><path class="cls-63" d="M595.85,431H577.39c-3,0-2.63-2-1.81-2.84s10.29-3.57,12-4.46c0-1.85-.24-9.65-.24-9.65l8.47-.88c-.21,3.16-1.08,8.1-.76,10.66A13.08,13.08,0,0,1,595.85,431Z"/><path class="cls-64" d="M579.92,421.77s-10.12,10.06-10.38,10.06h-8.16a2,2,0,0,1-.41-3.26c1.21-1.23,4.8-2.19,4.8-2.19l4.7-8.42-.72-4.66,7.11-.91a9.59,9.59,0,0,0,1,4.07l0,0a.45.45,0,0,0,.11.17C579.08,417.9,579.92,421.77,579.92,421.77Z"/><path class="cls-65" d="M603.93,317.62c-3.15,1.27-3.84-2.43-3.84-2.43h5.62l.37.31S606.51,316.59,603.93,317.62Z"/><path class="cls-66" d="M585.67,336.31c-1.24,1.92-3.07,7.3-5.22,13.49-.67,1.94-1.39,4-2.12,6-.16.39-.3.82-.46,1.22-.06.17-.12.33-.19.5a104.69,104.69,0,0,1-4.61,11,82.1,82.1,0,0,1,3.48,16.84c1.16,14.6,1.34,31.14,1.34,31.14a8.49,8.49,0,0,1-7.42,1.5s-11-38.57-12.25-48.67a16.31,16.31,0,0,1,.12-3.74c1.73-13.13,8.47-48.24,10.93-59.85l22.91-2.89C600.66,326.94,588.8,331.5,585.67,336.31Z"/><path class="cls-67" d="M580.45,349.8c-.67,1.94-1.39,4-2.12,6-.16.39-.3.82-.46,1.22-.06.17-.12.33-.19.5l1.18-30.88S579.75,339.67,580.45,349.8Z"/><path class="cls-68" d="M602.17,307.3l-24.89-3.62s3.16,46.3,4.06,58.74a39.5,39.5,0,0,0,.93,10.28c1.65,8,3.08,28.7,3.44,33.77s1.83,17.25,1.83,17.25,1.07,1.68,7.47.13c0,0,2.28-15.24,2.72-24.37s3.5-28.4.17-36.06c3.15-13.37,5.76-32.09,6.94-37.71C606.54,317.39,602.17,307.3,602.17,307.3Z"/><path class="cls-69" d="M590.56,242.61c-3.08,1.94-9.71,3-9.71,3a13.85,13.85,0,0,0-.23-3.23,17,17,0,0,0,.33-3c.08-1.5.09-3,.08-3.7v-.37l-1-.82,11-5A19.4,19.4,0,0,0,590.56,242.61Z"/><path class="cls-70" d="M586.54,234.35c-.17.28-1,5.07-5.73,7,.08-1.49.18-3.19.17-3.87Z"/><path class="cls-71" d="M588.73,231.44c-.42.64-.84,1.24-1.27,1.79l-.1.15c-5.49,7.05-10.94,6.63-12.49,2.74a31.58,31.58,0,0,1-1.66-6,30.45,30.45,0,0,1-.19-10.59c.52-2.56,2.89-7.49,9.75-6.73S596.33,219.84,588.73,231.44Z"/><path class="cls-72" d="M598.34,217.33a3.9,3.9,0,0,0,1-1.44c1.61-4.31-2.93-8.07-6.43-6.21a5.39,5.39,0,0,0-2,1.84,11.93,11.93,0,0,1,.54-1.25,5.83,5.83,0,0,0-1.69,3.38l.25,0a8.7,8.7,0,0,0-.23,2.45l2.94,2.79a10.49,10.49,0,0,0,2.21-.11l-.22.51c4.84-.28,5.32-4,5.32-4A5,5,0,0,1,598.34,217.33Z"/><path class="cls-73" d="M595.47,219.7a7.2,7.2,0,0,0-6-6.57l1.89,3.12Z"/><path class="cls-74" d="M596.22,227.82c-.75,3-2.9,3.45-3.42,5-1,2.94-1.82,4.24-3.15,4.38-.18-1.92.17-7.48.17-7.48a3.66,3.66,0,0,0,0-2.38c-.44-1-2.72-.36-2.72-.36-1.45.2-1.59-1.55-2-2.57a13.68,13.68,0,0,1-1-4.16c.52-3.92-3-8.17-.5-8.55C589.41,210.74,598.55,218.5,596.22,227.82Z"/><path class="cls-75" d="M580.62,242.43a5.76,5.76,0,0,1-1.92,2.28c-.92.77-4.46,1.77-4.46,1.77,9.64,10,22.68.61,22.68.61a23.08,23.08,0,0,1-4.52-2,6.19,6.19,0,0,1-1.84-2.51"/><path class="cls-76" d="M570.74,275.53s-1.24,2.85-2.54,5.72c-1.11,2.41-2.23,4.82-2.7,5.68-.7,1.24-4.36,6.42-7.62,10.82l-5.52-7.84,4.7-10.11,2-5,1.58-3.86Z"/><path class="cls-77" d="M572.76,264.31c-.79,3.07-1.7,6.53-2.4,9.11l-1.06,3.9a26.75,26.75,0,0,1-4.11-1.15A61.67,61.67,0,0,1,558,273s5.05-21.06,11.65-24.68C569.3,250.93,573.93,259.78,572.76,264.31Z"/><path class="cls-78" d="M570.36,273.42l-1.06,3.9a26.75,26.75,0,0,1-4.11-1.15l3.51-13.34Z"/><path class="cls-79" d="M606.08,315.51c-.43-.37-2.05-.21-4.42.18-4.9.81-13,2.6-20.35,2.6-10.89,0-14.36-2.14-15.18-3.72.61-1.61,1.81-11,2-19.2.26-11.51.37-25.95.4-27.09.14-5.22.47-15.32,1.15-19.95a59.29,59.29,0,0,1,8-3.17c.52,5.53,5.14,6.33,9.44,5.09a25.34,25.34,0,0,0,7.65-4.16s9.07,3.44,8.93,5c-.13,1.34-1.58,11.43-2,17-.06.87-.09,1.65-.11,2.25l2.14-.84s0,.7-.11,1.88c-.32,5.37-1.19,20.83-1,26.66.05,1.39.26,3.92.48,6.39S606.08,315.51,606.08,315.51Z"/><path class="cls-80" d="M606.08,315.51c-.43-.37-2.05-.21-4.42.18-.49-2.95-1.4-8.43-2-12-.89-5.1.19-15.3,0-22.27-.19-6.25-1.65-17.11-1.95-19.31.32,1.77,1.62,9.06,2.56,11.68l3.28-2.34c-.32,5.37-1.19,20.83-1,26.66.05,1.39.26,3.92.48,6.39S606.08,315.51,606.08,315.51Z"/><path class="cls-81" d="M610.75,291.85c-2.56.71-6.2-5.27-6.82-7.62-.46-1.75-1.62-7.38-2.22-10.44h0c-.25-1.22-.41-2-.41-2l4.34-2.14,6.56-3.23s.28,2,.61,4.85c.13,1.09.28,2.31.42,3.57.23,2.09.46,4.31.61,6.32C614.2,285.62,613.59,291.08,610.75,291.85Z"/><path class="cls-82" d="M613.65,273.06c-2,.61-9.06,2.34-13.19,1.51-1-2.35-5.74-28.48-5.74-28.48s13.17.77,16.2,13.06C611.71,262.34,612.93,268.47,613.65,273.06Z"/><path class="cls-83" d="M607.15,280.48s-19.43-4.31-22.81-5.13-8-2.39-8-2.39-.92-.31-1.65-.64a36.55,36.55,0,0,1-3.29-1.72c-.57-.33-.79.57-.5,1,.84,1.31,3.84,2.62,3.84,2.62s-1.25,1.63-1.19,2.51a6.36,6.36,0,0,0,2.1,3.1,3.85,3.85,0,0,0,2.46.53c.2-.15.49-.89-.43-1.28a5.12,5.12,0,0,0,2.16.31c1.33-.07,2.26-.64,3.22-.33s18.42,10.37,22.06,12.13c6.22,3,7.8-.79,8.56-5.17A25.59,25.59,0,0,0,607.15,280.48Z"/><path class="cls-84" d="M586.11,211.76s2.91,4.66,1.35,8.31a4.22,4.22,0,0,0-2.92,4.3c-5.45,1.88-13.63,0-13.63,0s-.62-4.2,1.41-5.89C574.23,208.73,586.11,211.76,586.11,211.76Z"/><path class="cls-85" d="M587.06,226.94s.35-2.53,2.63-1.7c1.79.65.59,4-.08,5.15a1.2,1.2,0,0,1-2.23,0"/><path class="cls-86" d="M572.18,299.25H550a1.1,1.1,0,0,1-1.08-.91L542.8,263a1.1,1.1,0,0,1,1.09-1.28H566.1a1.09,1.09,0,0,1,1.08.91L573.26,298A1.1,1.1,0,0,1,572.18,299.25Z"/><path class="cls-87" d="M545.73,280a8.25,8.25,0,0,0-.83,3.09c0,1.43,1.09,4.17,2.17,4.71a7.48,7.48,0,0,0,3.77.32,1,1,0,0,0,.62-.63,7.68,7.68,0,0,0,1.56-.22.77.77,0,0,0,.36-1.09,3.49,3.49,0,0,0,1.4-.23,1,1,0,0,0,0-1.57,4.47,4.47,0,0,0-1.33-.64,1.75,1.75,0,0,0-.65-1.15,10.58,10.58,0,0,0-3.43-.85C548.17,281.6,546.3,281.58,545.73,280Z"/><path class="cls-88" d="M339.45,399.75l-3.56-2.34a4.85,4.85,0,0,1-1.26.17,5.05,5.05,0,0,1-4-1.56,6.6,6.6,0,0,1-1.38-4.53V380.66a6.15,6.15,0,0,1,1.42-4.39,6.35,6.35,0,0,1,8.2,0,6.15,6.15,0,0,1,1.42,4.39v10.83a6.92,6.92,0,0,1-1.24,4.37l1.92,1.22Zm-4.68-6.3a.75.75,0,0,0,.69-.35,2.22,2.22,0,0,0,.27-.88,9,9,0,0,0,.06-1V380.74a3.91,3.91,0,0,0-.2-1.28.8.8,0,0,0-.85-.56.81.81,0,0,0-.86.55,3.59,3.59,0,0,0-.2,1.28V391.3c0,.3,0,.62.05.95a2,2,0,0,0,.29.85A.81.81,0,0,0,334.77,393.45Z"/><path class="cls-89" d="M347.6,397.58a5.07,5.07,0,0,1-4.12-1.58,7,7,0,0,1-1.33-4.62V375h4.35V391.2a7.64,7.64,0,0,0,.07,1.08,1.86,1.86,0,0,0,.29.84.83.83,0,0,0,.74.33.86.86,0,0,0,.75-.32,1.75,1.75,0,0,0,.28-.85,9.51,9.51,0,0,0,.06-1.08V375H353v16.4a7,7,0,0,1-1.32,4.62A5.09,5.09,0,0,1,347.6,397.58Z"/><path class="cls-90" d="M354.15,397.37,356.31,375h7.6L366,397.37H361.8l-.32-3.61h-2.7l-.28,3.61Zm5-7.19h2l-1-11.39H360Z"/><path class="cls-91" d="M367.41,397.37V375H372l2.06,10.72V375h4.32v22.39H374l-2.24-11.2v11.2Z"/><path class="cls-92" d="M382.31,397.37V379.28h-2.66V375h9.8v4.3h-2.66v18.09Z"/><path class="cls-93" d="M395.88,397.58a5.11,5.11,0,0,1-4.13-1.58,7,7,0,0,1-1.32-4.62V375h4.35V391.2a7.64,7.64,0,0,0,.07,1.08,1.86,1.86,0,0,0,.29.84.83.83,0,0,0,.74.33.89.89,0,0,0,.75-.32,1.86,1.86,0,0,0,.28-.85,9.51,9.51,0,0,0,.06-1.08V375h4.35v16.4A7,7,0,0,1,400,396,5.09,5.09,0,0,1,395.88,397.58Z"/><path class="cls-94" d="M403,397.37V375h6.82l1.88,13.65L413.61,375h6.89v22.39h-4.1V381.24l-2.57,16.13h-4l-2.72-16.13v16.13Z"/><text class="cls-95" transform="translate(287.5 385.55)">10100101</text><text class="cls-95" transform="translate(287.5 377.92)">01011010</text><text class="cls-95" transform="translate(273.98 223.51)">10100101</text><text class="cls-95" transform="translate(273.98 215.89)">01011010</text><text class="cls-95" transform="translate(430.45 200.18)">100101</text><text class="cls-95" transform="translate(430.45 192.56)">011010</text><path class="cls-96" d="M453.83,329.69l17.25,6.5,7.92-3.75,6,8.75s-11.13,5.65-12.69,5.5c-5.23-.5-19.31-13.41-20-13.41"/><path class="cls-97" d="M426,337.38h2a0,0,0,0,1,0,0v3.33a0,0,0,0,1,0,0h-2a.75.75,0,0,1-.75-.75v-1.83A.75.75,0,0,1,426,337.38Z"/><path class="cls-98" d="M426,347h2a0,0,0,0,1,0,0v3.33a0,0,0,0,1,0,0h-2a.75.75,0,0,1-.75-.75V347.8A.75.75,0,0,1,426,347Z"/><path class="cls-99" d="M426,356.71h2a0,0,0,0,1,0,0V360a0,0,0,0,1,0,0h-2a.75.75,0,0,1-.75-.75v-1.83A.75.75,0,0,1,426,356.71Z"/><path class="cls-100" d="M470.47,356.71h2a0,0,0,0,1,0,0V360a0,0,0,0,1,0,0h-2a.75.75,0,0,1-.75-.75v-1.83A.75.75,0,0,1,470.47,356.71Z" transform="translate(942.16 716.76) rotate(180)"/><path class="cls-101" d="M470.47,347h2a0,0,0,0,1,0,0v3.33a0,0,0,0,1,0,0h-2a.75.75,0,0,1-.75-.75V347.8A.75.75,0,0,1,470.47,347Z" transform="translate(942.16 697.42) rotate(180)"/><path class="cls-102" d="M470.47,337.38h2a0,0,0,0,1,0,0v3.33a0,0,0,0,1,0,0h-2a.75.75,0,0,1-.75-.75v-1.83A.75.75,0,0,1,470.47,337.38Z" transform="translate(942.16 678.09) rotate(-180)"/><rect class="cls-103" x="428.01" y="330.18" width="41.75" height="37.05" rx="2.01"/><rect class="cls-104" x="430.91" y="332.75" width="35.97" height="31.92" rx="1.73"/><path class="cls-105" d="M453.11,328.56a13.78,13.78,0,0,0-2.72-.51c-1.3.05-3.71-.05-4.67,1a7.6,7.6,0,0,0-1.29,2,6.78,6.78,0,0,0-.21,2.56c0,.42.4.57.77.52-.06.35-.07.67.06.79,1,.88,2.09-2,2.09-2s-1.07,2.93-.5,3c1.07.23,2.42-3.1,2.42-3.1s-.14,1.45.4,1.57c1.09.24,2.24-3.94,2.54-4s2.45.15,3.23-.39c.38-.25.71-1,.19-1.24C455.07,328.6,453.49,328.65,453.11,328.56Z"/><path class="cls-106" d="M454.48,423.9A6,6,0,0,1,456,427a12.19,12.19,0,0,1-.24,3.81c0,.41-1.64.78-3.9.82s-9.26-.07-11.22,0a18,18,0,0,1-5.51-.55c-.83-.38-1-3.12,3.15-3.46,2.4-.2,4.5-1.69,6.51-2.67a20.4,20.4,0,0,0,2.15-1.16S453.24,424.41,454.48,423.9Z"/><path class="cls-107" d="M496.66,370.28s-17.53-1.34-30.93-2.2c-22.18-2.34-21.79.13-23.18,8.3-1.42,8.37,1.45,23.12,2.14,29.12.56,4.94,2.25,18.4,2.25,18.4,3.43,1.87,7.54,0,7.54,0s2.82-23,3-30a33.24,33.24,0,0,0-.65-7.95c4.64,1.55,11.45,3.48,17.51,5.25,2.94.87,5.7,1.7,7.94,2.44a53,53,0,0,0,5.16,1.43,23.93,23.93,0,0,0,6.19.78C497,389.32,496.66,370.28,496.66,370.28Z"/><path class="cls-108" d="M474.36,391.24c2.94.87,5.7,1.7,7.94,2.44a53,53,0,0,0,5.16,1.43h0l-3.24-17.19-.25.62C483.08,380.59,481.2,389.53,474.36,391.24Z"/><path class="cls-109" d="M535.14,413.64a9,9,0,0,1,3.47-1.58,13.1,13.1,0,0,1,3.82.15c.41,0,.82,1.63.9,3.9s.15,9.25.26,11.21c0,.44,0,.94,0,1.45h0a4.68,4.68,0,0,1-2.24,3.27,2,2,0,0,1-.51.32c-.1,0-.2.08-.3.12-1.17.41-1.84.34-2.25.05a1.51,1.51,0,0,1-.58-1c-.06-.61,1.45-2.81,1.25-4.23v0a40.79,40.79,0,0,0-2.17-4.53,4.86,4.86,0,0,0-1.3-1.8S536.4,415.68,535.14,413.64Z"/><path class="cls-110" d="M535.56,413.64l-17.74.19h0a97.58,97.58,0,0,0-13-.48,30.14,30.14,0,0,0-7.05,1.06c3.6-6.54,10.07-19.62,11.69-25.87,2-7.75,0-12,0-12-6.41-3.64-24.63-4.11-24.63-4.11l-6.48,39.92c-1.81,11,1.91,17.78,5.29,18,15.38,1,52.37-9.53,52.37-9.53C537.77,417.39,535.56,413.64,535.56,413.64Z"/><path class="cls-111" d="M477.89,307.08h0a7.07,7.07,0,0,1,3.2,2.86,12.2,12.2,0,0,1,1.66,4.73,4,4,0,0,0,.36,2.65c.72,1.37,7.83,1.94,10.41.86s3.94-2.87,2.94-4.08-5.23-3.95-6.24-6,.86-8.39.86-8.39l-3.74-1.08S473.58,305.21,477.89,307.08Z"/><path class="cls-112" d="M477.9,307.09a7.07,7.07,0,0,1,3.2,2.86c5.68-3.26,6.47-7.32,6.47-7.32l-8.7,3.15S478.42,306.34,477.9,307.09Z"/><path class="cls-113" d="M473.44,288.78s-1.61,11.05-1,17a3.4,3.4,0,0,0,3.24,3c2.54.09,6.72-.49,11.81-4,8.54-5.81,3.38-15.21,1.37-17.43S477,281.46,473.44,288.78Z"/><path class="cls-114" d="M493.77,311.77s-3.7,4.57-11.08,3.92a49.16,49.16,0,0,0-4.16,11.55c-1.43,6.53-.84,14.34-.79,19.87.05,4-1.34,15.63-1.39,20.56,0,1,.15,1.14.15,1.14a59.82,59.82,0,0,1,6.44,2.69c6.16,3.15,16.19,8.22,26.25,5.68a2,2,0,0,0,1.27-2.51c-2.87-8.26-4.69-32.79-5.28-39.52C504.46,327.05,500.61,315.53,493.77,311.77Z"/><path class="cls-115" d="M491.36,303.05c-.32.75-.79,1.28-1.23,1.08-1.09-.49-1.84-8.58-2.56-9.68s-2.24-1-2.48.33-.29,3.25-.82,2.87-.31-1.81-.65-2.54-1.06-.75-2.5-.67-.56-3.94-8-3.53c-1.8-.05-5.51-8.32-2.94-8.37,6.28-.13,10.86-6.6,19.54,1.93,1.34,1.3,2.5-1.28,4.82,3C496.71,291.33,493.84,297.34,491.36,303.05Z"/><path class="cls-116" d="M496.66,325.86s.25,6.93-7.57,18.24c0,0-1-.13-3.61-1.85s6.55-14.4,6.55-14.4"/><path class="cls-117" d="M493.66,326s-10.94,22.95-14.81,25.93-8.32-1.51-7.71-5.48,10.78-24.6,10.78-24.6"/><path class="cls-118" d="M480.78,349.69,472,343.51,452.49,359.8a6.27,6.27,0,0,1-3,1,7.73,7.73,0,0,0-2.31.21c-1.26.37-3.4,1.06-3.47,1.12s-.27.57.56,1,3.44-.21,3.59.08v0a7.22,7.22,0,0,1-1.09,1.41c-1.74.94-4.17.19-5.18.37-.8.14-.69.79-.51.93a8.88,8.88,0,0,0,1,.55l-.17,0a1.31,1.31,0,0,0-.63.41.25.25,0,0,0,.09.3c.13.1.86.46,1.3.68a1,1,0,0,0-.14.13.2.2,0,0,0,.09.3c4.18,1.77,8.3-.36,8.91-1.22h0a22.37,22.37,0,0,1,2.3-2.32C457,363.41,479.37,353.68,480.78,349.69Z"/><path class="cls-119" d="M489.93,316.28s3.49-.38,6,5.36-2.07,13.17-7.52,20.63c0,0-8.71-3.58-13.35-8C475.1,334.22,480.52,316.22,489.93,316.28Z"/><path class="cls-120" d="M504.92,241.68v-4.77a1,1,0,0,0-1-1h-1.16a.85.85,0,0,1-.82-.66,17.49,17.49,0,0,0-2.18-5.29.85.85,0,0,1,.11-1.05l.81-.81a1,1,0,0,0,0-1.37l-3.37-3.37a1,1,0,0,0-1.37,0l-.81.81a.85.85,0,0,1-1.05.11,17.49,17.49,0,0,0-5.29-2.18.85.85,0,0,1-.66-.82v-1.16a1,1,0,0,0-1-1h-4.77a1,1,0,0,0-1,1v1.16a.85.85,0,0,1-.67.82,17.49,17.49,0,0,0-5.29,2.18.85.85,0,0,1-1.05-.11l-.81-.81a1,1,0,0,0-1.37,0l-3.37,3.37a1,1,0,0,0,0,1.37l.82.81a.87.87,0,0,1,.11,1.05,17.51,17.51,0,0,0-2.19,5.29.85.85,0,0,1-.82.66h-1.16a1,1,0,0,0-1,1v4.77a1,1,0,0,0,1,1h1.16a.83.83,0,0,1,.82.66,17.51,17.51,0,0,0,2.19,5.29.83.83,0,0,1-.11,1l-.82.82a1,1,0,0,0,0,1.37l3.37,3.37a1,1,0,0,0,1.37,0l.82-.82a.83.83,0,0,1,1-.11,17.49,17.49,0,0,0,5.29,2.18.85.85,0,0,1,.67.82v1.17a1,1,0,0,0,1,1h4.77a1,1,0,0,0,1-1v-1.17a.85.85,0,0,1,.66-.82,17.49,17.49,0,0,0,5.29-2.18.85.85,0,0,1,1.05.11l.81.82a1,1,0,0,0,1.37,0l3.37-3.37a1,1,0,0,0,0-1.37l-.81-.82a.83.83,0,0,1-.11-1,17.49,17.49,0,0,0,2.18-5.29.83.83,0,0,1,.82-.66H504A1,1,0,0,0,504.92,241.68Zm-21.24,7.81a10.26,10.26,0,1,1,11.37-10.2A10.29,10.29,0,0,1,483.68,249.49Z"/><path class="cls-4" d="M526,258.55v-3.18a.64.64,0,0,0-.64-.64h-.77a.57.57,0,0,1-.55-.44,11.63,11.63,0,0,0-1.45-3.52.57.57,0,0,1,.07-.7l.55-.54a.65.65,0,0,0,0-.91l-2.25-2.25a.65.65,0,0,0-.91,0l-.54.54a.56.56,0,0,1-.7.08,11.65,11.65,0,0,0-3.52-1.46.57.57,0,0,1-.44-.54v-.77a.65.65,0,0,0-.64-.65H511a.65.65,0,0,0-.64.65V245a.57.57,0,0,1-.44.54,11.65,11.65,0,0,0-3.52,1.46.56.56,0,0,1-.7-.08l-.54-.54a.65.65,0,0,0-.91,0L502,248.62a.65.65,0,0,0,0,.91l.54.54a.56.56,0,0,1,.08.7,11.65,11.65,0,0,0-1.46,3.52.56.56,0,0,1-.54.44h-.77a.65.65,0,0,0-.65.64v3.18a.65.65,0,0,0,.65.64h.77a.58.58,0,0,1,.55.44,11.38,11.38,0,0,0,1.45,3.52.57.57,0,0,1-.07.7l-.55.54a.65.65,0,0,0,0,.91l2.25,2.25a.65.65,0,0,0,.91,0l.54-.55a.57.57,0,0,1,.7-.07,11.63,11.63,0,0,0,3.52,1.45.57.57,0,0,1,.44.55v.77a.65.65,0,0,0,.64.65h3.18a.65.65,0,0,0,.64-.65v-.77a.57.57,0,0,1,.44-.55,11.73,11.73,0,0,0,3.52-1.45.57.57,0,0,1,.7.07l.54.55a.65.65,0,0,0,.91,0l2.25-2.25a.65.65,0,0,0,0-.91l-.55-.54a.57.57,0,0,1-.07-.7,11.63,11.63,0,0,0,1.45-3.52.57.57,0,0,1,.55-.44h.77A.64.64,0,0,0,526,258.55Zm-14.13,5.19a6.82,6.82,0,1,1,7.57-6.78A6.83,6.83,0,0,1,511.82,263.74Z"/><circle class="cls-121" cx="322.58" cy="178.57" r="22.65"/><path class="cls-122" d="M322.58,155.26a23.31,23.31,0,1,0,23.31,23.31A23.33,23.33,0,0,0,322.58,155.26ZM301.27,184h6.43a30.36,30.36,0,0,0,2.44,8.14h-4.86A21.86,21.86,0,0,1,301.27,184Zm42.63-10.79h-6.44A30.11,30.11,0,0,0,335,165h4.86A21.86,21.86,0,0,1,343.9,173.17Zm-7.77,0h-6.86a66.84,66.84,0,0,0-1-8.14h5.35A28.35,28.35,0,0,1,336.13,173.17Zm.43,5.4a33.82,33.82,0,0,1-.25,4.07h-7c.07-1.35.11-2.72.11-4.07s0-2.72-.11-4.07h7A33.82,33.82,0,0,1,336.56,178.57Zm-19.42,4.07c-.06-1.31-.1-2.67-.1-4.07s0-2.77.1-4.07H328c.07,1.3.1,2.66.1,4.07s0,2.76-.1,4.07ZM328,184a61.64,61.64,0,0,1-1.06,8.14h-8.61a61.64,61.64,0,0,1-1.06-8.14Zm-19.34-5.39a36,36,0,0,1,.24-4.07h7c-.07,1.35-.1,2.71-.1,4.07s0,2.72.1,4.07h-7A36,36,0,0,1,308.61,178.57Zm8.61-5.4a61.87,61.87,0,0,1,1.06-8.14h8.61a61.87,61.87,0,0,1,1.06,8.14Zm10.72-9.46a19.58,19.58,0,0,0-2.61-6.7c2.95.93,5.57,3.33,7.54,6.7Zm-1.35,0h-8c1.08-4.48,2.59-7.13,4-7.13S325.51,159.23,326.59,163.71Zm-9.36,0H312.3c2-3.37,4.59-5.77,7.54-6.7A19.38,19.38,0,0,0,317.23,163.71Zm-.29,1.32a63.12,63.12,0,0,0-1,8.14H309a28.35,28.35,0,0,1,2.54-8.14Zm-9.24,8.14h-6.43a21.86,21.86,0,0,1,4-8.14h4.86A30.47,30.47,0,0,0,307.7,173.17Zm-.18,1.33a36.13,36.13,0,0,0,0,8.14H301a22,22,0,0,1,0-8.14ZM309,184h6.86a62.67,62.67,0,0,0,1,8.14h-5.36A28.35,28.35,0,0,1,309,184Zm8.19,9.47a19.46,19.46,0,0,0,2.61,6.7c-2.95-.93-5.58-3.33-7.54-6.7Zm1.35,0h8c-1.08,4.48-2.59,7.12-4,7.12S319.66,197.91,318.58,193.43Zm9.36,0h4.93c-2,3.37-4.59,5.77-7.54,6.7A19.67,19.67,0,0,0,327.94,193.43Zm.29-1.33a66.33,66.33,0,0,0,1-8.14h6.86a28.35,28.35,0,0,1-2.55,8.14Zm9.23-8.14h6.44a21.86,21.86,0,0,1-4,8.14H335A30,30,0,0,0,337.46,184Zm.18-1.32a34.63,34.63,0,0,0,0-8.14h6.55a22,22,0,0,1,0,8.14Zm1.13-18.93h-4.41a18.69,18.69,0,0,0-5.05-6.07A22,22,0,0,1,338.77,163.71Zm-22.91-6.07a18.45,18.45,0,0,0-5.05,6.07H306.4A22,22,0,0,1,315.86,157.64Zm-9.46,35.79h4.41a18.55,18.55,0,0,0,5.05,6.07A22,22,0,0,1,306.4,193.43Zm22.91,6.07a18.8,18.8,0,0,0,5.05-6.07h4.41A22,22,0,0,1,329.31,199.5Z"/><path class="cls-123" d="M642.65,193.4H604.91a3,3,0,0,0-3,3v17.32a3,3,0,0,0,3,3h2v6.8a.68.68,0,0,0,1.17.48l7.29-7.28h27.27a3,3,0,0,0,3-3V196.42A3,3,0,0,0,642.65,193.4Z"/><rect class="cls-124" x="604.68" y="196.08" width="17.99" height="17.99" rx="1.39"/><rect class="cls-125" x="605.92" y="201.91" width="2" height="10.54" rx="0.35"/><rect class="cls-126" x="609.3" y="203.95" width="2" height="8.5" rx="0.35"/><rect class="cls-127" x="612.67" y="202.49" width="2" height="9.96" rx="0.35"/><rect class="cls-128" x="616.05" y="197.91" width="2" height="14.54" rx="0.35"/><rect class="cls-129" x="619.42" y="200.78" width="2" height="11.67" rx="0.35"/><path class="cls-130" d="M642.42,199.42H624.49a.5.5,0,0,1,0-1h17.93a.5.5,0,0,1,0,1Z"/><path class="cls-131" d="M641.59,201.92h-17.1a.5.5,0,0,1-.5-.5.5.5,0,0,1,.5-.5h17.1a.51.51,0,0,1,.5.5A.5.5,0,0,1,641.59,201.92Z"/><path class="cls-132" d="M640.28,204.43H624.49a.5.5,0,0,1-.5-.5.5.5,0,0,1,.5-.5h15.79a.5.5,0,0,1,.5.5A.51.51,0,0,1,640.28,204.43Z"/><path class="cls-133" d="M642.42,206.93H624.49a.5.5,0,0,1-.5-.5.5.5,0,0,1,.5-.5h17.93a.51.51,0,0,1,.5.5A.5.5,0,0,1,642.42,206.93Z"/><path class="cls-134" d="M642.42,209.44H624.49a.5.5,0,0,1-.5-.5.5.5,0,0,1,.5-.5h17.93a.5.5,0,0,1,.5.5A.51.51,0,0,1,642.42,209.44Z"/><path class="cls-135" d="M637.83,211.94H624.49a.5.5,0,0,1-.5-.5.5.5,0,0,1,.5-.5h13.34a.5.5,0,0,1,.5.5A.5.5,0,0,1,637.83,211.94Z"/><path class="cls-136" d="M191.76,235.22a22,22,0,0,1-1.09,6.91,22.38,22.38,0,0,1-38.54,7.33h0a22.37,22.37,0,1,1,39.63-14.23Z"/><path class="cls-137" d="M194,234.53a24.24,24.24,0,0,1-1.2,7.6l-23.37-7.6V210A24.58,24.58,0,0,1,194,234.53Z"/><path class="cls-138" d="M169.4,234.54l-8,26A26.44,26.44,0,0,1,149,252.13h0Z"/><rect class="cls-139" x="149.04" y="385.13" width="10.18" height="46.5"/><rect class="cls-140" x="165.4" y="392.59" width="10.18" height="39.04"/><rect class="cls-141" x="132.82" y="398.95" width="10.18" height="32.68"/><rect class="cls-142" x="181.77" y="378.95" width="10.18" height="52.68"/><path class="cls-143" d="M138,395.05a2.54,2.54,0,0,0,2.53-2.53,2.46,2.46,0,0,0-.27-1.11l12.55-12.1a2.55,2.55,0,0,0,1.36.4,2.51,2.51,0,0,0,1.82-.79l12.05,7.2a2.21,2.21,0,0,0,0,.37,2.54,2.54,0,1,0,4.74-1.22l13.19-15.73a2.44,2.44,0,0,0,1,.2,2.55,2.55,0,1,0-2.13-1.18L171.6,384.23a2.45,2.45,0,0,0-1.1-.27,2.54,2.54,0,0,0-1.83.79l-12-7.2a2.33,2.33,0,0,0,0-.38,2.53,2.53,0,1,0-4.87,1l-12.62,12.17A2.48,2.48,0,0,0,138,390a2.53,2.53,0,1,0,0,5.06Z"/><g class="cls-144"><path class="cls-145" d="M586.83,157v39.08a6,6,0,0,1-6,6H477.12a6,6,0,0,1-6-6V157a6,6,0,0,1,6-6H580.8A6,6,0,0,1,586.83,157Z"/></g><path class="cls-146" d="M583.83,154v39.08a6,6,0,0,1-6,6H474.12a6,6,0,0,1-6-6V154a6,6,0,0,1,6-6H577.8A6,6,0,0,1,583.83,154Z"/><path class="cls-147" d="M581.67,163.2v28.11a5.76,5.76,0,0,1-5.73,5.77H476a5.75,5.75,0,0,1-5.73-5.77V163.2a5.74,5.74,0,0,1,5.73-5.77h100A5.75,5.75,0,0,1,581.67,163.2Z"/><path class="cls-148" d="M576.13,153.24a1.87,1.87,0,1,1-1.87-1.87A1.87,1.87,0,0,1,576.13,153.24Z"/><path class="cls-149" d="M566.06,153.24a1.87,1.87,0,1,1-1.87-1.87A1.87,1.87,0,0,1,566.06,153.24Z"/><path class="cls-150" d="M577.42,165.86H498.73a1.11,1.11,0,1,1,0-2.21h78.69a1.11,1.11,0,1,1,0,2.21Z"/><path class="cls-151" d="M531.45,174H474.72a1.11,1.11,0,1,1,0-2.21h56.73a1.11,1.11,0,1,1,0,2.21Z"/><path class="cls-152" d="M577.67,174H539a1.11,1.11,0,1,1,0-2.21h38.7a1.11,1.11,0,1,1,0,2.21Z"/><path class="cls-153" d="M554.23,182.11H474.72a1.11,1.11,0,0,1,0-2.22h79.51a1.11,1.11,0,0,1,0,2.22Z"/><path class="cls-154" d="M533.8,190.23H474.72a1.11,1.11,0,1,1,0-2.21H533.8a1.11,1.11,0,1,1,0,2.21Z"/><path class="cls-155" d="M563.06,190.23H540.91a1.11,1.11,0,1,1,0-2.21h22.15a1.11,1.11,0,1,1,0,2.21Z"/><path class="cls-156" d="M480.11,169.39a1.08,1.08,0,0,1-.78-.33l-3.46-3.46a1.1,1.1,0,0,1,0-1.56l3.59-3.59A1.1,1.1,0,1,1,481,162l-2.8,2.81,2.67,2.67a1.1,1.1,0,0,1,0,1.57A1.08,1.08,0,0,1,480.11,169.39Z"/><path class="cls-157" d="M489.61,169.39a1.1,1.1,0,0,1-.78-.33,1.12,1.12,0,0,1,0-1.57l2.81-2.8L489,162a1.11,1.11,0,0,1,1.57-1.56l3.46,3.46a1.1,1.1,0,0,1,0,1.56l-3.59,3.59A1.11,1.11,0,0,1,489.61,169.39Z"/><path class="cls-158" d="M486.18,169.87a1.13,1.13,0,0,1-1.06-.76l-2.81-8.65a1.11,1.11,0,1,1,2.11-.69l2.81,8.65a1.11,1.11,0,0,1-.71,1.4A1.33,1.33,0,0,1,486.18,169.87Z"/><g class="cls-159"><rect class="cls-145" x="100.1" y="289.92" width="111" height="40.56" rx="1.68"/><path class="cls-145" d="M143.63,323.69a.25.25,0,0,1-.25-.25V294a.25.25,0,0,1,.25-.25.25.25,0,0,1,.25.25v29.4A.25.25,0,0,1,143.63,323.69Z"/><path class="cls-145" d="M156,323.69a.25.25,0,0,1-.25-.25V294a.25.25,0,0,1,.5,0v29.4A.25.25,0,0,1,156,323.69Z"/><path class="cls-145" d="M168.33,323.69a.25.25,0,0,1-.25-.25V294a.25.25,0,0,1,.5,0v29.4A.25.25,0,0,1,168.33,323.69Z"/><path class="cls-145" d="M180.68,323.69a.25.25,0,0,1-.25-.25V294a.25.25,0,0,1,.25-.25.25.25,0,0,1,.25.25v29.4A.25.25,0,0,1,180.68,323.69Z"/><path class="cls-145" d="M193,323.69a.25.25,0,0,1-.25-.25V294a.25.25,0,1,1,.49,0v29.4A.25.25,0,0,1,193,323.69Z"/><path class="cls-145" d="M205.37,323.69a.25.25,0,0,1-.25-.25V294a.25.25,0,0,1,.25-.25.25.25,0,0,1,.25.25v29.4A.25.25,0,0,1,205.37,323.69Z"/><path class="cls-145" d="M208.29,326.16H141.47a.26.26,0,0,1-.25-.25.25.25,0,0,1,.25-.25h66.82a.25.25,0,0,1,.25.25A.25.25,0,0,1,208.29,326.16Z"/><path class="cls-145" d="M145.34,328.45h-3.41a.51.51,0,0,1-.51-.51h0a.51.51,0,0,1,.51-.51h3.41a.5.5,0,0,1,.5.51h0A.5.5,0,0,1,145.34,328.45Z"/><path class="cls-145" d="M157.68,328.45h-3.4a.51.51,0,0,1-.51-.51h0a.51.51,0,0,1,.51-.51h3.4a.51.51,0,0,1,.51.51h0A.51.51,0,0,1,157.68,328.45Z"/><path class="cls-145" d="M170,328.45h-3.4a.51.51,0,0,1-.51-.51h0a.51.51,0,0,1,.51-.51H170a.51.51,0,0,1,.51.51h0A.51.51,0,0,1,170,328.45Z"/><path class="cls-145" d="M182.38,328.45H179a.51.51,0,0,1-.51-.51h0a.51.51,0,0,1,.51-.51h3.4a.51.51,0,0,1,.51.51h0A.51.51,0,0,1,182.38,328.45Z"/><path class="cls-145" d="M194.73,328.45h-3.41a.51.51,0,0,1-.51-.51h0a.51.51,0,0,1,.51-.51h3.41a.51.51,0,0,1,.51.51h0A.51.51,0,0,1,194.73,328.45Z"/><path class="cls-145" d="M207.08,328.45h-3.41a.51.51,0,0,1-.51-.51h0a.51.51,0,0,1,.51-.51h3.41a.5.5,0,0,1,.5.51h0A.5.5,0,0,1,207.08,328.45Z"/><path class="cls-145" d="M205.37,303a.56.56,0,0,0-.51.4c-1.44.31-2.9,1.88-4.43,3.54-2.17,2.37-4.64,5-7.43,4.37-2.37-.58-3.65-3.57-5-6.74-1.46-3.41-3-6.91-6-7.72a1.36,1.36,0,0,0-2.71.06c-3,1-5.52,5-8.41,9.66C167,312.89,162.48,320,156,320c-6,0-10.94-9.77-11.93-11.9a.6.6,0,0,0,.16-.41.58.58,0,1,0-.61.57c1,2.13,6,12.21,12.38,12.21,6.76,0,11.31-7.26,15.32-13.67,2.71-4.33,5.3-8.45,8.11-9.44a1.34,1.34,0,0,0,2.55-.06c2.77.8,4.21,4.16,5.6,7.43s2.73,6.38,5.33,7c3.06.76,5.62-2,7.89-4.5,1.46-1.59,2.85-3.09,4.13-3.39a.57.57,0,0,0,.46.29.58.58,0,1,0,0-1.16Z"/><path class="cls-145" d="M120.34,307.16a3,3,0,1,0,3,3A3,3,0,0,0,120.34,307.16Z"/><path class="cls-145" d="M130.15,310.2a29.75,29.75,0,0,0,2.6-2.48c2.31-2.56,3.16-4.71,2.38-6.06s-3.07-1.69-6.44-1c-.87.19-1.79.45-2.75.76a1,1,0,0,0-.82-.51c-1-4.73-2.74-7.82-4.78-7.82s-4,3.42-4.93,8.58a27.93,27.93,0,0,0-3.41-1c-3-.65-5.1-.39-6.08.63a1,1,0,0,0-.42-.09,1,1,0,0,0-.12,2.09,9.31,9.31,0,0,0,2.56,4.4,27.06,27.06,0,0,0,2.6,2.47c-4,3.41-6.05,6.69-5,8.55.52.91,1.72,1.34,3.39,1.34a20.64,20.64,0,0,0,6.47-1.35,28.22,28.22,0,0,0,.68,2.87,1,1,0,0,0,.54,1.94l.13,0c1,2.35,2.2,3.75,3.57,3.75,2.14,0,4-3.42,4.93-8.57a30.42,30.42,0,0,0,3.42,1,14.73,14.73,0,0,0,3.07.37c1.69,0,2.86-.45,3.37-1.33.78-1.36-.07-3.51-2.38-6.07A28.29,28.29,0,0,0,130.15,310.2Zm-1.36-9.06a14.45,14.45,0,0,1,3-.36c1.52,0,2.56.37,3,1.11.67,1.15-.18,3.16-2.32,5.53a28.75,28.75,0,0,1-2.62,2.48,42.62,42.62,0,0,0-3.88-2.91c-.09-1.43-.24-2.78-.43-4.05a1.06,1.06,0,0,0,.63-1s0-.06,0-.1A26.87,26.87,0,0,1,128.79,301.14ZM123,314.7c-.88.51-1.75,1-2.61,1.4-.87-.44-1.73-.9-2.6-1.4s-1.7-1-2.51-1.55c-.06-1-.09-1.95-.09-2.95s0-2,.09-2.95c.8-.53,1.64-1.05,2.51-1.56s1.74-1,2.6-1.4c.87.44,1.74.9,2.61,1.4s1.7,1,2.51,1.56c.06,1,.09,1.94.09,2.95s0,2-.09,2.95C124.65,313.68,123.82,314.2,123,314.7Zm2.48-1a42.71,42.71,0,0,1-.53,4.38,43.6,43.6,0,0,1-4-1.72q1.14-.58,2.31-1.26C124,314.65,124.69,314.18,125.43,313.7Zm-5.59,2.65a40.79,40.79,0,0,1-4.06,1.71c-.23-1.35-.41-2.82-.52-4.36.73.48,1.47.95,2.25,1.4S119.07,316,119.84,316.35Zm-5.09-3.52a39.72,39.72,0,0,1-3.49-2.63c1.06-.88,2.21-1.77,3.49-2.64,0,.86-.07,1.74-.07,2.64S114.71,312,114.75,312.83Zm.51-6.14c.11-1.54.29-3,.52-4.37a41.46,41.46,0,0,1,4.07,1.72c-.78.4-1.56.8-2.34,1.25S116,306.22,115.26,306.69ZM125,303c.18,1.16.32,2.38.41,3.66-.73-.47-1.47-.95-2.25-1.4s-1.55-.85-2.33-1.25c1.14-.56,2.26-1,3.36-1.46A1.07,1.07,0,0,0,125,303Zm.92,4.53a40.45,40.45,0,0,1,3.5,2.64,40.41,40.41,0,0,1-3.5,2.63c0-.86.08-1.73.08-2.63S126,308.42,125.93,307.56Zm-5.59-14c1.77,0,3.36,3,4.31,7.42a1.07,1.07,0,0,0-.65,1,1,1,0,0,0,0,.17c-1.2.47-2.43,1-3.69,1.63a39.7,39.7,0,0,0-4.47-1.91C116.79,297,118.47,293.58,120.34,293.58Zm-12.06,13.84a9.08,9.08,0,0,1-2.45-4.15,1,1,0,0,0,.73-1,1.07,1.07,0,0,0-.3-.73,3.82,3.82,0,0,1,2.67-.77,14.46,14.46,0,0,1,3,.36,28.72,28.72,0,0,1,3.43,1,45.18,45.18,0,0,0-.55,4.84,42.8,42.8,0,0,0-3.89,2.91A30,30,0,0,1,108.28,307.42ZM106,318.51c-.93-1.63,1.17-4.77,5-8a42.62,42.62,0,0,0,3.88,2.91,44.79,44.79,0,0,0,.55,4.82C110.64,319.87,106.89,320.12,106,318.51Zm14.39,8.3c-1.16,0-2.25-1.31-3.13-3.46a1,1,0,0,0,.49-.86,1.05,1.05,0,0,0-1.06-1.06l-.08,0a28.87,28.87,0,0,1-.68-2.9,45.45,45.45,0,0,0,4.46-1.94,41.89,41.89,0,0,0,4.48,1.92C123.9,323.44,122.22,326.81,120.34,326.81Zm14.39-8.3c-.66,1.14-2.82,1.42-5.94.75a28.31,28.31,0,0,1-3.43-1,47.68,47.68,0,0,0,.55-4.83,44.59,44.59,0,0,0,3.88-2.92,30.24,30.24,0,0,1,2.62,2.49C134.55,315.35,135.4,317.36,134.73,318.51Z"/></g><rect class="cls-160" x="93.59" y="283.4" width="111" height="40.56" rx="1.68"/><path class="cls-161" d="M137.12,317.18a.25.25,0,0,1-.25-.25V287.52a.25.25,0,0,1,.5,0v29.41A.25.25,0,0,1,137.12,317.18Z"/><path class="cls-162" d="M149.46,317.18a.25.25,0,0,1-.24-.25V287.52a.25.25,0,1,1,.49,0v29.41A.25.25,0,0,1,149.46,317.18Z"/><path class="cls-163" d="M161.81,317.18a.26.26,0,0,1-.25-.25V287.52a.26.26,0,0,1,.25-.25.25.25,0,0,1,.25.25v29.41A.25.25,0,0,1,161.81,317.18Z"/><path class="cls-164" d="M174.16,317.18a.25.25,0,0,1-.25-.25V287.52a.25.25,0,0,1,.5,0v29.41A.25.25,0,0,1,174.16,317.18Z"/><path class="cls-165" d="M186.51,317.18a.25.25,0,0,1-.25-.25V287.52a.25.25,0,0,1,.5,0v29.41A.25.25,0,0,1,186.51,317.18Z"/><path class="cls-166" d="M198.86,317.18a.25.25,0,0,1-.25-.25V287.52a.25.25,0,0,1,.25-.25.26.26,0,0,1,.25.25v29.41A.26.26,0,0,1,198.86,317.18Z"/><path class="cls-167" d="M201.77,319.64H135a.25.25,0,0,1,0-.5h66.81a.25.25,0,0,1,0,.5Z"/><path class="cls-168" d="M138.82,321.93h-3.41a.5.5,0,0,1-.5-.51h0a.5.5,0,0,1,.5-.51h3.41a.51.51,0,0,1,.51.51h0A.51.51,0,0,1,138.82,321.93Z"/><path class="cls-169" d="M151.17,321.93h-3.41a.51.51,0,0,1-.51-.51h0a.51.51,0,0,1,.51-.51h3.41a.51.51,0,0,1,.51.51h0A.51.51,0,0,1,151.17,321.93Z"/><path class="cls-170" d="M163.52,321.93h-3.41a.51.51,0,0,1-.51-.51h0a.51.51,0,0,1,.51-.51h3.41a.5.5,0,0,1,.5.51h0A.5.5,0,0,1,163.52,321.93Z"/><path class="cls-171" d="M175.86,321.93h-3.4a.51.51,0,0,1-.51-.51h0a.51.51,0,0,1,.51-.51h3.4a.51.51,0,0,1,.51.51h0A.51.51,0,0,1,175.86,321.93Z"/><path class="cls-172" d="M188.21,321.93h-3.4a.51.51,0,0,1-.51-.51h0a.51.51,0,0,1,.51-.51h3.4a.51.51,0,0,1,.51.51h0A.51.51,0,0,1,188.21,321.93Z"/><path class="cls-173" d="M200.56,321.93h-3.41a.5.5,0,0,1-.5-.51h0a.5.5,0,0,1,.5-.51h3.41a.51.51,0,0,1,.51.51h0A.51.51,0,0,1,200.56,321.93Z"/><path class="cls-174" d="M198.86,296.5a.54.54,0,0,0-.51.41c-1.45.31-2.9,1.88-4.43,3.54-2.18,2.36-4.65,5-7.44,4.36-2.37-.57-3.65-3.57-5-6.74-1.45-3.4-2.95-6.91-6-7.71a1.36,1.36,0,0,0-2.71.05c-3,1-5.52,5-8.41,9.66-3.95,6.31-8.42,13.45-14.93,13.45-6,0-10.93-9.77-11.93-11.9a.58.58,0,1,0-1-.4.57.57,0,0,0,.54.56c1,2.14,6,12.22,12.38,12.22,6.77,0,11.31-7.27,15.33-13.68,2.71-4.33,5.29-8.44,8.1-9.44a1.36,1.36,0,0,0,1.27.9,1.34,1.34,0,0,0,1.28-.95c2.77.79,4.21,4.15,5.61,7.42s2.72,6.39,5.32,7c3.07.76,5.63-2,7.89-4.5,1.46-1.59,2.85-3.09,4.14-3.39a.53.53,0,0,0,.46.28.58.58,0,1,0,0-1.16Z"/><path class="cls-175" d="M113.83,300.64a3,3,0,1,0,3,3A3,3,0,0,0,113.83,300.64Z"/><path class="cls-176" d="M123.63,303.68a31.27,31.27,0,0,0,2.6-2.47c2.32-2.56,3.16-4.72,2.38-6.06s-3.06-1.7-6.44-1c-.87.19-1.79.45-2.74.76a1,1,0,0,0-.83-.51c-1-4.73-2.74-7.81-4.77-7.81s-4,3.42-4.93,8.57a30.56,30.56,0,0,0-3.42-1c-3-.64-5.1-.39-6.08.63a1,1,0,0,0-.42-.09,1.05,1.05,0,0,0-1,1.06,1,1,0,0,0,.94,1,9.43,9.43,0,0,0,2.55,4.41,31.27,31.27,0,0,0,2.6,2.47c-4,3.4-6,6.69-5,8.54.53.91,1.72,1.34,3.39,1.34a20.64,20.64,0,0,0,6.47-1.35c.2,1,.43,2,.69,2.87a1,1,0,0,0-.52.89,1.06,1.06,0,0,0,1.06,1.06l.12,0c1,2.35,2.21,3.75,3.58,3.75,2.14,0,4-3.41,4.93-8.57a27.93,27.93,0,0,0,3.41,1,14.8,14.8,0,0,0,3.07.37c1.7,0,2.86-.45,3.37-1.34.78-1.35-.06-3.5-2.38-6.06A29.75,29.75,0,0,0,123.63,303.68Zm-1.36-9.06a14.46,14.46,0,0,1,3-.36c1.51,0,2.55.38,3,1.11.66,1.15-.19,3.16-2.33,5.53a27.5,27.5,0,0,1-2.62,2.48,44.55,44.55,0,0,0-3.88-2.91c-.09-1.42-.23-2.78-.43-4.05a1,1,0,0,0,.63-1s0-.06,0-.09A25.2,25.2,0,0,1,122.27,294.62Zm-5.84,13.57c-.87.5-1.74,1-2.61,1.39-.86-.43-1.73-.89-2.6-1.39s-1.7-1-2.51-1.56c-.06-1-.09-1.94-.09-2.95s0-2,.09-2.94c.81-.54,1.64-1.06,2.51-1.57s1.74-1,2.61-1.39c.86.43,1.73.89,2.6,1.39s1.7,1,2.51,1.56c.06,1,.09,1.95.09,2.95s0,2-.09,2.95C118.13,307.16,117.3,307.68,116.43,308.19Zm2.48-1c-.11,1.54-.29,3-.52,4.37a40.19,40.19,0,0,1-4-1.72c.76-.39,1.54-.81,2.32-1.26S118.18,307.66,118.91,307.19Zm-5.59,2.64a43.48,43.48,0,0,1-4.06,1.72,43.14,43.14,0,0,1-.51-4.36c.73.47,1.47.94,2.25,1.39S112.55,309.44,113.32,309.83Zm-5.08-3.51a42.34,42.34,0,0,1-3.49-2.63,39.7,39.7,0,0,1,3.49-2.64c0,.86-.07,1.73-.07,2.63S108.19,305.46,108.24,306.32Zm.51-6.14a40.17,40.17,0,0,1,.52-4.38c1.31.49,2.67,1.05,4.06,1.73-.78.39-1.56.8-2.33,1.25S109.48,299.7,108.75,300.18Zm9.75-3.67c.18,1.16.32,2.38.41,3.66-.73-.47-1.47-.94-2.25-1.39s-1.56-.86-2.34-1.25c1.15-.56,2.27-1,3.37-1.47A1,1,0,0,0,118.5,296.51Zm.92,4.53c1.27.86,2.43,1.75,3.5,2.64-1.07.89-2.23,1.78-3.5,2.64,0-.86.07-1.74.07-2.64S119.46,301.91,119.42,301Zm-5.59-14c1.76,0,3.36,3,4.3,7.43a1.05,1.05,0,0,0-.65,1,1.13,1.13,0,0,0,0,.18c-1.2.47-2.43,1-3.68,1.62a43.88,43.88,0,0,0-4.48-1.91C110.27,290.44,112,287.06,113.83,287.06ZM101.76,300.9a9.25,9.25,0,0,1-2.45-4.14,1.05,1.05,0,0,0,.73-1,1.08,1.08,0,0,0-.3-.74,3.85,3.85,0,0,1,2.68-.77,14.37,14.37,0,0,1,3,.36,26.62,26.62,0,0,1,3.43,1,44.69,44.69,0,0,0-.54,4.84,43,43,0,0,0-3.9,2.9A28.57,28.57,0,0,1,101.76,300.9ZM99.44,312c-.94-1.62,1.17-4.76,5-8a44.51,44.51,0,0,0,3.88,2.9,44.59,44.59,0,0,0,.54,4.82C104.13,313.36,100.37,313.61,99.44,312Zm14.39,8.31c-1.17,0-2.25-1.31-3.13-3.47a1,1,0,0,0,.48-.86,1.06,1.06,0,0,0-1.05-1.06l-.09,0a28,28,0,0,1-.68-2.89,44.43,44.43,0,0,0,4.46-1.94A43.88,43.88,0,0,0,118.3,312C117.38,316.92,115.7,320.3,113.83,320.3ZM128.22,312c-.66,1.15-2.83,1.43-6,.75a28.72,28.72,0,0,1-3.43-1,45.18,45.18,0,0,0,.55-4.84,42.62,42.62,0,0,0,3.88-2.91,27.5,27.5,0,0,1,2.62,2.48C128,308.83,128.88,310.84,128.22,312Z"/><path class="cls-177" d="M700.12,430.4H49.88a1.19,1.19,0,0,0,0,2.38H700.12a1.19,1.19,0,0,0,0-2.38Z"/></g></g></svg>