<svg id="Ñëîé_1" data-name="Ñëîé 1" xmlns="http://www.w3.org/2000/svg" viewBox="0 0 2831.04 2200"><defs><style>.cls-1{fill:#fff;}.cls-2{fill:#322a28;}.cls-3,.cls-36{fill:#e5f0f8;}.cls-4{fill:#40a87b;}.cls-14,.cls-16,.cls-17,.cls-18,.cls-19,.cls-20,.cls-22,.cls-28,.cls-32,.cls-33,.cls-34,.cls-35,.cls-39,.cls-40,.cls-41,.cls-42,.cls-44,.cls-45,.cls-5,.cls-7,.cls-8,.cls-9{fill:none;}.cls-5,.cls-8{stroke:#6adb6a;}.cls-14,.cls-15,.cls-33,.cls-34,.cls-35,.cls-40,.cls-45,.cls-5,.cls-7,.cls-8,.cls-9{stroke-miterlimit:10;}.cls-5,.cls-7{stroke-width:4.78px;}.cls-6{fill:#6adb6a;}.cls-7,.cls-9{stroke:#40a87b;}.cls-8,.cls-9{stroke-width:4.09px;}.cls-10{fill:#0775ef;}.cls-11{fill:#586773;}.cls-12,.cls-15{fill:#bbdbf3;}.cls-13{fill:#f74242;}.cls-14,.cls-15,.cls-16,.cls-17,.cls-19{stroke:#bbdbf3;}.cls-14{stroke-width:3.6px;}.cls-15{stroke-width:3.17px;}.cls-16,.cls-17,.cls-18,.cls-19,.cls-20,.cls-22,.cls-28,.cls-32,.cls-39,.cls-41,.cls-42,.cls-44{stroke-linecap:round;stroke-linejoin:round;}.cls-16,.cls-17,.cls-18,.cls-19{stroke-width:3.36px;}.cls-17{stroke-dasharray:23.07 23.07;}.cls-18,.cls-28,.cls-34,.cls-35,.cls-41,.cls-45{stroke:#fff;}.cls-19{stroke-dasharray:23.49;}.cls-20,.cls-22{stroke:#088cfc;}.cls-20{stroke-width:4.45px;stroke-dasharray:17.82;}.cls-21{fill:#f9e181;}.cls-22{stroke-width:4.71px;stroke-dasharray:18.83;}.cls-23{fill:#e7888b;}.cls-24{fill:#f9ecb8;}.cls-25{fill:#088cfc;}.cls-26{fill:#93acbf;}.cls-27{fill:#98eb98;}.cls-28{stroke-width:4.71px;}.cls-29{fill:#fdae97;}.cls-30{fill:#332b27;}.cls-31{fill:#e89780;}.cls-32{stroke:#e89780;stroke-width:0.59px;}.cls-33,.cls-40{stroke:#332b27;}.cls-33{stroke-width:0.88px;}.cls-34{stroke-width:0.78px;}.cls-35{stroke-width:1.18px;}.cls-36{opacity:0.3;}.cls-37{fill:#d6eaff;}.cls-38{fill:#ea9d85;}.cls-39{stroke:#ea9d85;stroke-width:1.34px;}.cls-40{stroke-width:0.85px;}.cls-41,.cls-42{stroke-width:0.7px;}.cls-42{stroke:#322a28;}.cls-43{fill:#fff1f0;}.cls-44{stroke:#fff1f0;stroke-width:1.06px;}.cls-45{stroke-width:1.53px;}</style></defs><rect class="cls-1" width="2831.04" height="2200"/><path class="cls-2" d="M715.28,314h24.57l16.34,65.63h.29L777.87,314h21l21.25,67.36h.29L837.58,314h22.84L830.49,416.34H810.4L787.85,345.5h-.29L765,416.34H745.63Z"/><path class="cls-2" d="M931.69,404.19a34.58,34.58,0,0,1-13.16,10.27,39.38,39.38,0,0,1-16.48,3.61,44.14,44.14,0,0,1-15.25-2.6A36.52,36.52,0,0,1,874.37,408a35,35,0,0,1-8.32-11.64,39.54,39.54,0,0,1,0-30.36,35,35,0,0,1,8.32-11.64A36.68,36.68,0,0,1,886.8,347a44.14,44.14,0,0,1,15.25-2.6,34.61,34.61,0,0,1,13.66,2.6,28.42,28.42,0,0,1,10.41,7.44A34.11,34.11,0,0,1,932.7,366,47,47,0,0,1,935,381.21V388H884.7a17.19,17.19,0,0,0,5.64,9.91,16,16,0,0,0,10.7,3.68,16.27,16.27,0,0,0,9-2.38,24.37,24.37,0,0,0,6.44-6.15Zm-18.36-30.93a12.57,12.57,0,0,0-3.62-9.4A12.85,12.85,0,0,0,900,360a16.29,16.29,0,0,0-6.36,1.16,15.89,15.89,0,0,0-4.7,3,13,13,0,0,0-3,4.19,13.92,13.92,0,0,0-1.23,5Z"/><path class="cls-2" d="M950.19,307.05h21.68V353.6h.29a20.31,20.31,0,0,1,9.61-7.16,37.47,37.47,0,0,1,12.65-2.09,28.58,28.58,0,0,1,13.45,3.1,31.25,31.25,0,0,1,10,8.32,39.05,39.05,0,0,1,6.36,11.92,44.39,44.39,0,0,1,2.24,14.1,41.77,41.77,0,0,1-2.46,14.6,33.66,33.66,0,0,1-7,11.49,31.6,31.6,0,0,1-10.92,7.52A36.24,36.24,0,0,1,992,418.07a24.4,24.4,0,0,1-7.09-1,30.22,30.22,0,0,1-6.14-2.6,25.84,25.84,0,0,1-4.92-3.54,24,24,0,0,1-3.39-3.83h-.29v9.25H950.19Zm19.95,74.16q0,7.95,4.55,12.87T987.48,399q8.25,0,12.8-4.91t4.55-12.87q0-7.95-4.55-12.87t-12.8-4.91q-8.24,0-12.79,4.91T970.14,381.21Z"/><path class="cls-2" d="M1070.75,389h-35.56V371.67h35.56Z"/><path class="cls-2" d="M1084.77,314h38.17a95.93,95.93,0,0,1,13.37.94,36.63,36.63,0,0,1,12.07,3.76,23.05,23.05,0,0,1,8.67,7.88q3.33,5.06,3.33,13.44,0,8.67-4.85,14.38a26.62,26.62,0,0,1-12.79,8.17v.29a29.14,29.14,0,0,1,9.18,2.82A24.4,24.4,0,0,1,1159,371a22.75,22.75,0,0,1,4.56,7.59,26.64,26.64,0,0,1,1.59,9.25q0,8.1-3.47,13.52a27.22,27.22,0,0,1-9,8.74,39.28,39.28,0,0,1-12.36,4.77,65.84,65.84,0,0,1-13.67,1.45h-41.92Zm22.55,40.91h16.34a22.74,22.74,0,0,0,5.13-.58,14,14,0,0,0,4.55-1.88,9.79,9.79,0,0,0,3.26-3.47,10.47,10.47,0,0,0,1.23-5.2,9.42,9.42,0,0,0-1.38-5.28,9.52,9.52,0,0,0-3.54-3.25,16.9,16.9,0,0,0-4.91-1.66,29.4,29.4,0,0,0-5.35-.51h-15.33Zm0,42.36h20.24a25.33,25.33,0,0,0,5.28-.58,13.9,13.9,0,0,0,4.84-2,11.36,11.36,0,0,0,3.54-3.75,10.84,10.84,0,0,0,1.38-5.64,9.09,9.09,0,0,0-1.81-5.86,11.5,11.5,0,0,0-4.55-3.39,23.12,23.12,0,0,0-5.93-1.59,44,44,0,0,0-5.93-.44h-17.06Z"/><path class="cls-2" d="M1219.79,407.52h-.29a20.4,20.4,0,0,1-9.61,8.1,33.22,33.22,0,0,1-12.65,2.45,32.81,32.81,0,0,1-9.47-1.37,24,24,0,0,1-8-4.12,20,20,0,0,1-5.5-6.79,20.75,20.75,0,0,1-2-9.4,21.62,21.62,0,0,1,2.24-10.27,20.16,20.16,0,0,1,6.07-6.93,30.2,30.2,0,0,1,8.75-4.27,63.61,63.61,0,0,1,10.19-2.24,98.92,98.92,0,0,1,10.55-.87q5.28-.13,9.76-.14a11.27,11.27,0,0,0-4.12-9.18,14.88,14.88,0,0,0-9.76-3.4,21.26,21.26,0,0,0-9.75,2.24,26.48,26.48,0,0,0-7.88,6.15l-11.57-11.86a39.63,39.63,0,0,1,14.17-8.45,50.64,50.64,0,0,1,16.77-2.82q9.54,0,15.68,2.38a22.77,22.77,0,0,1,9.83,7,27.12,27.12,0,0,1,5.14,11.35,74.73,74.73,0,0,1,1.44,15.54v35.71h-20Zm-5.35-22c-1.64,0-3.68.07-6.14.21a31.59,31.59,0,0,0-7.08,1.23,15.83,15.83,0,0,0-5.79,3,7,7,0,0,0-2.38,5.64,6.19,6.19,0,0,0,3.32,5.78,14,14,0,0,0,6.94,1.88,21.76,21.76,0,0,0,6.15-.87,18.38,18.38,0,0,0,5.27-2.46,12,12,0,0,0,3.69-4.05,11.68,11.68,0,0,0,1.37-5.78v-4.62Z"/><path class="cls-2" d="M1293.08,366.75a15.34,15.34,0,0,0-12.57-5.92,11.76,11.76,0,0,0-5.35,1.3,4.59,4.59,0,0,0-2.6,4.48,4,4,0,0,0,2.67,3.83,35.59,35.59,0,0,0,6.79,2.17l8.82,2a33.2,33.2,0,0,1,8.82,3.4,19.77,19.77,0,0,1,6.8,6.29q2.67,4,2.67,10.62a19.74,19.74,0,0,1-3,11.21,22.76,22.76,0,0,1-7.59,7.08,32.75,32.75,0,0,1-10.41,3.76,62.13,62.13,0,0,1-11.42,1.08,55.49,55.49,0,0,1-14.89-2.09,27.82,27.82,0,0,1-12.72-7.45l13.15-14.6a21.9,21.9,0,0,0,6.72,5.71,18.15,18.15,0,0,0,8.6,1.95,20.17,20.17,0,0,0,6.8-1.08,4,4,0,0,0,3-4,4.42,4.42,0,0,0-2.68-4.12,29.75,29.75,0,0,0-6.79-2.31l-8.82-2a36.51,36.51,0,0,1-8.82-3.26,18.33,18.33,0,0,1-6.79-6.14q-2.68-4-2.68-10.63a21.37,21.37,0,0,1,2.53-10.69,22.25,22.25,0,0,1,6.65-7.38,29,29,0,0,1,9.47-4.26,43.18,43.18,0,0,1,10.84-1.37,50.77,50.77,0,0,1,14,2,25.94,25.94,0,0,1,12,7.23Z"/><path class="cls-2" d="M1386.76,404.19a34.58,34.58,0,0,1-13.16,10.27,39.38,39.38,0,0,1-16.48,3.61,44.14,44.14,0,0,1-15.25-2.6,36.62,36.62,0,0,1-12.43-7.44,34.87,34.87,0,0,1-8.31-11.64,39.42,39.42,0,0,1,0-30.36,34.87,34.87,0,0,1,8.31-11.64,36.78,36.78,0,0,1,12.43-7.44,44.14,44.14,0,0,1,15.25-2.6,34.58,34.58,0,0,1,13.66,2.6,28.42,28.42,0,0,1,10.41,7.44,34,34,0,0,1,6.58,11.64,47,47,0,0,1,2.31,15.18V388h-50.3a17.13,17.13,0,0,0,5.63,9.91,16,16,0,0,0,10.7,3.68,16.3,16.3,0,0,0,9-2.38,24.33,24.33,0,0,0,6.43-6.15Zm-18.36-30.93a12.57,12.57,0,0,0-3.62-9.4,12.84,12.84,0,0,0-9.68-3.9,16.29,16.29,0,0,0-6.36,1.16,16,16,0,0,0-4.7,3,13.18,13.18,0,0,0-3,4.19,13.7,13.7,0,0,0-1.22,5Z"/><path class="cls-2" d="M1477,416.34h-20v-9.25h-.28a24.57,24.57,0,0,1-3.4,3.83,25.84,25.84,0,0,1-4.92,3.54,29.91,29.91,0,0,1-6.21,2.6,24.65,24.65,0,0,1-7,1A36.26,36.26,0,0,1,1421,415.4a31.6,31.6,0,0,1-10.92-7.52,33.66,33.66,0,0,1-7-11.49,41.77,41.77,0,0,1-2.46-14.6,44.11,44.11,0,0,1,2.25-14.1,38.62,38.62,0,0,1,6.36-11.92,31.11,31.11,0,0,1,10-8.32,28.56,28.56,0,0,1,13.45-3.1,37.47,37.47,0,0,1,12.65,2.09,20.31,20.31,0,0,1,9.61,7.16h.29V307.05H1477Zm-20-35.13q0-7.95-4.55-12.87t-12.79-4.91q-8.25,0-12.8,4.91t-4.55,12.87q0,7.95,4.55,12.87t12.8,4.91q8.24,0,12.79-4.91T1457,381.21Z"/><path class="cls-2" d="M1539.84,314h38a75.42,75.42,0,0,1,15,1.44,34.36,34.36,0,0,1,12.36,5,25.15,25.15,0,0,1,8.38,9.54q3.12,6,3.11,15.11t-2.89,15a24.71,24.71,0,0,1-7.95,9.69,32.22,32.22,0,0,1-12,5.13,70.41,70.41,0,0,1-15,1.52H1562.4v39.9h-22.56Zm22.56,43.37h15a29.56,29.56,0,0,0,5.86-.58,15.72,15.72,0,0,0,5-1.95,10.45,10.45,0,0,0,3.62-3.76,11.94,11.94,0,0,0,1.37-6,10.18,10.18,0,0,0-1.8-6.29,12.1,12.1,0,0,0-4.63-3.69,20,20,0,0,0-6.29-1.66,64.46,64.46,0,0,0-6.65-.36H1562.4Z"/><path class="cls-2" d="M1628.46,307.05h21.68V416.34h-21.68Z"/><path class="cls-2" d="M1709.85,407.52h-.29a20.42,20.42,0,0,1-9.62,8.1,33.18,33.18,0,0,1-12.65,2.45,32.75,32.75,0,0,1-9.46-1.37,24.06,24.06,0,0,1-8-4.12,20,20,0,0,1-5.49-6.79,20.75,20.75,0,0,1-2-9.4,21.5,21.5,0,0,1,2.24-10.27,20,20,0,0,1,6.07-6.93,30.14,30.14,0,0,1,8.74-4.27,64,64,0,0,1,10.2-2.24,98.49,98.49,0,0,1,10.55-.87q5.28-.13,9.76-.14a11.3,11.3,0,0,0-4.12-9.18,14.9,14.9,0,0,0-9.76-3.4,21.27,21.27,0,0,0-9.76,2.24,26.61,26.61,0,0,0-7.88,6.15l-11.56-11.86a39.67,39.67,0,0,1,14.16-8.45,50.64,50.64,0,0,1,16.77-2.82q9.54,0,15.69,2.38a22.89,22.89,0,0,1,9.83,7,27,27,0,0,1,5.13,11.35,74.69,74.69,0,0,1,1.45,15.54v35.71h-20Zm-5.35-22q-2.46,0-6.15.21a31.69,31.69,0,0,0-7.08,1.23,15.87,15.87,0,0,0-5.78,3,7,7,0,0,0-2.39,5.64,6.2,6.2,0,0,0,3.33,5.78,13.92,13.92,0,0,0,6.94,1.88,21.75,21.75,0,0,0,6.14-.87,18.57,18.57,0,0,0,5.28-2.46,11.82,11.82,0,0,0,3.68-4.05,11.58,11.58,0,0,0,1.38-5.78v-4.62Z"/><path class="cls-2" d="M1791.23,363.43h-19.08v23.42a44.5,44.5,0,0,0,.29,5.27,10.63,10.63,0,0,0,1.3,4.12,6.55,6.55,0,0,0,3.11,2.68,13.68,13.68,0,0,0,5.56.94,37.68,37.68,0,0,0,4.56-.36,7.66,7.66,0,0,0,4.26-1.67V415.9a32.66,32.66,0,0,1-7.52,1.74,69,69,0,0,1-7.66.43,41.79,41.79,0,0,1-10.12-1.15,23,23,0,0,1-8.09-3.69,17.3,17.3,0,0,1-5.42-6.58,22.46,22.46,0,0,1-2-9.83V363.43h-13.88V346.08h13.88V325.26h21.68v20.82h19.08Z"/><path class="cls-2" d="M1809.74,363.43h-14.32V346.08h14.32V333.65a56.11,56.11,0,0,1,1-10.92,22,22,0,0,1,3.9-9,19.13,19.13,0,0,1,8.31-6.14q5.43-2.25,14.24-2.25,3.33,0,6.51.29a43.71,43.71,0,0,1,6.21,1l-1,18.36a24.25,24.25,0,0,0-3.47-1.09,16.4,16.4,0,0,0-3.61-.36q-5.2,0-7.81,2.24c-1.73,1.5-2.6,4.55-2.6,9.18v11.13h16v17.35h-16v52.91h-21.68Z"/><path class="cls-2" d="M1853.1,381.21a36.88,36.88,0,0,1,3-15.18,34.87,34.87,0,0,1,8.31-11.64,36.78,36.78,0,0,1,12.43-7.44,46.05,46.05,0,0,1,30.51,0,36.78,36.78,0,0,1,12.43,7.44,34.87,34.87,0,0,1,8.31,11.64,39.42,39.42,0,0,1,0,30.36,34.87,34.87,0,0,1-8.31,11.64,36.62,36.62,0,0,1-12.43,7.44,46.05,46.05,0,0,1-30.51,0,36.62,36.62,0,0,1-12.43-7.44,34.87,34.87,0,0,1-8.31-11.64A36.88,36.88,0,0,1,1853.1,381.21Zm21.69,0q0,7.95,4.55,12.87t12.8,4.91q8.23,0,12.79-4.91t4.55-12.87q0-7.95-4.55-12.87t-12.79-4.91q-8.25,0-12.8,4.91T1874.79,381.21Z"/><path class="cls-2" d="M1943.89,346.08h21.68v11.28h.29a26.62,26.62,0,0,1,8.24-9.76,20.82,20.82,0,0,1,12-3.25c1.25,0,2.5,0,3.76.14a19,19,0,0,1,3.47.58v19.8a33,33,0,0,0-4.56-1.08,29.57,29.57,0,0,0-4.7-.36,23.16,23.16,0,0,0-9.83,1.73,13,13,0,0,0-5.56,4.85,18.31,18.31,0,0,0-2.53,7.44,71.68,71.68,0,0,0-.58,9.54v29.35h-21.68Z"/><path class="cls-2" d="M2005.32,346.08h20.82v9.54h.29a17.74,17.74,0,0,1,2.89-4.05,21.34,21.34,0,0,1,4.48-3.61,25.49,25.49,0,0,1,5.93-2.6,24.82,24.82,0,0,1,7.23-1,27.5,27.5,0,0,1,13.08,3,19.27,19.27,0,0,1,8.6,9.54q3.77-6.8,9.11-9.68a27.32,27.32,0,0,1,13.15-2.89,26.87,26.87,0,0,1,11.93,2.38,19.48,19.48,0,0,1,7.66,6.51,27.36,27.36,0,0,1,4.05,9.68,55.23,55.23,0,0,1,1.23,11.93v41.49h-21.69V375.43A16.38,16.38,0,0,0,2092,367q-2.1-3.54-7.45-3.54a14.36,14.36,0,0,0-6.29,1.23,10.4,10.4,0,0,0-4,3.39,14,14,0,0,0-2.17,5.06,27.31,27.31,0,0,0-.65,6.08v37.15H2049.7V379.19c0-1.26,0-2.8-.14-4.63a18.46,18.46,0,0,0-1-5.2,10,10,0,0,0-2.82-4.2,8.38,8.38,0,0,0-5.71-1.73,13.33,13.33,0,0,0-6.8,1.52,10.34,10.34,0,0,0-4,4,16.57,16.57,0,0,0-1.81,5.71,49.22,49.22,0,0,0-.43,6.65v35h-21.69Z"/><path class="cls-3" d="M2084.1,2017.11S2734.85,482.87,1540.65,586.73c-511.48,44.48-416,314.33-641.9,566.81-146.42,163.66-428,29.78-533.58,172.79s18.49,550.79,62,690.78Z"/><path class="cls-4" d="M2086.12,2007.64s42.53-169.66,148.56-222,219.18,19.33,190.45,94.71c-24.78,65-126.66-14.93-205.93,16.5s-91.77,110.81-91.77,110.81Z"/><path class="cls-5" d="M2404.63,1835.12s-113.79-64.85-198.21-4.89-111.15,177.41-111.15,177.41"/><line class="cls-5" x1="2386.28" y1="1804.79" x2="2359.8" y2="1816.34"/><line class="cls-5" x1="2348.04" y1="1780.06" x2="2295.31" y2="1804.79"/><line class="cls-5" x1="2268.82" y1="1780.06" x2="2241.38" y2="1812.47"/><line class="cls-5" x1="2216.82" y1="1801.78" x2="2204.48" y2="1831.63"/><line class="cls-5" x1="2373.04" y1="1876.42" x2="2332.4" y2="1809.18"/><line class="cls-5" x1="2301.24" y1="1866.78" x2="2263.97" y2="1806.92"/><line class="cls-5" x1="2237.92" y1="1857.61" x2="2181.88" y2="1850.64"/><line class="cls-5" x1="2172.68" y1="1891.56" x2="2140.56" y2="1902.11"/><path class="cls-6" d="M2049.64,2008.14s-30-568.7,241.62-495.41-211.88,379.78-211.47,495.41Z"/><path class="cls-7" d="M2060.62,2008.14s9.49-297.13,203.11-444"/><line class="cls-7" x1="2178.81" y1="1650.25" x2="2183.65" y2="1547.79"/><line class="cls-7" x1="2330.72" y1="1607.79" x2="2199.85" y2="1624.85"/><line class="cls-7" x1="2279.82" y1="1695.24" x2="2141.45" y2="1711.36"/><line class="cls-7" x1="2210.64" y1="1781.9" x2="2103.76" y2="1797"/><line class="cls-7" x1="2093.5" y1="1700.93" x2="2118" y2="1760.44"/><line class="cls-7" x1="2133.76" y1="1604.33" x2="2154.64" y2="1688.13"/><line class="cls-7" x1="2070.64" y1="1800.29" x2="2090.15" y2="1839.19"/><line class="cls-7" x1="2154.64" y1="1862.23" x2="2078.06" y2="1886.38"/><path class="cls-4" d="M525.33,2007.72s-36.41-145.23-127.16-190-187.62,16.54-163,81.06c21.21,55.64,108.43-12.77,176.28,14.13S490,2007.72,490,2007.72Z"/><path class="cls-8" d="M252.69,1860s97.4-55.51,169.67-4.19,95.14,151.87,95.14,151.87"/><line class="cls-8" x1="268.4" y1="1834.08" x2="291.06" y2="1843.96"/><line class="cls-8" x1="301.13" y1="1812.91" x2="346.27" y2="1834.08"/><line class="cls-8" x1="368.94" y1="1812.91" x2="392.43" y2="1840.65"/><line class="cls-8" x1="413.46" y1="1831.5" x2="424.01" y2="1857.04"/><line class="cls-8" x1="279.73" y1="1895.39" x2="314.52" y2="1837.83"/><line class="cls-8" x1="341.19" y1="1887.14" x2="373.1" y2="1835.89"/><line class="cls-8" x1="395.39" y1="1879.28" x2="443.36" y2="1873.32"/><line class="cls-8" x1="451.24" y1="1908.35" x2="478.73" y2="1917.37"/><path class="cls-6" d="M556.56,2008.14s25.69-486.8-206.83-424.07,181.38,325.09,181,424.07Z"/><path class="cls-9" d="M547.16,2008.14S539,1753.8,373.3,1628"/><line class="cls-9" x1="445.99" y1="1701.79" x2="441.85" y2="1614.08"/><line class="cls-9" x1="315.96" y1="1665.45" x2="427.98" y2="1680.05"/><line class="cls-9" x1="359.52" y1="1740.3" x2="477.97" y2="1754.1"/><line class="cls-9" x1="418.75" y1="1814.48" x2="510.24" y2="1827.41"/><line class="cls-9" x1="519.01" y1="1745.17" x2="498.04" y2="1796.11"/><line class="cls-9" x1="484.55" y1="1662.48" x2="466.68" y2="1734.21"/><line class="cls-9" x1="538.59" y1="1830.22" x2="521.88" y2="1863.52"/><line class="cls-9" x1="466.68" y1="1883.24" x2="532.24" y2="1903.91"/><path class="cls-3" d="M2106.27,587.58V726.37h174.2V587.58Zm165.9,130.49h0l-37.57-90.46-44.16,75-31.3-39-44.54,54.44V595.88h157.58Z"/><circle class="cls-3" cx="2193.37" cy="624.61" r="8.15" transform="translate(-58.42 263.43) rotate(-6.78)"/><rect class="cls-10" x="341.19" y="2006.62" width="2000.15" height="48.69" rx="22.23"/><path class="cls-3" d="M380.93,876H248.1a14.33,14.33,0,0,0-14.33,14.33v76.47A14.34,14.34,0,0,0,248.1,981.1h53.4v17.25H266.36a1.25,1.25,0,0,0-1.25,1.25V1004a1.25,1.25,0,0,0,1.25,1.25h96.32a1.24,1.24,0,0,0,1.24-1.25V999.6a1.24,1.24,0,0,0-1.24-1.25H327.54V981.1h53.39a14.34,14.34,0,0,0,14.34-14.33V890.3A14.33,14.33,0,0,0,380.93,876Z"/><path class="cls-3" d="M2466.62,961.35a33.48,33.48,0,0,0-10.07-4.78,7.74,7.74,0,0,1-15.35-.77,33.09,33.09,0,0,0-10.49,3.72,7.74,7.74,0,0,1-11.41,10.3,33.05,33.05,0,0,0-4.77,10.06,7.73,7.73,0,0,1-.79,15.34,33.61,33.61,0,0,0,3.72,10.51,7.74,7.74,0,0,1,10.31,11.41,33.26,33.26,0,0,0,10.06,4.76,7.73,7.73,0,0,1,15.34.78,33.34,33.34,0,0,0,10.49-3.72,7.74,7.74,0,0,1,11.41-10.3,33.28,33.28,0,0,0,4.77-10.06,7.74,7.74,0,0,1,.79-15.35,33.07,33.07,0,0,0-3.71-10.49,7.73,7.73,0,0,1-10.3-11.41Zm-7.23,16.88a16.44,16.44,0,1,1-23.22-1.19A16.42,16.42,0,0,1,2459.39,978.23Z"/><path class="cls-3" d="M2432.57,1064.1a18.18,18.18,0,1,1-8.21-24.37A18.18,18.18,0,0,1,2432.57,1064.1Zm20.3.57a36.82,36.82,0,0,0,.82-12.3,8.55,8.55,0,0,1-5.44-16.1,37,37,0,0,0-8.09-9.29,8.56,8.56,0,0,1-15.24-7.54,36.77,36.77,0,0,0-12.29-.82,8.56,8.56,0,0,1-16.11,5.43,37.05,37.05,0,0,0-9.28,8.1,8.56,8.56,0,0,1-7.55,15.24,36.51,36.51,0,0,0-.81,12.29,8.55,8.55,0,0,1,5.44,16.1,36.79,36.79,0,0,0,8.09,9.28,8.56,8.56,0,0,1,15.24,7.55,36.75,36.75,0,0,0,12.29.81A8.55,8.55,0,0,1,2436,1088a37,37,0,0,0,9.29-8.09,8.55,8.55,0,0,1,7.54-15.24Z"/><rect class="cls-11" x="1150.83" y="1603.83" width="268.33" height="362.72"/><rect class="cls-11" x="452.7" y="673.91" width="1664.61" height="1083.68" rx="147.72"/><rect class="cls-3" x="798.54" y="438.83" width="972.91" height="1553.83" rx="92.34" transform="translate(2500.75 -69.25) rotate(90)"/><path class="cls-12" d="M2006.52,821.64v50.91H563.46V821.64a37,37,0,0,1,37-37H1969.55A37,37,0,0,1,2006.52,821.64Z"/><path class="cls-1" d="M2006.53,874.65v737.28a37,37,0,0,1-37,37H600.43a37,37,0,0,1-37-37V874.65Z"/><circle class="cls-4" cx="642.29" cy="831.4" r="14.17" transform="translate(-269.27 309.08) rotate(-22.5)"/><circle class="cls-1" cx="682.17" cy="831.4" r="14.17" transform="translate(-388.09 725.88) rotate(-45)"/><circle class="cls-13" cx="722.06" cy="831.4" r="14.17" transform="translate(-376.4 754.09) rotate(-45)"/><rect class="cls-11" x="775.76" y="1935.41" width="1018.48" height="71.16" rx="12.83"/><rect class="cls-12" x="563.46" y="964" width="1443.07" height="87.46"/><rect class="cls-14" x="1425.38" y="886.26" width="466.47" height="59.28"/><rect class="cls-15" x="1773.66" y="886.26" width="118.2" height="59.28"/><path class="cls-1" d="M1812.32,928a19.59,19.59,0,0,0,24.88-5l31.59,17.65,3.06-5.47-31.59-17.65A19.59,19.59,0,1,0,1812.32,928Zm17.07-30.54a15.33,15.33,0,1,1-20.87,5.91A15.39,15.39,0,0,1,1829.39,897.41Z"/><rect class="cls-12" x="601.52" y="889.88" width="155.2" height="52.04"/><rect class="cls-12" x="789.75" y="889.88" width="155.2" height="52.04"/><rect class="cls-1" x="601.52" y="998.14" width="194.57" height="19.19"/><rect class="cls-1" x="905.59" y="998.14" width="194.57" height="19.19"/><rect class="cls-1" x="1209.66" y="998.14" width="194.57" height="19.19"/><rect class="cls-1" x="1513.73" y="998.14" width="194.57" height="19.19"/><line class="cls-16" x1="608.45" y1="1648.91" x2="608.45" y2="1637.16"/><path class="cls-17" d="M608.45,1614.09V1350.14a15.72,15.72,0,0,1,15.73-15.72h645.47a15.72,15.72,0,0,1,15.73,15.72v275.32"/><line class="cls-16" x1="1285.38" y1="1637" x2="1285.38" y2="1648.74"/><circle class="cls-3" cx="946.92" cy="1570.62" r="31.23"/><line class="cls-18" x1="946.92" y1="1553.87" x2="946.92" y2="1587.36"/><line class="cls-18" x1="930.17" y1="1570.62" x2="963.66" y2="1570.62"/><rect class="cls-12" x="608.45" y="1082.3" width="54.76" height="14.93"/><rect class="cls-12" x="670.9" y="1082.3" width="216.3" height="14.93"/><rect class="cls-12" x="895.78" y="1082.3" width="187.34" height="14.93"/><rect class="cls-12" x="1090.81" y="1082.3" width="194.56" height="14.93"/><rect class="cls-12" x="608.45" y="1110.81" width="113.58" height="14.93"/><rect class="cls-12" x="730.85" y="1110.81" width="202.95" height="14.93"/><rect class="cls-12" x="942.61" y="1110.81" width="342.76" height="14.93"/><rect class="cls-12" x="608.45" y="1139.31" width="174.21" height="14.93"/><rect class="cls-12" x="789.9" y="1139.31" width="246.61" height="14.93"/><rect class="cls-12" x="1046.02" y="1139.31" width="239.36" height="14.93"/><rect class="cls-12" x="608.45" y="1167.82" width="213.43" height="14.93"/><rect class="cls-12" x="832.32" y="1167.82" width="213.43" height="14.93"/><rect class="cls-12" x="1055.37" y="1167.82" width="229.63" height="14.93"/><rect class="cls-12" x="608.45" y="1196.33" width="188.09" height="14.93"/><rect class="cls-12" x="804.38" y="1196.33" width="270.44" height="14.93"/><rect class="cls-12" x="1083.12" y="1196.33" width="201.87" height="14.93"/><rect class="cls-12" x="608.45" y="1224.83" width="97.59" height="14.93"/><rect class="cls-12" x="715.17" y="1224.83" width="131.15" height="14.93"/><rect class="cls-12" x="856.35" y="1224.83" width="208.52" height="14.93"/><rect class="cls-12" x="1074.82" y="1224.83" width="208.52" height="14.93"/><rect class="cls-12" x="608.45" y="1253.34" width="219.31" height="14.93"/><rect class="cls-12" x="837.26" y="1253.34" width="174.67" height="14.93"/><rect class="cls-12" x="1022.78" y="1253.34" width="144.8" height="14.93"/><rect class="cls-12" x="1176.63" y="1253.34" width="106.71" height="14.93"/><rect class="cls-12" x="608.45" y="1281.85" width="158.38" height="14.93"/><rect class="cls-19" x="1336.82" y="1082.3" width="624.72" height="304.07" rx="25.79"/><circle class="cls-3" cx="1649.18" cy="1234.34" r="31.23"/><line class="cls-18" x1="1649.18" y1="1217.6" x2="1649.18" y2="1251.08"/><line class="cls-18" x1="1632.43" y1="1234.34" x2="1665.92" y2="1234.34"/><rect class="cls-12" x="1336.82" y="1498.74" width="50.53" height="14.93"/><rect class="cls-12" x="1394.44" y="1498.74" width="199.61" height="14.93"/><rect class="cls-12" x="1601.99" y="1498.74" width="172.89" height="14.93"/><rect class="cls-12" x="1781.97" y="1498.74" width="179.56" height="14.93"/><rect class="cls-12" x="1336.82" y="1527.25" width="104.82" height="14.93"/><rect class="cls-12" x="1449.77" y="1527.25" width="187.3" height="14.93"/><rect class="cls-12" x="1645.21" y="1527.25" width="316.33" height="14.93"/><rect class="cls-12" x="1336.82" y="1555.75" width="160.77" height="14.93"/><rect class="cls-12" x="1504.27" y="1555.75" width="227.59" height="14.93"/><rect class="cls-12" x="1740.63" y="1555.75" width="220.9" height="14.93"/><rect class="cls-12" x="1336.82" y="1584.26" width="196.97" height="14.93"/><rect class="cls-12" x="1543.42" y="1584.26" width="196.97" height="14.93"/><rect class="cls-12" x="1749.26" y="1584.26" width="211.92" height="14.93"/><rect class="cls-12" x="1336.82" y="1612.77" width="173.58" height="14.93"/><rect class="cls-12" x="1517.63" y="1612.77" width="249.59" height="14.93"/><rect class="cls-12" x="1774.88" y="1612.77" width="186.31" height="14.93"/><rect class="cls-12" x="1336.82" y="1415.45" width="146.16" height="23.08"/><rect class="cls-12" x="1499.04" y="1415.45" width="169.9" height="23.08"/><rect class="cls-12" x="1336.82" y="1449.83" width="178.73" height="23.08"/><rect class="cls-12" x="1530.03" y="1449.83" width="244.85" height="23.08"/><path class="cls-20" d="M574.12,1220.58H929.94a11.5,11.5,0,0,1,11.3,11.69v281.21"/><rect class="cls-21" x="210.2" y="1023.04" width="330.25" height="414.47" transform="translate(1605.6 854.95) rotate(90)"/><rect class="cls-1" x="187.84" y="1084.91" width="374.95" height="290.73" transform="translate(750.64 2460.55) rotate(180)"/><polygon class="cls-21" points="562.8 1375.64 456.79 1246.09 382.33 1338.91 277.26 1160.4 187.84 1375.64 562.8 1375.64"/><circle class="cls-21" cx="375.32" cy="1153.26" r="19.38"/><path class="cls-22" d="M1800,1116.3h480.49a13.87,13.87,0,0,1,13.86,13.86v66.73"/><rect class="cls-23" x="2601.89" y="1186.58" width="61.06" height="20.6" transform="translate(5264.85 2393.77) rotate(180)"/><rect class="cls-23" x="2352.12" y="1186.58" width="241.2" height="20.6" transform="translate(4945.44 2393.77) rotate(180)"/><rect class="cls-23" x="2133.63" y="1186.58" width="208.91" height="20.6" transform="translate(4476.17 2393.77) rotate(180)"/><rect class="cls-23" x="1908.09" y="1186.58" width="216.97" height="20.6" transform="translate(4033.14 2393.77) rotate(180)"/><rect class="cls-23" x="2536.3" y="1225.91" width="126.66" height="20.6" transform="translate(5199.25 2472.43) rotate(180)"/><rect class="cls-23" x="2300.15" y="1225.91" width="226.32" height="20.6" transform="translate(4826.62 2472.43) rotate(180)"/><rect class="cls-23" x="1908.09" y="1225.91" width="382.23" height="20.6" transform="translate(4198.41 2472.43) rotate(180)"/><rect class="cls-23" x="2468.69" y="1265.24" width="194.27" height="20.6" transform="translate(5131.64 2551.09) rotate(180)"/><rect class="cls-23" x="2185.61" y="1265.24" width="275.01" height="20.6" transform="translate(4646.22 2551.09) rotate(180)"/><rect class="cls-23" x="1908.09" y="1265.24" width="266.92" height="20.6" transform="translate(4083.1 2551.09) rotate(180)"/><rect class="cls-23" x="2424.95" y="1304.57" width="238" height="20.6" transform="translate(5087.91 2629.74) rotate(180)"/><rect class="cls-23" x="2175.3" y="1304.57" width="238" height="20.6" transform="translate(4588.61 2629.74) rotate(180)"/><rect class="cls-23" x="1908.52" y="1304.57" width="256.07" height="20.6" transform="translate(4073.1 2629.74) rotate(180)"/><rect class="cls-23" x="2453.21" y="1343.9" width="209.75" height="20.6" transform="translate(5116.16 2708.4) rotate(180)"/><rect class="cls-23" x="2142.88" y="1343.9" width="301.58" height="20.6" transform="translate(4587.35 2708.4) rotate(180)"/><rect class="cls-23" x="1908.52" y="1343.9" width="225.12" height="20.6" transform="translate(4042.15 2708.4) rotate(180)"/><rect class="cls-23" x="2554.13" y="1383.23" width="108.83" height="20.6" transform="translate(5217.08 2787.06) rotate(180)"/><rect class="cls-23" x="2397.7" y="1383.23" width="146.25" height="20.6" transform="translate(4941.66 2787.06) rotate(180)"/><rect class="cls-23" x="2153.99" y="1383.23" width="232.54" height="20.6" transform="translate(4540.51 2787.06) rotate(180)"/><rect class="cls-23" x="1910.35" y="1383.23" width="232.53" height="20.6" transform="translate(4053.23 2787.06) rotate(180)"/><rect class="cls-23" x="2418.39" y="1422.56" width="244.56" height="20.6" transform="translate(5081.35 2865.72) rotate(180)"/><rect class="cls-23" x="2213.02" y="1422.56" width="194.78" height="20.6" transform="translate(4620.83 2865.72) rotate(180)"/><rect class="cls-23" x="2039.44" y="1422.56" width="161.48" height="20.6" transform="translate(4240.37 2865.72) rotate(180)"/><rect class="cls-23" x="1910.35" y="1422.56" width="119" height="20.6" transform="translate(3939.7 2865.72) rotate(180)"/><rect class="cls-23" x="2486.34" y="1461.89" width="176.61" height="20.6" transform="translate(5149.3 2944.37) rotate(180)"/><rect class="cls-21" x="1600.55" y="1714.02" width="234.99" height="305.52" transform="translate(3584.83 148.73) rotate(90)"/><polygon class="cls-1" points="1785.95 1863.27 1671.06 1796.94 1671.06 1929.6 1785.95 1863.27"/><rect class="cls-24" x="1565.29" y="1971.49" width="305.52" height="12.79"/><rect class="cls-13" x="1565.29" y="1971.49" width="149.97" height="12.79"/><path class="cls-1" d="M1726.16,1984.28h-19a6.42,6.42,0,0,1-6.4-6.4h0a6.42,6.42,0,0,1,6.4-6.39h19a6.41,6.41,0,0,1,6.39,6.39h0A6.41,6.41,0,0,1,1726.16,1984.28Z"/><rect class="cls-25" x="1974.87" y="773.23" width="342.56" height="235.91" rx="17.38"/><path class="cls-1" d="M1993.19,912.18V895l99.17-53.67v26.24l-66.24,36,66.24,36v26.24Z"/><path class="cls-1" d="M2122.53,987.31l-16.26-7.15,61.14-185.1,16.27,7.63Z"/><path class="cls-1" d="M2299.11,895v17.18l-99.17,53.67V939.61l66.24-36-66.24-36V841.33Z"/><rect class="cls-25" x="235.97" y="624.92" width="276.43" height="170.13" rx="13.26"/><path class="cls-1" d="M334.13,688.22a24.4,24.4,0,0,0-8.74-6.48,23.61,23.61,0,0,0-8.51-1.62,28.3,28.3,0,0,0-11.52,2.26,26.24,26.24,0,0,0-8.85,6.25,28.21,28.21,0,0,0-5.74,9.32,32,32,0,0,0-2,11.46,35.3,35.3,0,0,0,2,12.16,28.53,28.53,0,0,0,5.74,9.61,26.53,26.53,0,0,0,8.85,6.36,27.67,27.67,0,0,0,11.52,2.32,21.09,21.09,0,0,0,9.67-2.38,26.43,26.43,0,0,0,8.74-7.58l12,8.57a32.73,32.73,0,0,1-13.55,11.11,42.08,42.08,0,0,1-17,3.47A48.06,48.06,0,0,1,299.34,750a39,39,0,0,1-22.63-22.17,45.54,45.54,0,0,1-3.24-17.48,47.49,47.49,0,0,1,3.24-17.89,40.15,40.15,0,0,1,9-13.72A39.24,39.24,0,0,1,299.34,670a47.85,47.85,0,0,1,17.43-3.07,40.11,40.11,0,0,1,15.45,3,36.11,36.11,0,0,1,13.26,10Z"/><path class="cls-1" d="M397.34,686.6a13.38,13.38,0,0,0-6.19-4.92,21.69,21.69,0,0,0-8.16-1.56,20.46,20.46,0,0,0-4.92.58,13.23,13.23,0,0,0-4.29,1.85,9.81,9.81,0,0,0-3.07,3.3,9.53,9.53,0,0,0-1.15,4.8,7.5,7.5,0,0,0,2.89,6.37,28.28,28.28,0,0,0,7.18,3.82q4.28,1.62,9.38,3.13a37.78,37.78,0,0,1,9.37,4.17,23.12,23.12,0,0,1,7.18,7.06q2.9,4.39,2.9,11.69A25.72,25.72,0,0,1,406,738.41a23.67,23.67,0,0,1-6.54,8.16,28.33,28.33,0,0,1-9.56,4.87,40,40,0,0,1-11.46,1.61,43,43,0,0,1-14.7-2.54,28.32,28.32,0,0,1-12.16-8.57l11-10.65a18.42,18.42,0,0,0,7,6.31,19.66,19.66,0,0,0,9.21,2.26,19,19,0,0,0,5.09-.7,15.73,15.73,0,0,0,4.64-2.08,11,11,0,0,0,3.35-3.53,9.44,9.44,0,0,0,1.27-4.92,8.57,8.57,0,0,0-2.89-7,25.57,25.57,0,0,0-7.18-4.11q-4.28-1.68-9.38-3.18a39.57,39.57,0,0,1-9.37-4.11,22.76,22.76,0,0,1-7.18-6.95q-2.9-4.33-2.9-11.63a22,22,0,0,1,2.61-11,23.85,23.85,0,0,1,6.83-7.7,29.67,29.67,0,0,1,9.67-4.57,41.58,41.58,0,0,1,11.11-1.51,40.58,40.58,0,0,1,12.56,2A29,29,0,0,1,408,675.37Z"/><path class="cls-1" d="M463.79,686.6a13.38,13.38,0,0,0-6.19-4.92,21.66,21.66,0,0,0-8.16-1.56,20.46,20.46,0,0,0-4.92.58,13.17,13.17,0,0,0-4.28,1.85,9.62,9.62,0,0,0-3.07,3.3,9.43,9.43,0,0,0-1.16,4.8A7.5,7.5,0,0,0,438.9,697a28.45,28.45,0,0,0,7.18,3.82q4.29,1.62,9.38,3.13a38,38,0,0,1,9.38,4.17A23.2,23.2,0,0,1,472,715.2q2.89,4.39,2.9,11.69a25.72,25.72,0,0,1-2.43,11.52,23.45,23.45,0,0,1-6.54,8.16,28.37,28.37,0,0,1-9.55,4.87,40,40,0,0,1-11.46,1.61,43,43,0,0,1-14.71-2.54,28.32,28.32,0,0,1-12.16-8.57l11-10.65a18.37,18.37,0,0,0,7,6.31,19.59,19.59,0,0,0,9.2,2.26,19.06,19.06,0,0,0,5.1-.7,15.67,15.67,0,0,0,4.63-2.08,10.87,10.87,0,0,0,3.35-3.53,9.45,9.45,0,0,0,1.28-4.92,8.57,8.57,0,0,0-2.9-7,25.57,25.57,0,0,0-7.18-4.11q-4.28-1.68-9.37-3.18a39.47,39.47,0,0,1-9.38-4.11,22.76,22.76,0,0,1-7.18-6.95q-2.89-4.33-2.89-11.63a22.15,22.15,0,0,1,2.6-11,23.85,23.85,0,0,1,6.83-7.7,29.67,29.67,0,0,1,9.67-4.57A41.65,41.65,0,0,1,451,666.92a40.62,40.62,0,0,1,12.56,2,29.16,29.16,0,0,1,10.94,6.48Z"/><rect class="cls-21" x="815.33" y="580.79" width="321.69" height="152.37" rx="13.54"/><path class="cls-1" d="M842,621.36h12.68v28.37h33.29V621.36h12.69v71.23H887.94V661.2H854.65v31.39H842Z"/><path class="cls-1" d="M931.11,632.83H909.27V621.36h56.34v11.47H943.78v59.76H931.11Z"/><path class="cls-1" d="M974.57,621.36h19.32l19,49.9,19.21-49.9h19.12v71.23h-12.07V633.43h-.2l-21.63,59.16h-8.85l-21.63-59.16h-.21v59.16H974.57Z"/><path class="cls-1" d="M1067.43,621.36h12.67v59.76h30.29v11.47h-43Z"/><path class="cls-10" d="M1502.7,1305.77H866.31c-7.53,0-13.64,10-13.64,22.33v511.8h663.67V1328.1C1516.34,1315.77,1510.23,1305.77,1502.7,1305.77Z"/><rect class="cls-26" x="861.54" y="1355.97" width="645.93" height="475.71"/><path class="cls-27" d="M889.34,1404.63v-5L918.18,1384v7.64l-19.26,10.47,19.26,10.48v7.63Z"/><path class="cls-27" d="M1451.37,1819.34v-7.63l19.27-10.48-19.27-10.48v-7.63l28.85,15.61v5Z"/><rect class="cls-27" x="928.88" y="1396.24" width="114.71" height="11.79"/><rect class="cls-27" x="889.34" y="1441.78" width="114.71" height="11.79"/><rect class="cls-27" x="913.78" y="1473.51" width="114.71" height="11.79"/><rect class="cls-27" x="913.78" y="1560.83" width="114.71" height="11.79"/><rect class="cls-27" x="913.78" y="1587.84" width="114.71" height="11.79"/><rect class="cls-27" x="953.19" y="1503.72" width="345.95" height="11.79"/><rect class="cls-27" x="953.19" y="1616.54" width="462.16" height="11.79"/><rect class="cls-27" x="953.19" y="1706.89" width="462.16" height="11.79"/><rect class="cls-27" x="996.66" y="1795.34" width="442.77" height="11.79"/><rect class="cls-27" x="953.19" y="1737.59" width="98.99" height="11.79"/><rect class="cls-27" x="953.19" y="1766.79" width="98.99" height="11.79"/><rect class="cls-27" x="953.19" y="1645.38" width="462.16" height="11.79"/><rect class="cls-27" x="953.19" y="1674.22" width="250.05" height="11.79"/><rect class="cls-27" x="953.19" y="1530.88" width="106.08" height="11.79"/><line class="cls-28" x1="1461.47" y1="1346.19" x2="1490.83" y2="1316.83"/><line class="cls-28" x1="1490.83" y1="1346.19" x2="1461.47" y2="1316.83"/><path class="cls-13" d="M834.23,1531.37h0a24.94,24.94,0,0,1-33.69-10.11l-48.75-90.57a25,25,0,0,1,10.12-33.7h0a25,25,0,0,1,33.7,10.12l48.74,90.57A25,25,0,0,1,834.23,1531.37Z"/><path class="cls-29" d="M801.33,1524c-7.53-11.5-5.4-26.35,4.75-33l95.12-45.69a73.57,73.57,0,0,0,8.33-7.41c5.45-5.86,22.12-20,24.15-17.64s-7.43,14.46-5.75,14.77,10.68-6.89,14.27-10.27,10.13-11.86,13-11.35,3.19,4.74,3.19,4.74,2.09-3.54,4-1.8,0,8,0,8,1-2.09,2.65.36-4.4,10.86-4.4,10.86a1.86,1.86,0,0,1,2.77.9c1,2-8.2,12.19-16.9,17.14-7.77,4.41-27.39,12.86-31.52,14.62l-81.54,64.54C823.34,1539.42,808.87,1535.46,801.33,1524Z"/><path class="cls-2" d="M709.9,1320.34s-12.79,9.62-9.7,29.05,4.81,29.93-7.48,31.12-37.05-5.8-38.8,10.7,10,27.3-7.27,30.59-19.34,25.64-19.34,25.64,62.48,38.08,120.81,1.42-4.75-60.43-4.75-60.43Z"/><path class="cls-10" d="M723.45,1561.51c-16.29,21.32-22.42,65.54-12,113.16s13.9,78.94,13.9,78.94a40.22,40.22,0,1,0,79.84-9.8l-16.56-182.3Z"/><path class="cls-3" d="M719.86,1386.67l-43.54,19.72S686,1518.47,687,1530.73s-2.75,30.78-2.75,30.78H788.59s-1.25-60,5.75-76.82c4.75-11.35,8-18.26,5.26-31.27s-22.89-36-19.64-58.53l-22.71-7.28Z"/><path class="cls-13" d="M665,1553.8h0a24.94,24.94,0,0,1-19.91-29l18.81-101.11a25,25,0,0,1,29-19.91h0a24.94,24.94,0,0,1,19.91,29L694,1533.89A25,25,0,0,1,665,1553.8Z"/><path class="cls-30" d="M764.61,1320.69s6.5-14.33-7.56-19.3Z"/><path class="cls-29" d="M719.68,1386.67l0,0c.46.82,8.36,14.12,23.31,13,13.22-1,14.21-12.11,14.21-12.11V1337H725.06Z"/><polygon class="cls-31" points="757.23 1381.84 734.78 1357.43 757.25 1365.87 757.23 1381.84"/><path class="cls-29" d="M735.49,1360.68c10.24,6.6,22.61,7.08,30.27,2.35s6.89-16.24,5-23.63l0-.06c-.4-1.53-1-3.67-1.62-6.11-2.48-9.54-6.14-23.68-6.14-23.68-1.56-7.45-22.05-24.89-42.92-4S725.24,1354.09,735.49,1360.68Z"/><path class="cls-2" d="M762.38,1306.54s-.62,8.84-13.24,14.26-24.74,14-23.78,27.12-3.8,20.31-3.8,20.31-1.2-16.35-8.87-30.46c-3-5.47-5.32-16.87.35-26.38C722,1296.37,744,1285.55,762.38,1306.54Z"/><path class="cls-29" d="M727.59,1345.19c2.51,4,3.16,6.88,0,8.85a8.15,8.15,0,0,1-10.91-2.78c-2.51-4-2-8.92,1.2-10.89S725.08,1341.15,727.59,1345.19Z"/><path class="cls-32" d="M720.5,1347.85a5.8,5.8,0,0,1,4.86.07c-1.61-4.57-7.08-3-7.08-3"/><path class="cls-30" d="M746.5,1333.89c.42,1.79,1.7,3,2.86,2.75s1.75-2,1.33-3.74-1.7-3-2.86-2.74S746.07,1332.1,746.5,1333.89Z"/><path class="cls-30" d="M761.46,1328.9c.42,1.78,1.7,3,2.86,2.74s1.75-1.94,1.33-3.73-1.7-3-2.86-2.75S761,1327.11,761.46,1328.9Z"/><path class="cls-10" d="M818.57,1917.92H736.66l-12-164.59-.31-4.76a40.1,40.1,0,0,1,41.35-40.1,40.54,40.54,0,0,1,38.89,37.77Z"/><path class="cls-33" d="M741.57,1331.26s2.54-5.31,7.11-4.68"/><path class="cls-33" d="M760.39,1323s2.49-1.1,5.94,1.07"/><path class="cls-25" d="M715.52,1917.92H627.39l17.33-171.42.06-.74c1.45-20.84,19.08-37.31,40.59-37.31,22.48,0,40.67,18,40.67,40.13a33.2,33.2,0,0,1-.19,3.64Z"/><path class="cls-33" d="M756.11,1330.43s2.3,8.82,7.76,8.67a11.27,11.27,0,0,1-3.23,3"/><path class="cls-25" d="M684.25,1561.51c-20.67,17.11-34.77,53.63-35.37,102.38s-4.22,80-4.22,80a40.22,40.22,0,0,0,80,8.41l31.21-190.83Z"/><path class="cls-13" d="M716.69,1388.11s25.54,34.05,30.45,70-11,75.91-15.23,114.28-25.61,196.49-25.61,196.49h-71s-3.55-105.5,9.17-148.55,31.88-213.93,31.88-213.93Z"/><path class="cls-33" d="M763.26,1349.29s-5.2,3.8-10.87-1.6"/><path class="cls-31" d="M738.66,1341.69c-.13,1.91,2.8,3.67,6.55,3.92s6.89-1.09,7-3-2.8-3.66-6.55-3.91S738.79,1339.78,738.66,1341.69Z"/><path class="cls-31" d="M766.77,1338.28c.57,1,2.09,1.39,3.93,1.06-.4-1.53-1-3.67-1.62-6.11C767,1335,766,1337,766.77,1338.28Z"/><path class="cls-29" d="M731.89,1692.24c2.12-1.53-.87-4.36-.87-4.36s4.21.6,5.34-2.05-5.7-10.9-8.19-15.15-7.54-14.63-6.85-16.2,10.32,10.32,13.12,8.88-7.33-20.85-11.84-27.46a75,75,0,0,1-5.37-9.77L693.8,1523.24c-4.23-11.37-18.24-16.75-31.12-12s-20,18-15.73,29.4l44.82,93.83c.81,4.42,4.68,25.42,7.26,34,2.9,9.58,10.75,20.83,13,20.28a1.85,1.85,0,0,0,1.49-2.5s6.85,7.8,9.61,6.71.94-2.51.94-2.51S729.76,1693.76,731.89,1692.24Z"/><ellipse class="cls-2" cx="707.03" cy="1307.61" rx="20.74" ry="13.87" transform="translate(-765.87 1106.81) rotate(-53.84)"/><circle class="cls-34" cx="726.04" cy="1354.76" r="3.06"/><polygon class="cls-29" points="713.94 2006.62 640.01 2006.62 640.35 1999.47 641.47 1976.89 641.06 1917.92 694.63 1917.92 680.98 1976.89 713.94 2006.62"/><polygon class="cls-29" points="839.5 2006.62 761.46 2006.62 761.34 1999.47 759.88 1976.89 753.71 1917.92 807.92 1917.92 806.54 1976.89 831.58 1999.47 839.5 2006.62"/><path class="cls-2" d="M640,2006.62h73.94a30.92,30.92,0,0,0-1.61-8.3,31.52,31.52,0,0,0-29.85-21.43h-41l-1.11,21.43,0,1.15Z"/><path class="cls-2" d="M759.87,1976.89l1.25,21.43.21,1.15.14,7.15h78l-.33-2a31.84,31.84,0,0,0-1.68-6.33,32.43,32.43,0,0,0-9.54-13.53,33,33,0,0,0-21.43-7.9Z"/><line class="cls-34" x1="683.56" y1="1985.66" x2="696.91" y2="1985.66"/><line class="cls-34" x1="687.8" y1="1990.84" x2="701.15" y2="1990.84"/><line class="cls-34" x1="811.6" y1="1985.66" x2="824.96" y2="1985.66"/><line class="cls-34" x1="815.85" y1="1990.84" x2="829.2" y2="1990.84"/><circle class="cls-1" cx="655.83" cy="1989.11" r="5.65"/><circle class="cls-1" cx="781.21" cy="1989.11" r="5.65"/><path class="cls-13" d="M762.38,1389.26s11.21,27.44,13,66.25,18.47,313.36,18.47,313.36h34s-37.61-241.56-32.73-266.23,14.67-39.09,10.33-54.33S780,1394.89,780,1394.89Z"/><path class="cls-35" d="M793.05,1488.58s7.65-16.74,7.42-29.33-8.85-23.56-8.85-23.56"/><path class="cls-1" d="M761.12,1998.32l.35,8.3h78l-.33-2a31.84,31.84,0,0,0-1.68-6.33Z"/><path class="cls-1" d="M640,2006.62h73.94a30.92,30.92,0,0,0-1.61-8.3h-72l0,1.15Z"/><polygon class="cls-31" points="690.65 1935.13 641.09 1921.58 641.06 1917.92 694.63 1917.92 690.65 1935.13"/><polygon class="cls-31" points="807.52 1935.13 753.71 1922.62 753.71 1917.92 807.92 1917.92 807.52 1935.13"/><path class="cls-13" d="M900.7,1442.14,924,1482.06s-68.92,66.68-103.48,55.37-25.64-46.32-9.21-54.28S900.7,1442.14,900.7,1442.14Z"/><path class="cls-13" d="M723,1622.81,684.32,1637s-39.57-79-39.47-101,11.76-24.15,20.7-26.47,24.74-.44,29.32,12.24S723,1622.81,723,1622.81Z"/><polyline class="cls-35" points="712 1461.16 699.22 1536 720.09 1611.98"/><line class="cls-35" x1="667.46" y1="1601.31" x2="654.49" y2="1570.53"/><polygon class="cls-29" points="1691.26 1171.6 1742.49 1170.73 1739.81 1116.93 1738.53 1091.21 1738.45 1089.93 1698.37 1073.08 1697.06 1091.26 1696.09 1104.51 1691.26 1171.6"/><path class="cls-25" d="M1791.45,1338.12,1813,1516.46a41,41,0,0,1-48.43,46.41c-22.26-4.33-30.79-21.52-34.79-47.09-7.67-49.09-34.49-196.35-34.49-196.35Z"/><polygon class="cls-25" points="1651.76 1329.14 1730.9 1334.45 1730.5 1422.13 1721.11 1436.02 1712.4 1520.55 1632.29 1514.14 1651.76 1329.14"/><path class="cls-13" d="M1856.55,1289.32l-.27.18a25.84,25.84,0,0,1-35.74-7.18l-64-96.19a25.85,25.85,0,0,1,7.18-35.75l.27-.18a25.85,25.85,0,0,1,35.75,7.18l64,96.2A25.85,25.85,0,0,1,1856.55,1289.32Z"/><polygon class="cls-31" points="1515.49 1166.9 1536.58 1195.12 1564.04 1178.41 1541.77 1149.12 1510.58 1152.06 1515.49 1166.9"/><path class="cls-13" d="M1614.94,1294.58c-12.79,7.44-28.71,4.28-35.24-7l-32.33-59.08-11.4-21L1524,1185.73l19.85-13.72,14.09-9.73,1.36-1,14.48,21.49,13.3,19.68,39.14,58C1632.78,1271.76,1627.73,1287.14,1614.94,1294.58Z"/><path class="cls-29" d="M1716.21,1149.1c-18.8.42-26.8-8.93-29.22-12.6l7-3.17,46.49-2.34,5.58,1.79C1743.73,1137.16,1735.41,1148.68,1716.21,1149.1Z"/><path class="cls-13" d="M1649.5,1266.06l-1.11,76.87h144.7l-1.71-193.81-49.66-17.94c-.56,1-1.16,2.09-1.9,3.2l-.19.23c-2.69,3.43-7.83,6.68-22.25,7-12,.28-17.9-1.39-21.24-3.57l0,0a12.67,12.67,0,0,1-3.71-4l-46.88,10.34,3.15,97.84Z"/><path class="cls-25" d="M1828,1697.48l-74.44,0-22.44-173.23a41.08,41.08,0,1,1,81.7-8.6,39,39,0,0,1,.17,5.81l13,152,2,24Z"/><path class="cls-13" d="M1589,1295.71h0a26.26,26.26,0,0,0,35.22-11.43l52.55-103.11a26.26,26.26,0,0,0-11.43-35.22h0a26.26,26.26,0,0,0-35.22,11.43l-52.56,103.11A26.26,26.26,0,0,0,1589,1295.71Z"/><path class="cls-26" d="M1490.27,1109.51c75-95.24,58.65-233.84-36.58-308.94s-233.84-58.65-308.94,36.58S1086,1071,1181.33,1146.09,1415.17,1204.79,1490.27,1109.51Zm-295.77,19.88c-86.18-67.94-101-192.94-33-279.07s192.83-101,279-33.11,101,192.89,33.1,279.07S1280.74,1197.33,1194.5,1129.39Z"/><path class="cls-11" d="M1473.57,1096.28c67.94-86.18,53.13-211.07-33.1-279.07s-211.08-53.07-279,33.11-53.13,211.13,33,279.07S1405.63,1182.46,1473.57,1096.28Zm-272.39,24.6c-81.47-64.23-95.46-182.4-31.22-263.88s182.34-95.46,263.83-31.28,95.51,182.4,31.28,263.88S1282.72,1185.12,1201.18,1120.88Z"/><path class="cls-36" d="M1465.07,1089.6c64.23-81.48,50.24-199.59-31.28-263.88S1234.19,775.52,1170,857s-50.25,199.65,31.22,263.88S1400.83,1171.08,1465.07,1089.6Z"/><polygon class="cls-26" points="1563.49 1181.43 1571.14 1172.25 1478.04 1098.91 1470.96 1108.52 1563.49 1181.43"/><path class="cls-11" d="M1772.15,1337.61s0-.07.08-.1a14.17,14.17,0,0,0-2.36-19.94l-193-152.14-5.69,6.82-3.49,4.17-4.16,5-4.84,5.82,193.64,152.63A14.17,14.17,0,0,0,1772.15,1337.61Z"/><path class="cls-26" d="M1772.15,1337.61a.62.62,0,0,0-.17-.12l-204.33-161.07-4.16,5-4.84,5.82,193.64,152.63A14.17,14.17,0,0,0,1772.15,1337.61Z"/><path class="cls-26" d="M1242.09,927.27l1.33,14.44,10.29,5.33-1.35-14.42Zm192.24-50.22a148.19,148.19,0,0,0-31.46-28.78c-6.22,11.47-18.12,17.08-27,12.44s-11.15-17.52-5.38-29.19a146.48,146.48,0,0,0-41.52-9.16c.32,13-7.34,23.8-17.19,24.25s-18.49-9.66-19.28-22.6c-4.36.75-8.7,1.66-12.94,2.81a157.29,157.29,0,0,0-27.62,10c6.8,11.15,5.62,24.27-2.75,29.6a13.39,13.39,0,0,1-2.89,1.38,16,16,0,0,1-9.74.19c-5.7-1.47-11.33-5.54-15.32-11.56-1.76,1.43-3.48,2.92-5.18,4.48a144.92,144.92,0,0,0-23.54,27c11.4,6.18,17,18.15,12.36,27s-17.55,11.12-29.22,5.35a149,149,0,0,0-9.11,41.53c13-.36,23.81,7.28,24.2,17.18s-9.55,18.45-22.55,19.24a154.06,154.06,0,0,0,12.83,40.61c11-6.85,24.16-5.58,29.56,2.69s.88,20.83-10,28a148.22,148.22,0,0,0,31.44,28.75,30.6,30.6,0,0,1,5.45-7.27c5.68-5.58,13-8,19.24-6.08a17.69,17.69,0,0,1,2.31.93c8.84,4.56,11.12,17.55,5.36,29.17,1.7.63,3.4,1.27,5.11,1.81a146.18,146.18,0,0,0,36.48,7.44,30.42,30.42,0,0,1,.61-7c1.93-9.72,8.46-16.9,16.52-17.22,9.91-.44,18.45,9.6,19.24,22.55a154.06,154.06,0,0,0,40.61-12.83c-6.8-11.15-5.55-24.23,2.7-29.56s20.87-.88,28,9.92a148,148,0,0,0,28.72-31.42c-11.46-6.14-17-18.16-12.42-27s17.58-11.19,29.2-5.43a149.44,149.44,0,0,0,9.23-41.49c-13,.33-23.83-7.31-24.33-17.17s9.66-18.44,22.63-19.25a151.55,151.55,0,0,0-12.88-40.62c-11,6.8-24.17,5.63-29.5-2.74S1423.5,884.28,1434.33,877.05Zm-185.49,17.58A102.68,102.68,0,0,1,1284,874.4a104.07,104.07,0,0,1,76.11,3.54l-37.07,71.43a24.57,24.57,0,0,0-23.85,7.56l-7.9-4.11-38.94-20.2-10.27-5.35-14.27-7.4a106,106,0,0,1,12-16.41A99.93,99.93,0,0,1,1248.84,894.63Zm15.58,167.56-.39.77a93.81,93.81,0,0,1-10-6.72,102,102,0,0,1-21.91-22.72,104.52,104.52,0,0,1-10-102.86l.44.25,20.82,10.8,10.29,5.33,39,20.23.94.49a25.37,25.37,0,0,0-.58,3.63,23.85,23.85,0,0,0,.79,8.42,24.44,24.44,0,0,0,7.32,11.78l-5.29,10.17Zm38.41,14.53a103.85,103.85,0,0,1-27.93-8.06l23.06-44.47,14-27a24.4,24.4,0,0,0,23.85-7.5l71.36,37A104.15,104.15,0,0,1,1302.83,1076.72Zm110-60.84-71.45-37a24.42,24.42,0,0,0-7.52-23.8l37.05-71.45A104.34,104.34,0,0,1,1412.82,1015.88Z"/><path class="cls-30" d="M1695.35,1056.36s-.4-17.72,4.46-17.72S1703.22,1056.32,1695.35,1056.36Z"/><path class="cls-37" d="M1696.14,1138l21.24,33.57,22.25-37c-2.69,3.43-7.83,6.68-22.25,7C1705.37,1141.89,1699.48,1140.22,1696.14,1138Z"/><path class="cls-29" d="M1676.36,1301.81c.31,2.25,13.8,5.15,23.81,4.08,8.49-.89,27.84-5.06,33.53-6.33l-2.13-27.07a68.68,68.68,0,0,1-10.39-1.14c-7.88-1.58-29.8-3.43-30-.25s14.52,7.45,13.33,8.7-12.77.61-17.66,0-15.22-3.75-17.23-1.68.19,5.74.19,5.74-3.81-1.64-4.4.92,4.69,6.6,4.69,6.6-2-1.15-1.94,1.83,10,6.3,10,6.3A1.84,1.84,0,0,0,1676.36,1301.81Z"/><path class="cls-25" d="M1712.69,1517.43l-19.12,180h-73.13l11.73-181a48.53,48.53,0,0,1,.6-6c2-22.61,20-39.49,42.58-37.52A41.12,41.12,0,0,1,1712.69,1517.43Z"/><path class="cls-13" d="M1727.09,1263.79l25.89-5.22,23.44-4.69,62.53-12.57c12.94-1.72,25.15,8.84,27.14,23.52s-7,28.1-20,29.86l-65.28,4.81-23.72,1.78-24.51,1.81Z"/><polygon class="cls-38" points="1694.68 1124.11 1723.48 1103.12 1696.09 1104.51 1694.68 1124.11"/><path class="cls-29" d="M1699,1043.25s-4.56,16.6-7.8,28.37l-2.68,9.74c-2.11,7.69-3.09,19.69,4.84,24.71s20.79,4.67,31.54-2,40.33-42.33,18.89-64.37S1700.65,1039.44,1699,1043.25Z"/><path class="cls-30" d="M1740.25,1036.44s-8-15.87-15-14.68.42,7.34.42,7.34-23.16-6.1-31,9,28.8,10.54,28.8,10.54-7.24,9,0,9.9,10.56-2.2,10.56-2.2-7.23,13.38-3.2,17.65-.95,16.34-5.45,19.78-12.6,2-16.31-1.13-6.08-4-8.39-4.3-7.77,1.13-10.12.75a9.15,9.15,0,0,1-3.28-1.74,41.61,41.61,0,0,0-1.3,5.78c-.18,3.43-1.88,18.79,15.53,19.5s29.29-7.67,35.33-20.35l2.22,9.9s2.11-11.14,8.19-16.59,13.72-30.67,2.72-40.39c0,0,9.46,5.42,8.24-1.35C1757.31,1038.67,1740.25,1036.44,1740.25,1036.44Z"/><path class="cls-29" d="M1737,1089.27c-2.08,5.4-2.21,8.93,2,10.56a9.92,9.92,0,0,0,12.4-5.8c2.08-5.4.32-11.1-3.92-12.73S1739.11,1083.87,1737,1089.27Z"/><path class="cls-30" d="M1716,1071.16c-.49,1.78-1.82,3-3,2.66s-1.7-2-1.2-3.81,1.82-3,3-2.65S1716.5,1069.38,1716,1071.16Z"/><path class="cls-30" d="M1694.44,1065.23c-.49,1.78,0,3.49,1.2,3.8s2.49-.87,3-2.65,0-3.49-1.21-3.81S1694.93,1063.45,1694.44,1065.23Z"/><path class="cls-31" d="M1709.46,1082c.09,1.79,3.06,3.08,6.62,2.88s6.36-1.8,6.26-3.59-3.06-3.08-6.62-2.89S1709.36,1080.24,1709.46,1082Z"/><path class="cls-31" d="M1691.16,1071.62l-1.74,6.33c2.58,1,5,.91,5.72-.38C1696,1076,1694.22,1073.38,1691.16,1071.62Z"/><path class="cls-39" d="M1746.55,1091.5a14.76,14.76,0,0,0-5.4,1.1c1.63-5.48,5.6-5.69,5.6-5.69"/><path class="cls-40" d="M1706.8,1070l-7.07,10.31a2.77,2.77,0,0,0,.21,3.39l1.31,1.46,1.33,1.5"/><path class="cls-40" d="M1719.64,1068.25s-2.79-4.82-7.58-4.83"/><path class="cls-40" d="M1694,1059.16a6.9,6.9,0,0,1,7.5,1"/><polygon class="cls-1" points="1694.13 1131.68 1717.37 1141.63 1705.16 1156.46 1691.26 1134.54 1694.13 1131.68"/><polygon class="cls-1" points="1740.43 1129.48 1717.37 1141.63 1728.37 1155.84 1742.49 1131.48 1740.43 1129.48"/><polygon class="cls-29" points="1683.02 1725.62 1684.98 1697.48 1630.19 1697.48 1628.05 1725.62 1683.02 1725.62"/><polygon class="cls-38" points="1629.22 1710.23 1684.98 1697.48 1630.19 1697.48 1629.22 1710.23"/><polygon class="cls-29" points="1764.35 1725.62 1762.25 1697.43 1818.37 1697.48 1819.32 1725.62 1764.35 1725.62"/><path class="cls-29" d="M1511.47,1141.86l8.57-1.17a5.53,5.53,0,0,1,5.65,2.88l8.32,15.64a5.52,5.52,0,0,1-3.84,8L1521,1169a5.53,5.53,0,0,1-6.06-3.07l-7.68-16.25A5.51,5.51,0,0,1,1511.47,1141.86Z"/><polygon class="cls-38" points="1763.42 1713.15 1818.37 1697.48 1762.25 1697.43 1763.42 1713.15"/><polyline class="cls-41" points="1745.21 1137.16 1717.37 1181.94 1689.91 1140.05"/><line class="cls-42" x1="1798.52" y1="1249.24" x2="1809.13" y2="1247.3"/><line class="cls-42" x1="1792.18" y1="1239.71" x2="1785.7" y2="1229.96"/><path class="cls-2" d="M1601.05,1749.29H1682l.14-3.3,1-21.8H1628c-6.82,0-13.12,4-17.94,8.17a27.56,27.56,0,0,0-8.35,13.63A19.35,19.35,0,0,0,1601.05,1749.29Z"/><path class="cls-43" d="M1601.05,1749.29H1682l.14-3.3h-80.35A19.35,19.35,0,0,0,1601.05,1749.29Z"/><path class="cls-44" d="M1626.37,1728.67s7-12.27,11.71-7.42-11.71,7.42-11.71,7.42"/><path class="cls-44" d="M1628.84,1731.12l-2.47-2.45s-7-12.27-11.7-7.42,11.7,7.42,11.7,7.42"/><line class="cls-44" x1="1624.49" y1="1731.12" x2="1626.37" y2="1728.67"/><path class="cls-2" d="M1845.9,1749.29H1765l-.14-3.3-1-21.8h55.06c6.81,0,13.12,4,17.94,8.17a27.56,27.56,0,0,1,8.35,13.63A20.36,20.36,0,0,1,1845.9,1749.29Z"/><path class="cls-43" d="M1845.9,1749.29H1765l-.14-3.3h80.36A20.36,20.36,0,0,1,1845.9,1749.29Z"/><path class="cls-44" d="M1820.57,1729.42s-7-12.28-11.7-7.42,11.7,7.42,11.7,7.42"/><path class="cls-44" d="M1818.11,1731.86l2.46-2.44s7-12.28,11.71-7.42-11.71,7.42-11.71,7.42"/><line class="cls-44" x1="1822.45" y1="1731.86" x2="1820.57" y2="1729.42"/><polyline class="cls-45" points="1719.1 1455.53 1716.47 1433.97 1703.24 1424.84 1692.49 1381.05"/><line class="cls-45" x1="1628.05" y1="1675.42" x2="1680.09" y2="1675.42"/><line class="cls-45" x1="1767.28" y1="1675.42" x2="1819.32" y2="1675.42"/><line class="cls-42" x1="1793.09" y1="1250.43" x2="1727.09" y2="1263.79"/><line class="cls-42" x1="1793.09" y1="1298.61" x2="1757.11" y2="1301.28"/><path class="cls-29" d="M1704.48,1095.38c-.22,1.6-2.58,2.61-5.28,2.26s-4.72-2-4.5-3.55,2.57-2.61,5.27-2.25S1704.69,1093.78,1704.48,1095.38Z"/></svg>